<svg version="1.1" id="Layer_1" xmlns="http://www.w3.org/2000/svg" xmlns:xlink="http://www.w3.org/1999/xlink" x="0px" y="0px"
	 width="100%" viewBox="0 0 1500 500" enable-background="new 0 0 1500 500" xml:space="preserve">
<path fill="#000000" opacity="1.000000" stroke="none" 
	d="
M1060.000000,501.000000 
	C706.710754,501.000000 353.921448,501.000000 1.066088,501.000000 
	C1.066088,334.398224 1.066088,167.796417 1.066088,1.097306 
	C501.000000,1.097306 1001.000000,1.097306 1500.972168,1.097306 
	C1500.972168,167.745346 1500.972168,334.372681 1500.972168,501.000000 
	C1354.129639,501.000000 1207.314819,501.000000 1060.000000,501.000000 
M424.055573,268.989258 
	C424.055573,268.989258 424.070190,268.937500 423.981934,268.366455 
	C423.646301,268.273682 423.310669,268.180908 422.313477,267.843903 
	C419.601288,266.130249 416.920715,264.363922 414.170837,262.713043 
	C406.492401,258.103302 398.785309,253.541367 390.820160,248.366104 
	C389.564789,247.554749 388.309418,246.743408 386.929443,245.460175 
	C386.750854,245.153748 386.484650,244.988251 385.777924,244.333237 
	C380.574738,241.070129 375.399292,237.761627 370.158844,234.559494 
	C366.523285,232.338028 363.207672,229.300873 358.289337,232.259476 
	C347.249817,238.900314 335.957184,245.120529 324.922150,251.768524 
	C322.826263,253.031189 321.157379,255.431244 324.889526,257.370728 
	C326.177887,258.040253 327.272522,259.071777 328.516266,259.839722 
	C335.269897,264.009674 341.974640,268.265472 348.833405,272.255951 
	C353.091858,274.733582 357.593689,276.792908 362.271118,279.662659 
	C372.526337,285.702148 382.781555,291.741669 393.686798,298.054016 
	C396.775330,300.137848 399.863892,302.221649 403.653717,304.778625 
	C396.125183,309.688049 389.014587,314.324951 381.184875,319.007904 
	C373.328827,323.378998 365.412811,327.646210 357.629272,332.142792 
	C341.520447,341.449005 325.506439,350.919250 309.404419,360.237274 
	C301.654175,364.722290 293.447296,368.513580 286.103271,373.571625 
	C281.233887,376.925323 277.124908,378.521210 271.589050,374.441986 
	C258.047058,366.677673 244.505081,358.913391 230.304947,350.828094 
	C228.303482,349.822052 226.247879,348.910065 224.309555,347.794342 
	C213.768158,341.726654 203.255707,335.608673 192.480682,329.140503 
	C192.480682,329.140503 192.046051,329.040436 191.863052,328.583405 
	C191.675156,328.235382 191.394562,328.126343 190.392075,327.917755 
	C181.260437,322.666992 172.128784,317.416260 162.362869,311.858093 
	C160.202682,310.391541 158.020065,308.956635 155.890518,307.446869 
	C154.561035,306.504303 153.311676,305.448761 152.026382,304.443909 
	C153.442764,303.239349 154.724686,301.810791 156.297363,300.866577 
	C166.531158,294.722290 176.828064,288.683136 187.492157,282.643250 
	C187.728653,282.499939 187.876007,282.293060 188.497437,281.962738 
	C188.674377,281.896851 188.851318,281.830994 189.651154,281.873596 
	C190.414062,281.251251 191.176971,280.628937 192.624466,279.967712 
	C193.759583,279.338531 194.894699,278.709351 196.709915,278.006165 
	C197.470886,277.694366 198.231857,277.382599 199.050522,277.059753 
	C199.050522,277.059753 199.064453,277.002655 199.543762,276.866425 
	C199.846909,276.668854 200.006241,276.389343 200.000610,276.000000 
	C200.000610,276.000000 200.026855,276.023895 200.631821,275.966797 
	C201.072021,275.664062 201.512222,275.361328 202.057510,275.042389 
	C202.057510,275.042389 202.063644,274.936249 202.696243,274.885254 
	C203.481293,274.264404 204.266342,273.643555 205.603821,272.891327 
	C205.766769,272.795074 205.929733,272.698792 206.477524,272.630585 
	C206.715363,272.493134 206.863754,272.290253 207.002167,272.040100 
	C207.002167,272.040100 207.031281,271.963959 207.649078,271.977997 
	C208.117950,271.671600 208.586823,271.365234 209.528198,270.960327 
	C209.528198,270.960327 209.980042,270.790680 210.663315,270.750824 
	C212.108673,269.654541 213.466187,268.411621 215.013031,267.484711 
	C229.974060,258.519623 244.820328,249.349167 259.987915,240.746124 
	C278.761749,230.097626 297.845367,219.996277 316.689301,209.469101 
	C318.794861,208.292831 321.493286,205.938034 321.572693,204.032120 
	C321.645721,202.279816 318.850769,199.900513 316.795593,198.677124 
	C313.008911,196.423019 308.791504,194.865677 307.941406,189.770279 
	C307.912842,189.599106 307.543243,189.484802 307.344482,189.351944 
	C306.191956,190.304199 305.080688,191.222366 304.575745,191.639542 
	C299.026917,188.903610 294.019012,186.434372 288.663910,183.345932 
	C283.963654,179.748611 279.167175,178.758942 273.716309,182.013702 
	C265.882538,186.691315 257.840607,191.019104 249.948395,195.601074 
	C248.450806,196.470520 247.236465,197.827896 245.423553,199.017166 
	C245.423553,199.017166 244.973892,199.158585 244.354965,199.018402 
	C243.883041,199.327438 243.411118,199.636459 242.999878,199.995941 
	C242.999878,199.995941 242.958191,199.928848 242.474594,200.120270 
	C242.288254,200.404373 242.101913,200.688492 241.192780,201.013123 
	C239.816498,201.828400 238.443619,202.649475 237.063431,203.458069 
	C224.709549,210.695541 212.354385,217.930832 199.293304,225.239212 
	C197.445648,226.185577 195.615372,227.167908 193.747025,228.071487 
	C188.507172,230.605591 183.029678,232.733719 178.045837,235.695038 
	C165.509445,243.143967 153.226395,251.017822 140.774521,258.611053 
	C134.568985,262.395203 128.243164,265.985291 121.923248,269.577911 
	C112.098061,275.163147 102.278419,280.761322 92.365349,286.187653 
	C86.158760,289.585083 81.098930,293.396362 82.950974,301.698639 
	C83.277580,303.162781 82.009781,304.970917 82.304832,306.455963 
	C83.135468,310.636780 83.078308,316.364441 85.757210,318.528229 
	C91.719093,323.343719 99.134697,326.359406 106.283920,330.737457 
	C110.841858,332.863495 115.399796,334.989532 120.236694,337.745667 
	C122.788963,339.181763 125.341240,340.617859 128.153885,342.660431 
	C129.098343,343.099487 130.042801,343.538513 130.988342,344.005676 
	C130.988342,344.005676 131.015900,344.011322 131.116943,344.522766 
	C131.402863,344.702850 131.688782,344.882935 132.120331,345.556854 
	C132.421265,345.645203 132.722183,345.733521 133.499924,345.954590 
	C133.499924,345.954590 133.977020,345.822784 134.466232,345.967102 
	C134.633362,345.998322 134.800507,346.029510 135.269592,346.708984 
	C143.471817,351.488495 151.674042,356.268036 160.149353,361.720398 
	C168.589722,366.455536 177.002213,371.241364 185.480865,375.906952 
	C190.578735,378.712189 195.779724,381.330017 201.254547,384.645538 
	C215.181335,392.701141 229.108109,400.756775 243.674606,409.118317 
	C247.072296,411.235626 250.390045,413.496857 253.885483,415.438141 
	C259.832397,418.741058 265.891113,421.842651 272.105682,425.511078 
	C272.404449,425.658447 272.703186,425.805817 273.008362,426.011566 
	C273.008362,426.011566 273.063568,425.991547 273.225067,426.383209 
	C273.397064,426.664825 273.642670,426.763672 274.452545,426.939941 
	C274.636688,426.959473 274.820801,426.979004 275.392090,427.547394 
	C277.456573,429.318298 279.330200,429.046906 281.666199,427.005951 
	C282.144501,426.734619 282.622803,426.463287 283.720612,426.047699 
	C284.184448,425.738190 284.648315,425.428711 285.081146,425.012085 
	C285.081146,425.012085 285.071045,425.123138 285.628571,424.986023 
	C286.048004,424.650299 286.467407,424.314575 286.985291,424.000977 
	C286.985291,424.000977 287.005188,423.902008 287.500305,423.828918 
	C287.680908,423.557434 287.861511,423.285950 288.534027,422.947174 
	C288.534027,422.947174 289.013428,422.818085 289.527496,422.901550 
	C289.697327,422.617401 289.867188,422.333282 289.999298,422.004791 
	C289.999298,422.004791 290.044006,422.040100 290.643585,421.935883 
	C291.096954,421.623260 291.550323,421.310669 292.574371,420.763031 
	C293.379425,420.168762 294.184479,419.574463 295.727844,419.012665 
	C309.302521,411.421875 322.904816,403.879944 336.442871,396.224426 
	C346.674774,390.438446 356.865295,384.576691 367.000092,378.622467 
	C378.277832,371.996674 389.427643,365.152985 400.713715,358.541687 
	C413.118164,351.275177 425.597168,344.135315 438.077271,336.998962 
	C445.154907,332.951813 452.284607,328.994812 459.418488,325.047089 
	C467.562378,320.540436 475.739197,316.332703 473.167389,304.390350 
	C472.451569,301.066437 471.740112,298.698669 468.730347,296.893921 
	C460.884033,292.188934 453.221313,287.178986 445.439728,282.364410 
	C438.671631,278.176849 431.841125,274.090149 425.019684,269.991058 
	C425.019684,269.991058 425.050262,269.973938 424.862091,269.507294 
	C424.591644,269.318634 424.321198,269.129944 424.055573,268.989258 
M239.516861,102.164070 
	C239.336044,102.437889 239.155228,102.711716 238.453979,103.057495 
	C238.289322,103.117104 238.124649,103.176704 237.502640,103.145111 
	C237.180878,103.297852 237.035843,103.551575 236.410950,104.232719 
	C229.273529,108.003036 222.014282,111.561821 215.024078,115.587753 
	C200.505219,123.949730 186.177948,132.644089 171.671432,141.027924 
	C165.397720,144.653717 158.764603,147.658432 152.497757,151.295090 
	C146.704391,154.656998 141.270340,158.633850 135.516190,162.068756 
	C129.586945,165.608185 123.404663,168.721283 117.435966,172.197556 
	C107.366440,178.062271 97.294487,183.933243 87.428307,190.127670 
	C85.526756,191.321548 84.565170,194.012558 83.034561,196.940262 
	C83.115555,210.238281 83.196548,223.536285 83.250565,237.632156 
	C83.950874,243.017960 87.433846,241.338394 90.143494,239.987228 
	C92.831131,238.647064 95.003952,236.310455 97.622765,234.790192 
	C110.251205,227.459045 122.979218,220.299606 135.622772,212.994217 
	C146.466995,206.728424 157.244766,200.347626 168.746780,193.741776 
	C172.186111,191.972733 175.715317,190.357208 179.048065,188.406113 
	C189.419754,182.334229 199.643677,176.007584 210.064163,170.022171 
	C219.980103,164.326569 230.151596,159.075668 240.064072,153.374268 
	C251.367050,146.873108 262.433533,139.958115 273.791931,133.558624 
	C275.692383,132.487900 278.584808,132.821762 280.960083,133.069656 
	C282.667480,133.247879 284.277100,134.363022 286.109253,135.534927 
	C286.404846,135.622894 286.700439,135.710861 287.480988,135.966125 
	C287.651428,135.980209 287.821838,135.994278 288.366974,136.583008 
	C293.578339,139.620087 298.767883,142.695312 304.005890,145.685715 
	C313.000427,150.820740 322.025238,155.902832 331.216644,161.372101 
	C331.216644,161.372101 331.522034,161.639343 331.522034,161.639343 
	C331.522034,161.639343 331.927246,161.617737 332.397034,161.897003 
	C332.574036,161.940140 332.751038,161.983292 333.215027,162.685669 
	C334.505035,163.291306 335.850739,163.801575 337.076447,164.517319 
	C349.351257,171.685425 361.606323,178.887299 374.023621,186.626556 
	C374.355377,186.710373 374.687103,186.794189 375.471313,186.964127 
	C375.471313,186.964127 375.924957,187.043472 376.205322,187.691132 
	C384.803558,192.600937 393.386139,197.538376 402.005188,202.411362 
	C408.320709,205.982010 414.684052,209.468063 421.380737,213.589005 
	C421.693268,213.972870 421.928070,214.495361 422.329620,214.720551 
	C436.223297,222.512680 450.107239,230.322968 464.062988,238.002747 
	C466.618683,239.409134 469.475525,240.268311 472.974152,241.699463 
	C472.974152,228.647400 472.390869,216.826767 473.166718,205.096039 
	C473.741913,196.399109 471.908051,190.385513 463.356415,186.625366 
	C457.901794,184.226974 453.157654,180.212662 448.087311,176.958008 
	C448.087311,176.958008 448.070435,176.931778 447.974121,176.366562 
	C447.641327,176.280502 447.308563,176.194443 446.563568,176.018661 
	C446.563568,176.018661 446.152832,175.922409 445.987671,175.369171 
	C445.649780,175.272308 445.311859,175.175461 444.323090,174.766220 
	C436.825043,170.631607 429.309967,166.527557 421.835022,162.351593 
	C416.897797,159.593353 412.018341,156.731812 407.036377,154.009537 
	C407.036377,154.009537 407.097656,153.908295 406.963593,153.359344 
	C406.633453,153.273941 406.303345,153.188538 405.311859,152.824448 
	C397.321564,148.249466 389.381714,143.583298 381.324951,139.128525 
	C374.958557,135.608398 368.448456,132.348114 361.788177,128.516098 
	C361.518066,128.322281 361.247925,128.128479 360.881073,127.448662 
	C360.670135,127.089500 360.383179,127.012390 359.368530,126.908409 
	C353.648193,123.529892 347.994324,120.031914 342.191620,116.801353 
	C333.849304,112.156891 325.398560,107.707085 316.346466,102.856010 
	C305.248657,96.236565 293.969910,89.895493 283.143219,82.858871 
	C278.890869,80.095108 275.436218,81.270363 271.823914,82.911110 
	C268.909546,84.234840 266.336731,86.315727 263.626373,88.082176 
	C260.104614,90.377449 256.596680,92.693977 252.445633,95.023888 
	C251.952301,95.313499 251.458969,95.603111 250.466125,96.080681 
	C250.281708,96.374573 250.097290,96.668457 249.986343,96.990868 
	C249.986343,96.990868 249.950241,96.920830 249.308701,97.020569 
	C248.556107,97.416405 247.803497,97.812241 246.375275,98.230629 
	C244.904984,99.245575 243.434677,100.260529 241.361099,101.132988 
	C240.910873,101.421539 240.460632,101.710098 239.996719,101.999634 
	C239.996719,101.999634 239.997513,102.013977 239.516861,102.164070 
M1351.137451,132.039734 
	C1348.752930,132.095901 1346.368530,132.152054 1343.481689,132.174530 
	C1343.290405,132.441086 1343.099243,132.707642 1342.040527,132.996613 
	C1338.536621,133.611328 1334.926392,133.874374 1331.546265,134.897903 
	C1309.863403,141.463745 1296.816772,164.405243 1296.066162,186.179901 
	C1295.687622,197.164261 1295.330200,208.227341 1296.226807,219.151108 
	C1296.857056,226.829391 1298.720337,234.698029 1301.622070,241.835678 
	C1307.113037,255.342926 1317.190308,264.768158 1331.203979,270.585205 
	C1331.793579,270.656189 1332.383179,270.727142 1333.482422,270.945862 
	C1333.658447,270.962830 1333.834473,270.979797 1334.427734,271.583923 
	C1335.608521,271.673309 1336.789429,271.762695 1338.470093,271.976959 
	C1338.641357,271.988220 1338.812744,271.999512 1339.535156,272.656006 
	C1344.351807,272.766174 1349.174438,273.085144 1353.984009,272.946472 
	C1367.130371,272.567383 1378.293091,267.213074 1387.902954,258.548401 
	C1396.490601,250.805328 1399.869995,240.524185 1400.871826,229.385544 
	C1401.137695,226.429565 1401.218384,222.377457 1396.902466,222.118851 
	C1389.999512,221.705200 1383.053467,222.008118 1376.291138,222.008118 
	C1375.799072,225.914093 1375.649170,229.226898 1374.928467,232.410507 
	C1373.017700,240.852585 1368.987793,248.019104 1359.904175,249.949463 
	C1354.122559,251.178101 1348.002686,250.815094 1341.369019,250.879669 
	C1328.954346,245.652100 1323.155273,235.113831 1322.310547,222.825211 
	C1321.318970,208.398636 1321.600586,193.687225 1323.279297,179.327225 
	C1325.136475,163.440125 1336.246582,151.668610 1354.365112,153.775116 
	C1362.973633,154.736130 1369.781982,158.527130 1372.888062,166.924377 
	C1374.654663,171.700073 1375.405518,176.851486 1376.654053,182.000397 
	C1382.586792,182.000397 1388.401489,182.001877 1394.216187,181.999985 
	C1400.264282,181.998001 1402.235474,179.474884 1400.810669,173.519577 
	C1400.622925,172.734970 1400.102661,172.002533 1400.035889,171.220337 
	C1398.050415,147.989929 1377.516357,133.032745 1355.613159,132.433350 
	C1354.735840,132.344772 1353.858643,132.256210 1352.501343,132.054565 
	C1352.501343,132.054565 1352.023193,132.174774 1351.137451,132.039734 
M879.937134,272.988708 
	C889.354980,273.178619 898.382629,272.464142 907.381592,268.512054 
	C922.005554,262.089661 931.705017,251.562073 936.971252,236.920059 
	C943.573486,218.563538 941.956970,199.468384 939.836670,180.712173 
	C937.169739,157.120529 923.905090,141.396301 900.161987,134.043762 
	C890.950073,131.670258 881.611023,131.185303 872.316650,133.093109 
	C846.669312,138.357590 832.026611,160.203903 830.112549,183.982040 
	C829.366455,193.250671 830.374451,202.648819 829.911804,211.954575 
	C829.123047,227.819595 833.032104,242.185440 843.210999,254.361801 
	C852.439209,265.400909 864.316711,272.036255 879.937134,272.988708 
M1064.256958,221.675537 
	C1074.155884,238.112686 1084.054810,254.549820 1093.741333,270.634338 
	C1101.936523,270.634338 1109.848389,270.634338 1117.603516,270.634338 
	C1117.603516,224.917953 1117.603516,179.579681 1117.603516,134.348328 
	C1108.965332,134.348328 1100.722656,134.348328 1092.304932,134.348328 
	C1092.909668,165.959152 1093.507690,197.218613 1094.105713,228.478073 
	C1093.672241,228.543304 1093.238770,228.608521 1092.805298,228.673752 
	C1089.409424,222.875412 1086.091431,217.029694 1082.598633,211.290314 
	C1077.838501,203.468399 1072.945068,195.727600 1067.988770,187.467575 
	C1067.988770,187.467575 1067.832520,186.993515 1067.888306,186.464981 
	C1067.604614,186.269958 1067.320801,186.074936 1066.958008,185.164780 
	C1065.025757,181.977127 1063.068237,178.804565 1061.165771,175.599258 
	C1053.618896,162.883926 1046.057983,150.176712 1038.580200,137.420822 
	C1037.100342,134.896378 1035.334473,133.733292 1032.235840,133.915527 
	C1027.091431,134.218109 1021.909546,134.156143 1016.756226,133.940414 
	C1013.332031,133.797089 1011.986145,134.986130 1011.991516,138.482788 
	C1012.057007,181.279678 1012.054626,224.076736 1011.989990,266.873627 
	C1011.985413,269.900757 1013.093018,271.084137 1016.073914,271.028046 
	C1021.567261,270.924622 1027.082153,270.724304 1032.553711,271.085205 
	C1037.126343,271.386780 1038.271484,269.556824 1038.068848,265.307648 
	C1037.532593,254.066528 1037.192627,242.811310 1037.036621,231.558060 
	C1036.861206,218.905258 1037.078125,206.247101 1036.912476,193.594055 
	C1036.834595,187.638382 1036.260254,181.689224 1035.911011,175.737122 
	C1036.200928,175.674744 1036.490967,175.612366 1036.781006,175.549988 
	C1045.915527,190.696121 1055.050171,205.842270 1064.256958,221.675537 
M590.924500,270.985229 
	C603.174072,270.163452 615.753845,273.361023 627.650330,268.868652 
	C634.970886,266.104218 642.790833,263.246216 648.652405,258.352875 
	C658.440186,250.181915 660.041565,238.160599 658.899658,226.003082 
	C657.774536,214.023880 651.026855,205.066116 642.414734,197.265579 
	C656.697510,182.921951 656.551880,170.187469 650.826904,155.729614 
	C645.964294,143.449570 628.661316,134.250397 614.155151,134.998428 
	C612.249023,134.667480 610.344666,134.062607 608.436401,134.049759 
	C595.451416,133.962326 582.465576,133.999466 569.480042,133.996658 
	C566.720520,133.996063 563.960999,133.996582 561.000488,133.996582 
	C561.000488,178.929657 561.014893,223.196686 560.968445,267.463654 
	C560.965332,270.459412 562.456848,271.077362 565.036255,271.036377 
	C573.355530,270.904327 581.676636,270.894104 590.924500,270.985229 
M1223.000000,184.500000 
	C1223.000000,167.746658 1223.000000,150.993332 1223.000000,134.381195 
	C1213.924561,134.381195 1205.531738,134.381195 1197.015747,134.381195 
	C1197.015747,159.915283 1197.015869,185.067108 1197.015747,210.218948 
	C1197.015503,228.878601 1197.098877,247.538940 1196.944336,266.197327 
	C1196.913330,269.951630 1198.190186,271.227753 1201.860596,271.067352 
	C1207.015503,270.842133 1212.200195,270.784882 1217.348389,271.075531 
	C1221.626831,271.317108 1223.131958,269.983856 1223.098267,265.469208 
	C1222.898926,238.814041 1223.000000,212.156647 1223.000000,184.500000 
M730.997925,149.503311 
	C730.997925,189.885590 730.997925,230.267853 730.997925,270.675354 
	C739.600647,270.675354 747.651855,270.675354 755.715271,270.675354 
	C755.715271,224.995071 755.715271,179.649536 755.715271,134.298218 
	C747.372620,134.298218 739.315857,134.298218 730.997925,134.298218 
	C730.997925,139.230820 730.997925,143.867783 730.997925,149.503311 
M1354.999512,340.476166 
	C1350.320557,328.212402 1345.718262,315.918060 1340.864380,303.723846 
	C1340.261841,302.210327 1338.446411,300.385681 1336.977173,300.169189 
	C1333.452026,299.649658 1329.798584,300.001129 1326.281494,300.001129 
	C1326.281494,320.977692 1326.281494,341.381683 1326.281494,361.714783 
	C1329.975952,361.714783 1333.382568,361.714783 1337.171021,361.714783 
	C1337.171021,348.801941 1337.171021,336.169617 1337.171021,322.201935 
	C1342.465332,335.160309 1347.199097,346.838837 1352.041626,358.472107 
	C1352.584839,359.776825 1353.544556,361.568420 1354.651855,361.865967 
	C1360.009644,363.305450 1361.956421,361.893402 1364.030273,356.574310 
	C1368.752319,344.462036 1373.647583,332.417358 1378.500000,320.276581 
	C1378.500000,334.312683 1378.500000,348.124054 1378.500000,361.812134 
	C1382.018677,361.812134 1385.308594,361.812134 1389.000000,361.812134 
	C1389.000000,344.179352 1389.044922,326.731110 1388.983154,309.283234 
	C1388.945923,298.750122 1390.499268,300.187073 1379.738647,299.947296 
	C1376.855835,299.883118 1375.692627,300.669434 1374.575073,303.626343 
	C1369.127319,318.042297 1363.190308,332.273468 1357.523560,346.329010 
	C1356.727051,344.712677 1355.879395,342.992523 1354.999512,340.476166 
M301.940735,297.542145 
	C295.470856,293.765015 289.088013,289.826813 282.499664,286.269043 
	C278.308014,284.005463 274.358765,281.214233 268.859497,284.381073 
	C258.031158,290.616669 246.778992,296.114594 235.722137,301.955536 
	C229.638367,305.169342 229.431732,307.416992 235.403152,310.952240 
	C245.608795,316.994293 256.486481,322.016998 266.186676,328.756378 
	C272.672119,333.262268 277.605164,331.537262 283.006439,328.280487 
	C287.777649,325.403595 292.210266,321.968384 296.954041,319.041809 
	C303.338196,315.103210 309.877594,311.416260 317.526367,306.931793 
	C311.674622,303.478485 307.077606,300.765625 301.940735,297.542145 
M1058.634033,299.872345 
	C1048.676392,302.846619 1045.274048,306.894226 1044.380981,316.251648 
	C1043.713501,323.245453 1048.210938,328.902191 1056.596802,332.169525 
	C1062.692749,334.544708 1069.015381,336.396027 1074.951538,339.106110 
	C1079.931152,341.379456 1080.663940,348.468750 1076.640869,351.814178 
	C1071.768311,355.865967 1066.183594,356.017426 1060.551025,353.945251 
	C1055.711670,352.164825 1052.045288,349.164978 1052.963501,343.246033 
	C1049.402710,343.246033 1046.305420,343.246033 1043.262695,343.246033 
	C1042.144897,348.907959 1043.976196,353.534546 1047.759399,357.164276 
	C1055.950073,365.022675 1074.539185,364.830963 1082.263672,359.876617 
	C1087.307861,356.641357 1090.758789,350.983002 1089.374146,343.663422 
	C1087.433472,333.405487 1080.020386,329.695465 1071.353760,326.978149 
	C1067.554565,325.787018 1063.679199,324.658447 1060.127930,322.912567 
	C1057.027344,321.388275 1054.258667,319.092194 1054.998291,314.846985 
	C1055.657349,311.063019 1057.979736,309.072601 1061.595215,307.952850 
	C1071.039795,305.027740 1077.502563,308.843506 1079.509644,318.747620 
	C1082.621826,318.747620 1085.721313,318.747620 1088.798950,318.747620 
	C1089.305786,309.410858 1084.792358,302.263702 1075.844482,300.134094 
	C1070.537720,298.871033 1064.786011,299.477417 1058.634033,299.872345 
M869.082458,322.604950 
	C862.391541,315.869537 863.837646,310.287231 873.003418,307.468964 
	C880.906799,305.038818 887.985901,309.880737 889.563843,318.729553 
	C892.681213,318.729553 895.776306,318.729553 898.888855,318.729553 
	C899.566833,312.115417 896.724060,307.681854 892.136169,303.407318 
	C885.637390,297.352478 877.811584,298.234314 870.699707,299.276764 
	C857.114990,301.268005 850.449463,314.110626 857.206482,325.267090 
	C860.832031,331.253204 867.643494,333.016968 873.999207,335.026184 
	C877.799377,336.227539 881.687134,337.348297 885.229370,339.118042 
	C889.426636,341.215088 890.716736,349.296539 887.317139,351.872406 
	C882.310486,355.665924 876.567627,356.052979 870.708496,353.986694 
	C865.723877,352.228790 862.282104,349.190918 862.952209,343.364563 
	C852.659790,342.075775 851.260559,342.905640 854.166870,351.921631 
	C854.922546,354.265930 857.384583,356.175018 859.329468,357.999786 
	C865.427490,363.721222 873.077515,363.097321 880.614258,363.023468 
	C890.663574,362.925018 897.406128,357.921417 899.766296,348.582550 
	C901.369324,342.240021 896.406677,333.555389 888.539795,330.039886 
	C882.444885,327.316254 876.032166,325.304047 869.082458,322.604950 
M803.000000,327.551514 
	C804.592407,309.405579 792.271118,297.494446 775.264099,298.865417 
	C765.412109,299.659668 755.221619,308.044525 754.074463,318.305176 
	C753.345337,324.825928 752.748779,331.462646 753.148254,337.982727 
	C753.645874,346.105255 756.300171,353.356171 763.183228,358.948792 
	C768.539551,363.300873 774.336853,362.579651 780.297668,363.080933 
	C790.285767,363.920868 800.403687,354.727112 801.892334,345.688934 
	C802.818970,340.062500 802.667603,334.258484 803.000000,327.551514 
M1244.714478,325.996124 
	C1244.144165,325.398621 1243.093994,324.813019 1243.078857,324.201752 
	C1242.947998,318.920898 1243.003540,313.635437 1243.003540,307.968140 
	C1253.835815,307.968140 1264.250122,307.968140 1274.790527,307.968140 
	C1274.790527,305.166504 1274.790527,302.762726 1274.790527,300.214844 
	C1260.841431,300.214844 1247.102295,300.214844 1233.212891,300.214844 
	C1233.212891,320.830994 1233.212891,341.231934 1233.212891,361.797363 
	C1247.506104,361.797363 1261.586060,361.797363 1275.646362,361.797363 
	C1276.384888,354.000793 1276.384888,354.000427 1269.185059,354.000092 
	C1260.571411,353.999695 1251.957886,354.000000 1243.223145,354.000000 
	C1243.223145,347.152740 1243.223145,340.748871 1243.223145,333.952362 
	C1252.519409,333.952362 1261.601685,333.952362 1270.781738,333.952362 
	C1270.781738,331.149658 1270.781738,328.745605 1270.781738,325.999756 
	C1262.272461,325.999756 1253.976807,325.999756 1244.714478,325.996124 
M606.165771,354.000092 
	C596.553711,354.000092 586.941650,354.000092 577.231445,354.000092 
	C577.231445,347.136627 577.231445,340.732086 577.231445,333.935486 
	C586.537598,333.935486 595.620300,333.935486 604.771484,333.935486 
	C604.771484,331.130829 604.771484,328.726257 604.771484,325.929443 
	C595.471313,325.929443 586.390686,325.929443 577.238281,325.929443 
	C577.238281,319.788879 577.238281,314.050873 577.238281,307.922516 
	C587.885132,307.922516 598.300110,307.922516 608.764526,307.922516 
	C608.764526,305.117737 608.764526,302.713043 608.764526,300.240845 
	C594.788452,300.240845 581.049194,300.240845 567.000000,300.240845 
	C567.000000,310.609314 567.000000,320.739990 567.000000,330.870636 
	C567.000000,341.145752 567.000000,351.420868 567.000000,361.771851 
	C581.566833,361.771851 595.650269,361.771851 610.180420,361.771851 
	C609.041321,358.964386 612.352234,354.987762 606.165771,354.000092 
M680.717773,354.999939 
	C674.151306,354.733704 670.142578,350.398499 669.273865,344.877869 
	C668.005676,336.818207 667.816895,328.425140 668.489868,320.283478 
	C668.909119,315.211121 672.181396,310.534698 677.169495,308.053284 
	C683.858582,304.725647 696.080750,309.690155 695.201294,320.697815 
	C698.446838,320.697815 701.673523,320.697815 704.873901,320.697815 
	C705.849609,311.963165 702.365356,305.377899 695.036865,301.890625 
	C690.571228,299.765564 685.061279,299.354340 679.976379,299.117432 
	C670.991577,298.698730 663.054016,304.777161 659.927063,313.219818 
	C656.048462,323.691498 656.211914,334.509552 658.363892,345.034607 
	C659.327881,349.749420 663.340515,354.037079 666.554260,358.050446 
	C671.571472,364.316010 678.926331,362.935669 685.744385,362.998718 
	C693.342041,363.068970 698.961609,359.098083 702.721863,353.148346 
	C704.525024,350.295349 704.157166,346.070282 704.772583,342.466614 
	C701.807373,341.991394 698.844421,341.501129 695.872864,341.069580 
	C695.635620,341.035126 695.339539,341.406219 695.073303,341.592590 
	C695.914429,349.789337 689.653931,355.280914 680.717773,354.999939 
M984.526245,324.980835 
	C988.800903,316.853607 993.075500,308.726379 997.504456,300.305817 
	C985.760315,299.451294 985.752502,299.447388 981.011353,308.946960 
	C979.935730,311.102112 978.988037,313.321838 977.889587,315.464691 
	C975.564880,319.999420 973.179565,324.503052 970.655579,329.332336 
	C966.589844,321.167450 962.786682,313.536865 958.989746,305.903198 
	C955.847229,299.585114 951.522949,298.136932 944.205017,301.154419 
	C949.169800,310.309509 954.041016,319.486725 959.102356,328.557892 
	C962.522583,334.687683 965.964600,340.635529 965.095947,348.172089 
	C964.573914,352.700836 965.000000,357.338837 965.000000,361.653809 
	C969.091980,361.653809 972.499023,361.653809 976.000000,361.653809 
	C976.000000,355.151093 975.971069,348.993958 976.023621,342.837555 
	C976.034485,341.561676 976.019348,340.117310 976.578674,339.043640 
	C978.949524,334.492432 981.532471,330.051697 984.526245,324.980835 
M1138.667969,300.000031 
	C1137.447754,300.121338 1136.227417,300.242645 1135.223633,300.342407 
	C1135.223633,303.120453 1135.223633,305.395142 1135.223633,308.062500 
	C1141.852051,308.062500 1148.269531,308.062500 1155.066284,308.062500 
	C1155.066284,326.201874 1155.066284,343.945740 1155.066284,361.766998 
	C1158.538940,361.766998 1161.610596,361.766998 1165.074951,361.766998 
	C1165.074951,343.796539 1165.074951,326.054291 1165.074951,307.923645 
	C1171.549316,307.923645 1177.636719,307.923645 1183.764282,307.923645 
	C1183.764282,305.117523 1183.764282,302.712738 1183.764282,300.000000 
	C1168.898193,300.000000 1154.265625,300.000000 1138.667969,300.000031 
z"/>
<path fill="#7597E5" opacity="1.000000" stroke="none" 
	d="
M237.959991,103.236305 
	C238.124649,103.176704 238.289322,103.117104 238.941132,102.926819 
	C239.714325,102.605530 239.904068,102.344803 239.997513,102.013977 
	C239.997513,102.013977 239.996719,101.999634 240.277039,101.992859 
	C241.026367,101.749222 241.495377,101.512352 241.964371,101.275482 
	C243.434677,100.260529 244.904984,99.245575 246.938858,98.441261 
	C248.318375,98.074875 249.134308,97.497856 249.950241,96.920837 
	C249.950241,96.920830 249.986343,96.990868 250.193573,96.875153 
	C250.589066,96.470528 250.777359,96.181625 250.965637,95.892715 
	C251.458969,95.603111 251.952301,95.313499 253.097015,95.057587 
	C258.379120,98.300545 253.756165,100.337708 252.384857,101.882889 
	C245.785019,109.319389 238.804260,116.420120 231.901245,123.584694 
	C221.654648,134.219513 211.356995,144.805115 201.091278,155.421555 
	C200.401932,156.134460 199.829727,156.959808 199.149963,157.682953 
	C189.990829,167.427017 180.736099,177.083755 171.731323,186.968231 
	C170.005249,188.862915 169.253296,191.645004 168.051941,194.017700 
	C157.244766,200.347626 146.466995,206.728424 135.622772,212.994217 
	C122.979218,220.299606 110.251205,227.459045 97.622765,234.790192 
	C95.003952,236.310455 92.831131,238.647064 90.143494,239.987228 
	C87.433846,241.338394 83.950874,243.017960 83.507462,236.919830 
	C83.841621,224.396637 83.950897,212.585754 83.958099,200.774826 
	C83.959068,199.187698 83.445351,197.600220 83.169968,196.012909 
	C84.565170,194.012558 85.526756,191.321548 87.428307,190.127670 
	C97.294487,183.933243 107.366440,178.062271 117.435966,172.197556 
	C123.404663,168.721283 129.586945,165.608185 135.516190,162.068756 
	C141.270340,158.633850 146.704391,154.656998 152.497757,151.295090 
	C158.764603,147.658432 165.397720,144.653717 171.671432,141.027924 
	C186.177948,132.644089 200.505219,123.949730 215.024078,115.587753 
	C222.014282,111.561821 229.273529,108.003036 236.932480,104.030754 
	C237.703781,103.700638 237.872452,103.503143 237.959991,103.236305 
z"/>
<path fill="#2F9ED2" opacity="1.000000" stroke="none" 
	d="
M381.903992,318.961853 
	C389.014587,314.324951 396.125183,309.688049 403.653717,304.778625 
	C399.863892,302.221649 396.775330,300.137848 393.652374,297.674438 
	C394.767090,297.208221 396.130554,296.676849 397.029205,297.109955 
	C401.526642,299.277405 404.125427,296.638641 406.806274,293.722473 
	C411.738647,288.357147 416.957764,283.239838 421.641266,277.669342 
	C423.376221,275.605865 423.940186,272.557861 425.038208,269.958862 
	C431.841125,274.090149 438.671631,278.176849 445.439728,282.364410 
	C453.221313,287.178986 460.884033,292.188934 468.730347,296.893921 
	C471.740112,298.698669 472.451569,301.066437 473.167389,304.390350 
	C475.739197,316.332703 467.562378,320.540436 459.418488,325.047089 
	C452.284607,328.994812 445.154907,332.951813 438.077271,336.998962 
	C425.597168,344.135315 413.118164,351.275177 400.713715,358.541687 
	C389.427643,365.152985 378.277832,371.996674 367.000092,378.622467 
	C356.865295,384.576691 346.674774,390.438446 336.442871,396.224426 
	C322.904816,403.879944 309.302521,411.421875 295.395905,418.652985 
	C296.189240,416.882385 297.199188,415.357758 298.459351,414.079865 
	C304.508270,407.945740 310.714142,401.964661 316.700195,395.770660 
	C333.114197,378.786377 349.455475,361.731750 365.805420,344.685699 
	C372.365570,337.846191 378.923126,331.002655 385.371368,324.058350 
	C387.082611,322.215485 388.384460,319.992462 390.051300,317.700592 
	C386.900818,318.188293 384.402405,318.575073 381.903992,318.961853 
z"/>
<path fill="#9095EC" opacity="1.000000" stroke="none" 
	d="
M589.997070,270.836914 
	C581.676636,270.894104 573.355530,270.904327 565.036255,271.036377 
	C562.456848,271.077362 560.965332,270.459412 560.968445,267.463654 
	C561.014893,223.196686 561.000488,178.929657 561.000488,133.996582 
	C563.960999,133.996582 566.720520,133.996063 569.480042,133.996658 
	C582.465576,133.999466 595.451416,133.962326 608.436401,134.049759 
	C610.344666,134.062607 612.249023,134.667480 614.588501,135.489441 
	C617.576721,142.920776 615.212219,149.076370 611.507812,155.050537 
	C603.131104,155.008621 595.219788,155.008621 586.870361,155.008621 
	C586.870361,156.733902 586.870361,158.013184 586.870361,159.292465 
	C586.870361,169.030289 586.870361,178.768097 586.870361,189.155670 
	C594.175415,189.155670 601.085205,189.155670 607.996704,189.599426 
	C608.580872,197.208725 606.594360,203.725082 602.535583,209.905594 
	C597.080200,210.004410 592.086487,210.032089 586.764282,210.316406 
	C586.310059,223.161484 586.171570,235.749863 586.102234,248.338638 
	C586.099243,248.872360 586.737549,249.409622 587.537842,249.969971 
	C592.665588,250.050705 597.332581,250.106735 601.952454,250.512131 
	C600.638733,253.325745 598.238586,255.832077 598.328247,258.245941 
	C598.553589,264.312500 597.180603,268.492371 590.559082,269.531586 
	C590.309570,269.570740 590.181641,270.384216 589.997070,270.836914 
z"/>
<path fill="#4A9BD9" opacity="1.000000" stroke="none" 
	d="
M1067.832520,186.993515 
	C1067.832520,186.993515 1067.988770,187.467575 1067.780029,187.909058 
	C1071.905151,198.210327 1069.921997,208.178528 1067.833740,218.070389 
	C1067.585327,219.247375 1065.447021,220.025421 1064.184814,220.988403 
	C1055.050171,205.842270 1045.915527,190.696121 1036.781006,175.549988 
	C1036.490967,175.612366 1036.200928,175.674744 1035.911011,175.737122 
	C1036.260254,181.689224 1036.834595,187.638382 1036.912476,193.594055 
	C1037.078125,206.247101 1036.861206,218.905258 1037.036621,231.558060 
	C1037.192627,242.811310 1037.532593,254.066528 1038.068848,265.307648 
	C1038.271484,269.556824 1037.126343,271.386780 1032.553711,271.085205 
	C1027.082153,270.724304 1021.567261,270.924622 1016.073914,271.028046 
	C1013.093018,271.084137 1011.985413,269.900757 1011.989990,266.873627 
	C1012.054626,224.076736 1012.057007,181.279678 1011.991516,138.482788 
	C1011.986145,134.986130 1013.332031,133.797089 1016.756226,133.940414 
	C1021.909546,134.156143 1027.091431,134.218109 1032.235840,133.915527 
	C1035.334473,133.733292 1037.100342,134.896378 1038.580200,137.420822 
	C1046.057983,150.176712 1053.618896,162.883926 1061.165771,175.599258 
	C1063.068237,178.804565 1065.025757,181.977127 1067.062134,185.750885 
	C1067.311646,186.633575 1067.533813,186.852417 1067.832520,186.993515 
z"/>
<path fill="#6C98E3" opacity="1.000000" stroke="none" 
	d="
M168.399353,193.879730 
	C169.253296,191.645004 170.005249,188.862915 171.731323,186.968231 
	C180.736099,177.083755 189.990829,167.427017 199.149963,157.682953 
	C199.829727,156.959808 200.401932,156.134460 201.091278,155.421555 
	C211.356995,144.805115 221.654648,134.219513 231.901245,123.584694 
	C238.804260,116.420120 245.785019,109.319389 252.384857,101.882889 
	C253.756165,100.337708 258.379120,98.300545 253.415588,95.046310 
	C256.596680,92.693977 260.104614,90.377449 263.626373,88.082176 
	C266.336731,86.315727 268.909546,84.234840 271.823914,82.911110 
	C275.436218,81.270363 278.890869,80.095108 283.143219,82.858871 
	C293.969910,89.895493 305.248657,96.236565 316.665710,103.372368 
	C316.590790,104.760841 316.401215,105.833832 315.771729,106.474815 
	C306.940735,115.467224 298.034576,124.385803 289.205200,133.379791 
	C288.568756,134.028091 288.385986,135.121765 287.992279,136.008362 
	C287.821838,135.994278 287.651428,135.980209 287.114258,135.691177 
	C286.523651,135.186188 286.251282,135.067520 285.930359,135.060196 
	C284.277100,134.363022 282.667480,133.247879 280.960083,133.069656 
	C278.584808,132.821762 275.692383,132.487900 273.791931,133.558624 
	C262.433533,139.958115 251.367050,146.873108 240.064072,153.374268 
	C230.151596,159.075668 219.980103,164.326569 210.064163,170.022171 
	C199.643677,176.007584 189.419754,182.334229 179.048065,188.406113 
	C175.715317,190.357208 172.186111,191.972733 168.399353,193.879730 
z"/>
<path fill="#409CD7" opacity="1.000000" stroke="none" 
	d="
M1064.220947,221.331970 
	C1065.447021,220.025421 1067.585327,219.247375 1067.833740,218.070389 
	C1069.921997,208.178528 1071.905151,198.210327 1067.839966,188.151291 
	C1072.945068,195.727600 1077.838501,203.468399 1082.598633,211.290314 
	C1086.091431,217.029694 1089.409424,222.875412 1092.805298,228.673752 
	C1093.238770,228.608521 1093.672241,228.543304 1094.105713,228.478073 
	C1093.507690,197.218613 1092.909668,165.959152 1092.304932,134.348328 
	C1100.722656,134.348328 1108.965332,134.348328 1117.603516,134.348328 
	C1117.603516,179.579681 1117.603516,224.917953 1117.603516,270.634338 
	C1109.848389,270.634338 1101.936523,270.634338 1093.741333,270.634338 
	C1084.054810,254.549820 1074.155884,238.112686 1064.220947,221.331970 
z"/>
<path fill="#399DD5" opacity="1.000000" stroke="none" 
	d="
M381.544434,318.984863 
	C384.402405,318.575073 386.900818,318.188293 390.051300,317.700592 
	C388.384460,319.992462 387.082611,322.215485 385.371368,324.058350 
	C378.923126,331.002655 372.365570,337.846191 365.805420,344.685699 
	C349.455475,361.731750 333.114197,378.786377 316.700195,395.770660 
	C310.714142,401.964661 304.508270,407.945740 298.459351,414.079865 
	C297.199188,415.357758 296.189240,416.882385 295.026733,418.636749 
	C294.184479,419.574463 293.379425,420.168762 291.989471,420.899902 
	C290.951050,421.371216 290.497528,421.705658 290.044006,422.040100 
	C290.044006,422.040100 289.999298,422.004791 289.804688,422.089905 
	C289.334961,422.318604 289.136078,422.532990 289.013428,422.818085 
	C289.013428,422.818085 288.534027,422.947174 288.065613,423.064026 
	C287.311584,423.348785 287.114258,423.589172 287.005188,423.902008 
	C287.005188,423.902008 286.985291,424.000977 286.645569,424.018250 
	C285.894257,424.398071 285.482666,424.760620 285.071045,425.123169 
	C285.071045,425.123138 285.081146,425.012085 284.776581,425.051086 
	C284.015045,425.457397 283.558075,425.824677 283.101105,426.191956 
	C282.622803,426.463287 282.144501,426.734619 280.921753,427.004303 
	C278.453186,427.001282 276.729034,426.999878 275.004883,426.998505 
	C274.820801,426.979004 274.636688,426.959473 274.095825,426.649963 
	C273.550659,426.169891 273.325470,426.047058 273.063568,425.991547 
	C273.063568,425.991547 273.008362,426.011566 272.882202,425.765106 
	C272.529816,425.254059 272.245422,425.090790 271.902832,425.028839 
	C265.891113,421.842651 259.832397,418.741058 253.885483,415.438141 
	C250.390045,413.496857 247.072296,411.235626 243.587250,408.732239 
	C244.534851,407.854645 245.796310,407.593933 246.569168,406.835388 
	C253.106857,400.418915 259.862946,394.181976 265.899109,387.315826 
	C268.856628,383.951721 273.551453,380.869385 271.988831,375.030792 
	C277.124908,378.521210 281.233887,376.925323 286.103271,373.571625 
	C293.447296,368.513580 301.654175,364.722290 309.404419,360.237274 
	C325.506439,350.919250 341.520447,341.449005 357.629272,332.142792 
	C365.412811,327.646210 373.328827,323.378998 381.544434,318.984863 
z"/>
<path fill="#8796EA" opacity="1.000000" stroke="none" 
	d="
M602.997192,209.834442 
	C606.594360,203.725082 608.580872,197.208725 608.435181,189.526535 
	C609.869080,189.008759 610.866333,189.015030 611.863464,189.005325 
	C619.339417,188.932571 625.813538,184.727127 627.995667,178.529831 
	C630.588501,171.165695 628.837952,163.765350 622.501587,159.237762 
	C619.524658,157.110641 615.514893,156.429092 611.973145,155.092468 
	C615.212219,149.076370 617.576721,142.920776 615.009094,135.572998 
	C628.661316,134.250397 645.964294,143.449570 650.826904,155.729614 
	C656.551880,170.187469 656.697510,182.921951 642.414734,197.265579 
	C651.026855,205.066116 657.774536,214.023880 658.899658,226.003082 
	C660.041565,238.160599 658.440186,250.181915 648.652405,258.352875 
	C642.790833,263.246216 634.970886,266.104218 627.650330,268.868652 
	C615.753845,273.361023 603.174072,270.163452 590.460815,270.911072 
	C590.181641,270.384216 590.309570,269.570740 590.559082,269.531586 
	C597.180603,268.492371 598.553589,264.312500 598.328247,258.245941 
	C598.238586,255.832077 600.638733,253.325745 602.405823,250.438080 
	C606.276428,250.063721 609.646545,250.112793 613.107422,250.306274 
	C613.458984,250.355469 613.719666,250.260269 614.377197,250.085587 
	C615.517456,249.695526 616.242493,249.172134 617.007080,249.106094 
	C629.840393,247.997696 634.991638,240.197342 633.907349,227.554596 
	C633.214233,219.472931 629.773315,212.358795 620.179565,211.043808 
	C614.503540,210.265823 608.727966,210.213226 602.997192,209.834442 
z"/>
<path fill="#6598E1" opacity="1.000000" stroke="none" 
	d="
M879.016052,272.833160 
	C864.316711,272.036255 852.439209,265.400909 843.210999,254.361801 
	C833.032104,242.185440 829.123047,227.819595 829.911804,211.954575 
	C830.374451,202.648819 829.366455,193.250671 830.112549,183.982040 
	C832.026611,160.203903 846.669312,138.357590 872.316650,133.093109 
	C881.611023,131.185303 890.950073,131.670258 900.577148,134.580963 
	C899.651794,142.113693 898.311279,149.109207 896.718689,156.045074 
	C896.303040,155.929871 896.139465,155.874298 895.783020,155.602310 
	C895.033813,155.273865 894.477539,155.161850 893.498352,155.023956 
	C888.039490,154.840637 882.700012,153.523132 878.025146,154.745956 
	C864.661072,158.241638 857.691895,168.222946 856.185913,181.359406 
	C854.926636,192.343674 854.960999,203.525253 855.154968,214.606644 
	C855.253235,220.221710 856.522766,225.934280 858.054504,231.380096 
	C860.731140,240.896179 870.276062,251.918442 882.224121,251.427032 
	C884.211182,259.203491 882.496765,266.161865 879.016052,272.833160 
z"/>
<path fill="#1F9FCE" opacity="1.000000" stroke="none" 
	d="
M1334.010498,270.996796 
	C1333.834473,270.979797 1333.658447,270.962830 1333.037598,270.659882 
	C1332.045898,270.254944 1331.498901,270.136017 1330.951904,270.017059 
	C1317.190308,264.768158 1307.113037,255.342926 1301.622070,241.835678 
	C1298.720337,234.698029 1296.857056,226.829391 1296.226807,219.151108 
	C1295.330200,208.227341 1295.687622,197.164261 1296.066162,186.179901 
	C1296.816772,164.405243 1309.863403,141.463745 1331.546265,134.897903 
	C1334.926392,133.874374 1338.536621,133.611328 1342.693604,132.920624 
	C1343.631958,132.705460 1343.844482,132.493317 1343.984009,132.208206 
	C1346.368530,132.152054 1348.752930,132.095901 1351.671509,132.248993 
	C1352.464111,132.361359 1352.722778,132.264481 1352.981323,132.167618 
	C1353.858643,132.256210 1354.735840,132.344772 1355.852661,133.093079 
	C1356.543701,136.881134 1357.644409,140.088654 1357.274902,143.116760 
	C1356.857788,146.534348 1355.118652,149.790543 1353.954468,153.116928 
	C1336.246582,151.668610 1325.136475,163.440125 1323.279297,179.327225 
	C1321.600586,193.687225 1321.318970,208.398636 1322.310547,222.825211 
	C1323.155273,235.113831 1328.954346,245.652100 1341.918091,251.276871 
	C1345.876465,254.163498 1346.612427,257.207825 1344.911987,261.147095 
	C1344.162964,262.881958 1344.289429,264.987030 1343.965820,266.915131 
	C1343.489380,269.753082 1343.042480,272.658325 1338.984131,272.010803 
	C1338.812744,271.999512 1338.641357,271.988220 1337.972168,271.670227 
	C1336.319580,271.241241 1335.165039,271.119019 1334.010498,270.996796 
z"/>
<path fill="#5B99DE" opacity="1.000000" stroke="none" 
	d="
M879.476562,272.910950 
	C882.496765,266.161865 884.211182,259.203491 882.671143,251.356339 
	C903.183899,252.473450 914.565552,236.149887 914.978271,218.143585 
	C915.191406,208.844635 914.776672,199.529037 915.075745,190.234802 
	C915.556091,175.307053 909.501587,164.035568 896.970825,156.104721 
	C898.311279,149.109207 899.651794,142.113693 900.987671,134.679428 
	C923.905090,141.396301 937.169739,157.120529 939.836670,180.712173 
	C941.956970,199.468384 943.573486,218.563538 936.971252,236.920059 
	C931.705017,251.562073 922.005554,262.089661 907.381592,268.512054 
	C898.382629,272.464142 889.354980,273.178619 879.476562,272.910950 
z"/>
<path fill="#2F9DD2" opacity="1.000000" stroke="none" 
	d="
M1223.000000,185.000000 
	C1223.000000,212.156647 1222.898926,238.814041 1223.098267,265.469208 
	C1223.131958,269.983856 1221.626831,271.317108 1217.348389,271.075531 
	C1212.200195,270.784882 1207.015503,270.842133 1201.860596,271.067352 
	C1198.190186,271.227753 1196.913330,269.951630 1196.944336,266.197327 
	C1197.098877,247.538940 1197.015503,228.878601 1197.015747,210.218948 
	C1197.015869,185.067108 1197.015747,159.915283 1197.015747,134.381195 
	C1205.531738,134.381195 1213.924561,134.381195 1223.000000,134.381195 
	C1223.000000,150.993332 1223.000000,167.746658 1223.000000,185.000000 
z"/>
<path fill="#5F9ADF" opacity="1.000000" stroke="none" 
	d="
M196.029816,278.080200 
	C194.894699,278.709351 193.759583,279.338531 191.982971,280.001831 
	C190.570404,280.612366 189.799332,281.188721 189.028259,281.765106 
	C188.851318,281.830994 188.674377,281.896851 188.045624,282.039520 
	C187.366425,282.216980 187.203262,282.381409 187.104324,282.609589 
	C176.828064,288.683136 166.531158,294.722290 156.297363,300.866577 
	C154.724686,301.810791 153.442764,303.239349 152.026367,304.443909 
	C153.311676,305.448761 154.561035,306.504303 155.890518,307.446869 
	C158.020065,308.956635 160.202682,310.391541 162.680847,312.403473 
	C162.340454,315.110107 162.306946,317.855865 160.921509,319.337036 
	C152.440445,328.404144 143.652985,337.184692 134.967621,346.060730 
	C134.800507,346.029510 134.633362,345.998322 134.132248,345.752136 
	C133.539886,345.632080 133.281509,345.726959 133.023102,345.821838 
	C132.722183,345.733521 132.421265,345.645203 131.954651,345.080414 
	C131.602982,344.312927 131.345291,344.115356 131.015900,344.011322 
	C131.015900,344.011322 130.988342,344.005676 130.844727,343.697632 
	C129.765244,342.944366 128.829376,342.499176 127.893509,342.053955 
	C125.341240,340.617859 122.788963,339.181763 120.149963,337.087158 
	C127.980789,328.180481 135.784332,319.818542 143.859665,311.727844 
	C148.530121,307.048492 150.144852,299.232910 158.005310,297.797760 
	C158.114380,297.777832 158.161728,297.510895 158.271225,297.389252 
	C167.798706,286.805176 177.128342,276.034088 186.904816,265.685120 
	C203.683136,247.924225 220.757126,230.442886 237.665939,212.804840 
	C240.762604,209.574615 243.687805,206.178146 246.645325,202.817200 
	C248.000732,201.276886 249.101105,199.664719 245.891449,198.960144 
	C247.236465,197.827896 248.450806,196.470520 249.948395,195.601074 
	C257.840607,191.019104 265.882538,186.691315 273.716309,182.013702 
	C279.167175,178.758942 283.963654,179.748611 288.833557,184.041046 
	C288.074463,186.559830 287.519348,188.746613 286.156769,190.148697 
	C276.821838,199.754593 267.272308,209.151398 257.878387,218.700638 
	C243.029877,233.794571 228.198151,248.906067 213.509903,264.155182 
	C211.838501,265.890442 211.133286,268.556335 209.980042,270.790680 
	C209.980042,270.790680 209.528198,270.960327 208.993118,271.004944 
	C207.982452,271.354370 207.506866,271.659180 207.031281,271.963989 
	C207.031281,271.963959 207.002167,272.040100 206.793533,272.078247 
	C206.360565,272.217346 206.196487,272.379364 206.092697,272.602478 
	C205.929733,272.698792 205.766769,272.795074 205.006897,272.971161 
	C203.627853,273.679413 202.845749,274.307831 202.063644,274.936249 
	C202.063644,274.936249 202.057510,275.042389 201.712540,275.048737 
	C200.920654,275.378021 200.473755,275.700958 200.026855,276.023895 
	C200.026855,276.023895 200.000610,276.000000 199.790390,276.108093 
	C199.301590,276.408386 199.129684,276.670532 199.064453,277.002655 
	C199.064453,277.002655 199.050522,277.059753 198.681854,277.041595 
	C197.552063,277.375671 196.790939,277.727936 196.029816,278.080200 
z"/>
<path fill="#7798E5" opacity="1.000000" stroke="none" 
	d="
M730.997925,149.004028 
	C730.997925,143.867783 730.997925,139.230820 730.997925,134.298218 
	C739.315857,134.298218 747.372620,134.298218 755.715271,134.298218 
	C755.715271,179.649536 755.715271,224.995071 755.715271,270.675354 
	C747.651855,270.675354 739.600647,270.675354 730.997925,270.675354 
	C730.997925,230.267853 730.997925,189.885590 730.997925,149.004028 
z"/>
<path fill="#6798E2" opacity="1.000000" stroke="none" 
	d="
M105.957809,330.108643 
	C99.134697,326.359406 91.719093,323.343719 85.757210,318.528229 
	C83.078308,316.364441 83.135468,310.636780 82.304832,306.455963 
	C82.009781,304.970917 83.277580,303.162781 82.950974,301.698639 
	C81.098930,293.396362 86.158760,289.585083 92.365349,286.187653 
	C102.278419,280.761322 112.098061,275.163147 121.923248,269.577911 
	C128.243164,265.985291 134.568985,262.395203 140.774521,258.611053 
	C153.226395,251.017822 165.509445,243.143967 178.045837,235.695038 
	C183.029678,232.733719 188.507172,230.605591 193.747025,228.071487 
	C195.615372,227.167908 197.445648,226.185577 199.640472,225.562729 
	C199.119156,227.628006 198.600952,229.695969 197.328934,231.061966 
	C181.632507,247.918030 165.892242,264.734528 150.025162,281.429962 
	C139.166504,292.855499 128.064240,304.049225 117.129883,315.403381 
	C113.802261,318.858765 110.582283,322.429138 107.506577,326.108643 
	C106.638130,327.147583 106.455162,328.759521 105.957809,330.108643 
z"/>
<path fill="#639AE0" opacity="1.000000" stroke="none" 
	d="
M106.120865,330.423035 
	C106.455162,328.759521 106.638130,327.147583 107.506577,326.108643 
	C110.582283,322.429138 113.802261,318.858765 117.129883,315.403381 
	C128.064240,304.049225 139.166504,292.855499 150.025162,281.429962 
	C165.892242,264.734528 181.632507,247.918030 197.328934,231.061966 
	C198.600952,229.695969 199.119156,227.628006 199.993622,225.526505 
	C212.354385,217.930832 224.709549,210.695541 237.063431,203.458069 
	C238.443619,202.649475 239.816498,201.828400 241.792511,200.892242 
	C242.580887,200.490524 242.769547,200.209686 242.958191,199.928848 
	C242.958191,199.928848 242.999878,199.995941 243.259369,199.974030 
	C244.003876,199.687607 244.488876,199.423096 244.973892,199.158569 
	C244.973892,199.158585 245.423553,199.017166 245.657501,198.988663 
	C249.101105,199.664719 248.000732,201.276886 246.645325,202.817200 
	C243.687805,206.178146 240.762604,209.574615 237.665939,212.804840 
	C220.757126,230.442886 203.683136,247.924225 186.904816,265.685120 
	C177.128342,276.034088 167.798706,286.805176 158.271225,297.389252 
	C158.161728,297.510895 158.114380,297.777832 158.005310,297.797760 
	C150.144852,299.232910 148.530121,307.048492 143.859665,311.727844 
	C135.784332,319.818542 127.980789,328.180481 120.010483,336.772095 
	C115.399796,334.989532 110.841858,332.863495 106.120865,330.423035 
z"/>
<path fill="#FFFFFF" opacity="1.000000" stroke="none" 
	d="
M1355.015625,340.874268 
	C1355.879395,342.992523 1356.727051,344.712677 1357.523560,346.329010 
	C1363.190308,332.273468 1369.127319,318.042297 1374.575073,303.626343 
	C1375.692627,300.669434 1376.855835,299.883118 1379.738647,299.947296 
	C1390.499268,300.187073 1388.945923,298.750122 1388.983154,309.283234 
	C1389.044922,326.731110 1389.000000,344.179352 1389.000000,361.812134 
	C1385.308594,361.812134 1382.018677,361.812134 1378.500000,361.812134 
	C1378.500000,348.124054 1378.500000,334.312683 1378.500000,320.276581 
	C1373.647583,332.417358 1368.752319,344.462036 1364.030273,356.574310 
	C1361.956421,361.893402 1360.009644,363.305450 1354.651855,361.865967 
	C1353.544556,361.568420 1352.584839,359.776825 1352.041626,358.472107 
	C1347.199097,346.838837 1342.465332,335.160309 1337.171021,322.201935 
	C1337.171021,336.169617 1337.171021,348.801941 1337.171021,361.714783 
	C1333.382568,361.714783 1329.975952,361.714783 1326.281494,361.714783 
	C1326.281494,341.381683 1326.281494,320.977692 1326.281494,300.001129 
	C1329.798584,300.001129 1333.452026,299.649658 1336.977173,300.169189 
	C1338.446411,300.385681 1340.261841,302.210327 1340.864380,303.723846 
	C1345.718262,315.918060 1350.320557,328.212402 1355.015625,340.874268 
z"/>
<path fill="#529BDC" opacity="1.000000" stroke="none" 
	d="
M375.924957,187.043472 
	C375.924957,187.043472 375.471313,186.964127 375.109558,186.715515 
	C374.507111,186.217484 374.213501,186.088409 373.866974,186.079651 
	C361.606323,178.887299 349.351257,171.685425 337.076447,164.517319 
	C335.850739,163.801575 334.505035,163.291306 333.273895,162.089783 
	C342.433716,152.208527 351.586243,142.972366 360.562897,133.568329 
	C361.556793,132.527130 361.546661,130.527527 362.002197,128.972427 
	C368.448456,132.348114 374.958557,135.608398 381.324951,139.128525 
	C389.381714,143.583298 397.321564,148.249466 405.772339,153.169250 
	C406.466766,153.764633 406.755035,153.896057 407.097656,153.908295 
	C407.097656,153.908295 407.036377,154.009537 407.043274,154.336670 
	C408.195892,158.046143 407.062225,160.557816 404.564423,163.041565 
	C399.620575,167.957458 395.084381,173.281372 390.186829,178.246384 
	C386.181885,182.306473 382.802673,187.567337 375.924957,187.043472 
z"/>
<path fill="#5E99DF" opacity="1.000000" stroke="none" 
	d="
M361.895172,128.744263 
	C361.546661,130.527527 361.556793,132.527130 360.562897,133.568329 
	C351.586243,142.972366 342.433716,152.208527 333.130402,161.760162 
	C332.751038,161.983292 332.574036,161.940140 332.054871,161.604034 
	C331.520630,161.136292 331.295502,161.034988 331.037323,161.007141 
	C322.025238,155.902832 313.000427,150.820740 304.005890,145.685715 
	C298.767883,142.695312 293.578339,139.620087 288.179626,136.295685 
	C288.385986,135.121765 288.568756,134.028091 289.205200,133.379791 
	C298.034576,124.385803 306.940735,115.467224 315.771729,106.474815 
	C316.401215,105.833832 316.590790,104.760841 316.989502,103.531464 
	C325.398560,107.707085 333.849304,112.156891 342.191620,116.801353 
	C347.994324,120.031914 353.648193,123.529892 359.802032,127.244095 
	C360.433533,127.801430 360.680969,127.919724 360.977814,127.934662 
	C361.247925,128.128479 361.518066,128.322281 361.895172,128.744263 
z"/>
<path fill="#489BDA" opacity="1.000000" stroke="none" 
	d="
M302.210663,297.797455 
	C307.077606,300.765625 311.674622,303.478485 317.526367,306.931793 
	C309.877594,311.416260 303.338196,315.103210 296.954041,319.041809 
	C292.210266,321.968384 287.777649,325.403595 283.006439,328.280487 
	C277.605164,331.537262 272.672119,333.262268 266.186676,328.756378 
	C256.486481,322.016998 245.608795,316.994293 235.403152,310.952240 
	C229.431732,307.416992 229.638367,305.169342 235.722137,301.955536 
	C246.778992,296.114594 258.031158,290.616669 268.859497,284.381073 
	C274.358765,281.214233 278.308014,284.005463 282.499664,286.269043 
	C289.088013,289.826813 295.470856,293.765015 302.210663,297.797455 
z"/>
<path fill="#5999DD" opacity="1.000000" stroke="none" 
	d="
M210.321686,270.770752 
	C211.133286,268.556335 211.838501,265.890442 213.509903,264.155182 
	C228.198151,248.906067 243.029877,233.794571 257.878387,218.700638 
	C267.272308,209.151398 276.821838,199.754593 286.156769,190.148697 
	C287.519348,188.746613 288.074463,186.559830 289.007141,184.350647 
	C294.019012,186.434372 299.026917,188.903610 304.575745,191.639542 
	C305.080688,191.222366 306.191956,190.304199 307.344482,189.351944 
	C307.543243,189.484802 307.912842,189.599106 307.941406,189.770279 
	C308.791504,194.865677 313.008911,196.423019 316.795593,198.677124 
	C318.850769,199.900513 321.645721,202.279816 321.572693,204.032120 
	C321.493286,205.938034 318.794861,208.292831 316.689301,209.469101 
	C297.845367,219.996277 278.761749,230.097626 259.987915,240.746124 
	C244.820328,249.349167 229.974060,258.519623 215.013031,267.484711 
	C213.466187,268.411621 212.108673,269.654541 210.321686,270.770752 
z"/>
<path fill="#469CD9" opacity="1.000000" stroke="none" 
	d="
M376.065125,187.367310 
	C382.802673,187.567337 386.181885,182.306473 390.186829,178.246384 
	C395.084381,173.281372 399.620575,167.957458 404.564423,163.041565 
	C407.062225,160.557816 408.195892,158.046143 407.081604,154.290161 
	C412.018341,156.731812 416.897797,159.593353 421.835022,162.351593 
	C429.309967,166.527557 436.825043,170.631607 444.786743,175.135986 
	C445.551239,175.644653 445.852020,175.783524 446.152832,175.922394 
	C446.152832,175.922409 446.563568,176.018661 446.896637,176.266434 
	C447.456146,176.761719 447.736389,176.900909 448.070435,176.931778 
	C448.070435,176.931778 448.087311,176.958008 448.090881,177.308136 
	C451.231323,185.268753 451.176422,185.215210 445.200562,191.342972 
	C441.958954,194.666962 439.123260,198.399002 435.778748,201.607437 
	C431.287811,205.915665 427.825989,211.649780 421.026093,212.991806 
	C414.684052,209.468063 408.320709,205.982010 402.005188,202.411362 
	C393.386139,197.538376 384.803558,192.600937 376.065125,187.367310 
z"/>
<path fill="#449CD8" opacity="1.000000" stroke="none" 
	d="
M271.788940,374.736389 
	C273.551453,380.869385 268.856628,383.951721 265.899109,387.315826 
	C259.862946,394.181976 253.106857,400.418915 246.569168,406.835388 
	C245.796310,407.593933 244.534851,407.854645 243.267395,408.579254 
	C229.108109,400.756775 215.181335,392.701141 201.414368,384.198975 
	C203.635300,382.415588 206.014114,381.393097 207.702133,379.687103 
	C214.773697,372.539948 221.765808,365.302429 228.479095,357.821655 
	C229.954056,356.178040 230.168289,353.403046 230.963104,351.149078 
	C244.505081,358.913391 258.047058,366.677673 271.788940,374.736389 
z"/>
<path fill="#509BDB" opacity="1.000000" stroke="none" 
	d="
M230.634033,350.988586 
	C230.168289,353.403046 229.954056,356.178040 228.479095,357.821655 
	C221.765808,365.302429 214.773697,372.539948 207.702133,379.687103 
	C206.014114,381.393097 203.635300,382.415588 201.254272,383.892273 
	C195.779724,381.330017 190.578735,378.712189 185.480865,375.906952 
	C177.002213,371.241364 168.589722,366.455536 160.381653,361.332764 
	C163.097015,359.442413 166.045975,358.385254 167.982498,356.359985 
	C176.393768,347.563263 184.509903,338.484375 192.733292,329.508026 
	C203.255707,335.608673 213.768158,341.726654 224.309555,347.794342 
	C226.247879,348.910065 228.303482,349.822052 230.634033,350.988586 
z"/>
<path fill="#439BD9" opacity="1.000000" stroke="none" 
	d="
M387.054047,245.932053 
	C388.309418,246.743408 389.564789,247.554749 390.643860,248.814667 
	C382.265411,259.439819 374.043060,269.590424 362.912140,276.856445 
	C362.362549,277.215179 362.284088,278.295624 361.986267,279.040009 
	C357.593689,276.792908 353.091858,274.733582 348.833405,272.255951 
	C341.974640,268.265472 335.269897,264.009674 328.516266,259.839722 
	C327.272522,259.071777 326.177887,258.040253 324.889526,257.370728 
	C321.157379,255.431244 322.826263,253.031189 324.922150,251.768524 
	C335.957184,245.120529 347.249817,238.900314 358.289337,232.259476 
	C363.207672,229.300873 366.523285,232.338028 370.158844,234.559494 
	C375.399292,237.761627 380.574738,241.070129 386.022095,244.877289 
	C386.453339,245.707932 386.715912,245.878174 387.054047,245.932053 
z"/>
<path fill="#399CD5" opacity="1.000000" stroke="none" 
	d="
M421.203430,213.290405 
	C427.825989,211.649780 431.287811,205.915665 435.778748,201.607437 
	C439.123260,198.399002 441.958954,194.666962 445.200562,191.342972 
	C451.176422,185.215210 451.231323,185.268753 448.094696,177.290588 
	C453.157654,180.212662 457.901794,184.226974 463.356415,186.625366 
	C471.908051,190.385513 473.741913,196.399109 473.166718,205.096039 
	C472.390869,216.826767 472.974152,228.647400 472.974152,241.699463 
	C469.475525,240.268311 466.618683,239.409134 464.062988,238.002747 
	C450.107239,230.322968 436.223297,222.512680 422.329620,214.720551 
	C421.928070,214.495361 421.693268,213.972870 421.203430,213.290405 
z"/>
<path fill="#3B9DD6" opacity="1.000000" stroke="none" 
	d="
M362.128693,279.351318 
	C362.284088,278.295624 362.362549,277.215179 362.912140,276.856445 
	C374.043060,269.590424 382.265411,259.439819 390.778534,249.111908 
	C398.785309,253.541367 406.492401,258.103302 414.170837,262.713043 
	C416.920715,264.363922 419.601288,266.130249 422.770996,268.171997 
	C423.453125,268.753540 423.733704,268.899353 424.070190,268.937500 
	C424.070190,268.937500 424.055573,268.989258 424.143372,269.202057 
	C424.504181,269.601227 424.777222,269.787567 425.050262,269.973938 
	C425.050262,269.973938 425.019684,269.991058 425.028931,269.974976 
	C423.940186,272.557861 423.376221,275.605865 421.641266,277.669342 
	C416.957764,283.239838 411.738647,288.357147 406.806274,293.722473 
	C404.125427,296.638641 401.526642,299.277405 397.029205,297.109955 
	C396.130554,296.676849 394.767090,297.208221 393.327332,297.538025 
	C382.781555,291.741669 372.526337,285.702148 362.128693,279.351318 
z"/>
<path fill="#159FCB" opacity="1.000000" stroke="none" 
	d="
M1339.259644,272.333405 
	C1343.042480,272.658325 1343.489380,269.753082 1343.965820,266.915131 
	C1344.289429,264.987030 1344.162964,262.881958 1344.911987,261.147095 
	C1346.612427,257.207825 1345.876465,254.163498 1342.250854,251.419937 
	C1348.002686,250.815094 1354.122559,251.178101 1359.904175,249.949463 
	C1368.987793,248.019104 1373.017700,240.852585 1374.928467,232.410507 
	C1375.649170,229.226898 1375.799072,225.914093 1376.291138,222.008118 
	C1383.053467,222.008118 1389.999512,221.705200 1396.902466,222.118851 
	C1401.218384,222.377457 1401.137695,226.429565 1400.871826,229.385544 
	C1399.869995,240.524185 1396.490601,250.805328 1387.902954,258.548401 
	C1378.293091,267.213074 1367.130371,272.567383 1353.984009,272.946472 
	C1349.174438,273.085144 1344.351807,272.766174 1339.259644,272.333405 
z"/>
<path fill="#FFFFFF" opacity="1.000000" stroke="none" 
	d="
M1058.934204,299.557800 
	C1064.786011,299.477417 1070.537720,298.871033 1075.844482,300.134094 
	C1084.792358,302.263702 1089.305786,309.410858 1088.798950,318.747620 
	C1085.721313,318.747620 1082.621826,318.747620 1079.509644,318.747620 
	C1077.502563,308.843506 1071.039795,305.027740 1061.595215,307.952850 
	C1057.979736,309.072601 1055.657349,311.063019 1054.998291,314.846985 
	C1054.258667,319.092194 1057.027344,321.388275 1060.127930,322.912567 
	C1063.679199,324.658447 1067.554565,325.787018 1071.353760,326.978149 
	C1080.020386,329.695465 1087.433472,333.405487 1089.374146,343.663422 
	C1090.758789,350.983002 1087.307861,356.641357 1082.263672,359.876617 
	C1074.539185,364.830963 1055.950073,365.022675 1047.759399,357.164276 
	C1043.976196,353.534546 1042.144897,348.907959 1043.262695,343.246033 
	C1046.305420,343.246033 1049.402710,343.246033 1052.963501,343.246033 
	C1052.045288,349.164978 1055.711670,352.164825 1060.551025,353.945251 
	C1066.183594,356.017426 1071.768311,355.865967 1076.640869,351.814178 
	C1080.663940,348.468750 1079.931152,341.379456 1074.951538,339.106110 
	C1069.015381,336.396027 1062.692749,334.544708 1056.596802,332.169525 
	C1048.210938,328.902191 1043.713501,323.245453 1044.380981,316.251648 
	C1045.274048,306.894226 1048.676392,302.846619 1058.934204,299.557800 
z"/>
<path fill="#FFFFFF" opacity="1.000000" stroke="none" 
	d="
M869.421570,322.790283 
	C876.032166,325.304047 882.444885,327.316254 888.539795,330.039886 
	C896.406677,333.555389 901.369324,342.240021 899.766296,348.582550 
	C897.406128,357.921417 890.663574,362.925018 880.614258,363.023468 
	C873.077515,363.097321 865.427490,363.721222 859.329468,357.999786 
	C857.384583,356.175018 854.922546,354.265930 854.166870,351.921631 
	C851.260559,342.905640 852.659790,342.075775 862.952209,343.364563 
	C862.282104,349.190918 865.723877,352.228790 870.708496,353.986694 
	C876.567627,356.052979 882.310486,355.665924 887.317139,351.872406 
	C890.716736,349.296539 889.426636,341.215088 885.229370,339.118042 
	C881.687134,337.348297 877.799377,336.227539 873.999207,335.026184 
	C867.643494,333.016968 860.832031,331.253204 857.206482,325.267090 
	C850.449463,314.110626 857.114990,301.268005 870.699707,299.276764 
	C877.811584,298.234314 885.637390,297.352478 892.136169,303.407318 
	C896.724060,307.681854 899.566833,312.115417 898.888855,318.729553 
	C895.776306,318.729553 892.681213,318.729553 889.563843,318.729553 
	C887.985901,309.880737 880.906799,305.038818 873.003418,307.468964 
	C863.837646,310.287231 862.391541,315.869537 869.421570,322.790283 
z"/>
<path fill="#FFFFFF" opacity="1.000000" stroke="none" 
	d="
M803.000000,328.042847 
	C802.667603,334.258484 802.818970,340.062500 801.892334,345.688934 
	C800.403687,354.727112 790.285767,363.920868 780.297668,363.080933 
	C774.336853,362.579651 768.539551,363.300873 763.183228,358.948792 
	C756.300171,353.356171 753.645874,346.105255 753.148254,337.982727 
	C752.748779,331.462646 753.345337,324.825928 754.074463,318.305176 
	C755.221619,308.044525 765.412109,299.659668 775.264099,298.865417 
	C792.271118,297.494446 804.592407,309.405579 803.000000,328.042847 
M793.999939,334.402466 
	C793.357361,328.779144 793.232849,323.032715 791.933472,317.565491 
	C790.498535,311.528137 783.389038,306.758331 777.747375,307.002472 
	C771.765686,307.261322 765.003235,311.696289 764.209229,317.674683 
	C763.111694,325.938812 762.316406,334.582886 763.568359,342.729767 
	C765.007080,352.091827 775.709778,358.832520 786.076904,352.431183 
	C792.438782,348.502930 794.301331,342.417175 793.999939,334.402466 
z"/>
<path fill="#5A9ADE" opacity="1.000000" stroke="none" 
	d="
M192.606995,329.324280 
	C184.509903,338.484375 176.393768,347.563263 167.982498,356.359985 
	C166.045975,358.385254 163.097015,359.442413 160.245117,360.996338 
	C151.674042,356.268036 143.471817,351.488495 135.118607,346.384857 
	C143.652985,337.184692 152.440445,328.404144 160.921509,319.337036 
	C162.306946,317.855865 162.340454,315.110107 162.997986,312.557190 
	C172.128784,317.416260 181.260437,322.666992 190.830872,328.270752 
	C191.488419,328.837280 191.747208,328.976166 192.046051,329.040436 
	C192.046051,329.040436 192.480682,329.140503 192.606995,329.324280 
z"/>
<path fill="#FFFFFF" opacity="1.000000" stroke="none" 
	d="
M1245.197754,325.997925 
	C1253.976807,325.999756 1262.272461,325.999756 1270.781738,325.999756 
	C1270.781738,328.745605 1270.781738,331.149658 1270.781738,333.952362 
	C1261.601685,333.952362 1252.519409,333.952362 1243.223145,333.952362 
	C1243.223145,340.748871 1243.223145,347.152740 1243.223145,354.000000 
	C1251.957886,354.000000 1260.571411,353.999695 1269.185059,354.000092 
	C1276.384888,354.000427 1276.384888,354.000793 1275.646362,361.797363 
	C1261.586060,361.797363 1247.506104,361.797363 1233.212891,361.797363 
	C1233.212891,341.231934 1233.212891,320.830994 1233.212891,300.214844 
	C1247.102295,300.214844 1260.841431,300.214844 1274.790527,300.214844 
	C1274.790527,302.762726 1274.790527,305.166504 1274.790527,307.968140 
	C1264.250122,307.968140 1253.835815,307.968140 1243.003540,307.968140 
	C1243.003540,313.635437 1242.947998,318.920898 1243.078857,324.201752 
	C1243.093994,324.813019 1244.144165,325.398621 1245.197754,325.997925 
z"/>
<path fill="#FFFFFF" opacity="1.000000" stroke="none" 
	d="
M606.632202,354.000916 
	C612.352234,354.987762 609.041321,358.964386 610.180420,361.771851 
	C595.650269,361.771851 581.566833,361.771851 567.000000,361.771851 
	C567.000000,351.420868 567.000000,341.145752 567.000000,330.870636 
	C567.000000,320.739990 567.000000,310.609314 567.000000,300.240845 
	C581.049194,300.240845 594.788452,300.240845 608.764526,300.240845 
	C608.764526,302.713043 608.764526,305.117737 608.764526,307.922516 
	C598.300110,307.922516 587.885132,307.922516 577.238281,307.922516 
	C577.238281,314.050873 577.238281,319.788879 577.238281,325.929443 
	C586.390686,325.929443 595.471313,325.929443 604.771484,325.929443 
	C604.771484,328.726257 604.771484,331.130829 604.771484,333.935486 
	C595.620300,333.935486 586.537598,333.935486 577.231445,333.935486 
	C577.231445,340.732086 577.231445,347.136627 577.231445,354.000092 
	C586.941650,354.000092 596.553711,354.000092 606.632202,354.000916 
z"/>
<path fill="#179FCC" opacity="1.000000" stroke="none" 
	d="
M1354.159790,153.446014 
	C1355.118652,149.790543 1356.857788,146.534348 1357.274902,143.116760 
	C1357.644409,140.088654 1356.543701,136.881134 1356.047729,133.370544 
	C1377.516357,133.032745 1398.050415,147.989929 1400.035889,171.220337 
	C1400.102661,172.002533 1400.622925,172.734970 1400.810669,173.519577 
	C1402.235474,179.474884 1400.264282,181.998001 1394.216187,181.999985 
	C1388.401489,182.001877 1382.586792,182.000397 1376.654053,182.000397 
	C1375.405518,176.851486 1374.654663,171.700073 1372.888062,166.924377 
	C1369.781982,158.527130 1362.973633,154.736130 1354.159790,153.446014 
z"/>
<path fill="#FFFFFF" opacity="1.000000" stroke="none" 
	d="
M681.148499,354.999969 
	C689.653931,355.280914 695.914429,349.789337 695.072021,341.590729 
	C695.339539,341.406219 695.635620,341.035126 695.872864,341.069580 
	C698.844421,341.501129 701.807373,341.991394 704.772583,342.466614 
	C704.157166,346.070282 704.525024,350.295349 702.721863,353.148346 
	C698.961609,359.098083 693.342041,363.068970 685.744385,362.998718 
	C678.926331,362.935669 671.571472,364.316010 666.554260,358.050446 
	C663.340515,354.037079 659.327881,349.749420 658.363892,345.034607 
	C656.211914,334.509552 656.048462,323.691498 659.927063,313.219818 
	C663.054016,304.777161 670.991577,298.698730 679.976379,299.117432 
	C685.061279,299.354340 690.571228,299.765564 695.036865,301.890625 
	C702.365356,305.377899 705.849609,311.963165 704.873901,320.697815 
	C701.673523,320.697815 698.446838,320.697815 695.201294,320.697815 
	C696.080750,309.690155 683.858582,304.725647 677.169495,308.053284 
	C672.181396,310.534698 668.909119,315.211121 668.489868,320.283478 
	C667.816895,328.425140 668.005676,336.818207 669.273865,344.877869 
	C670.142578,350.398499 674.151306,354.733704 681.148499,354.999969 
z"/>
<path fill="#FFFFFF" opacity="1.000000" stroke="none" 
	d="
M984.282043,325.275696 
	C981.532471,330.051697 978.949524,334.492432 976.578674,339.043640 
	C976.019348,340.117310 976.034485,341.561676 976.023621,342.837555 
	C975.971069,348.993958 976.000000,355.151093 976.000000,361.653809 
	C972.499023,361.653809 969.091980,361.653809 965.000000,361.653809 
	C965.000000,357.338837 964.573914,352.700836 965.095947,348.172089 
	C965.964600,340.635529 962.522583,334.687683 959.102356,328.557892 
	C954.041016,319.486725 949.169800,310.309509 944.205017,301.154419 
	C951.522949,298.136932 955.847229,299.585114 958.989746,305.903198 
	C962.786682,313.536865 966.589844,321.167450 970.655579,329.332336 
	C973.179565,324.503052 975.564880,319.999420 977.889587,315.464691 
	C978.988037,313.321838 979.935730,311.102112 981.011353,308.946960 
	C985.752502,299.447388 985.760315,299.451294 997.504456,300.305817 
	C993.075500,308.726379 988.800903,316.853607 984.282043,325.275696 
z"/>
<path fill="#FFFFFF" opacity="1.000000" stroke="none" 
	d="
M1139.150513,300.000000 
	C1154.265625,300.000000 1168.898193,300.000000 1183.764282,300.000000 
	C1183.764282,302.712738 1183.764282,305.117523 1183.764282,307.923645 
	C1177.636719,307.923645 1171.549316,307.923645 1165.074951,307.923645 
	C1165.074951,326.054291 1165.074951,343.796539 1165.074951,361.766998 
	C1161.610596,361.766998 1158.538940,361.766998 1155.066284,361.766998 
	C1155.066284,343.945740 1155.066284,326.201874 1155.066284,308.062500 
	C1148.269531,308.062500 1141.852051,308.062500 1135.223633,308.062500 
	C1135.223633,305.395142 1135.223633,303.120453 1135.223633,300.342407 
	C1136.227417,300.242645 1137.447754,300.121338 1139.150513,300.000000 
z"/>
<path fill="#4280FF" opacity="1.000000" stroke="none" 
	d="
M83.102264,196.476593 
	C83.445351,197.600220 83.959068,199.187698 83.958099,200.774826 
	C83.950897,212.585754 83.841621,224.396637 83.520950,236.520905 
	C83.196548,223.536285 83.115555,210.238281 83.102264,196.476593 
z"/>
<path fill="#2F9ED2" opacity="1.000000" stroke="none" 
	d="
M275.198486,427.272949 
	C276.729034,426.999878 278.453186,427.001282 280.608521,427.011108 
	C279.330200,429.046906 277.456573,429.318298 275.198486,427.272949 
z"/>
<path fill="#6C98E3" opacity="1.000000" stroke="none" 
	d="
M249.629471,96.970703 
	C249.134308,97.497856 248.318375,98.074875 247.276672,98.429977 
	C247.803497,97.812241 248.556107,97.416405 249.629471,96.970703 
z"/>
<path fill="#5A9ADE" opacity="1.000000" stroke="none" 
	d="
M128.023697,342.357178 
	C128.829376,342.499176 129.765244,342.944366 130.844193,343.683563 
	C130.042801,343.538513 129.098343,343.099487 128.023697,342.357178 
z"/>
<path fill="#5999DD" opacity="1.000000" stroke="none" 
	d="
M189.339706,281.819336 
	C189.799332,281.188721 190.570404,280.612366 191.640686,280.021301 
	C191.176971,280.628937 190.414062,281.251251 189.339706,281.819336 
z"/>
<path fill="#5999DD" opacity="1.000000" stroke="none" 
	d="
M202.379944,274.910767 
	C202.845749,274.307831 203.627853,273.679413 204.730682,273.036835 
	C204.266342,273.643555 203.481293,274.264404 202.379944,274.910767 
z"/>
<path fill="#159FCB" opacity="1.000000" stroke="none" 
	d="
M1334.219116,271.290344 
	C1335.165039,271.119019 1336.319580,271.241241 1337.722168,271.607788 
	C1336.789429,271.762695 1335.608521,271.673309 1334.219116,271.290344 
z"/>
<path fill="#5999DD" opacity="1.000000" stroke="none" 
	d="
M196.369873,278.043182 
	C196.790939,277.727936 197.552063,277.375671 198.653015,277.047119 
	C198.231857,277.382599 197.470886,277.694366 196.369873,278.043182 
z"/>
<path fill="#159FCB" opacity="1.000000" stroke="none" 
	d="
M1331.077881,270.301147 
	C1331.498901,270.136017 1332.045898,270.254944 1332.782837,270.585999 
	C1332.383179,270.727142 1331.793579,270.656189 1331.077881,270.301147 
z"/>
<path fill="#6C98E3" opacity="1.000000" stroke="none" 
	d="
M241.662735,101.204231 
	C241.495377,101.512352 241.026367,101.749222 240.283875,101.992371 
	C240.460632,101.710098 240.910873,101.421539 241.662735,101.204231 
z"/>
<path fill="#5F9ADF" opacity="1.000000" stroke="none" 
	d="
M244.664429,199.088486 
	C244.488876,199.423096 244.003876,199.687607 243.229034,199.948792 
	C243.411118,199.636459 243.883041,199.327438 244.664429,199.088486 
z"/>
<path fill="#2F9ED2" opacity="1.000000" stroke="none" 
	d="
M290.343811,421.988007 
	C290.497528,421.705658 290.951050,421.371216 291.704132,421.017395 
	C291.550323,421.310669 291.096954,421.623260 290.343811,421.988007 
z"/>
<path fill="#2F9ED2" opacity="1.000000" stroke="none" 
	d="
M285.349823,425.054596 
	C285.482666,424.760620 285.894257,424.398071 286.596313,424.007202 
	C286.467407,424.314575 286.048004,424.650299 285.349823,425.054596 
z"/>
<path fill="#2F9ED2" opacity="1.000000" stroke="none" 
	d="
M283.410858,426.119812 
	C283.558075,425.824677 284.015045,425.457397 284.792084,425.104675 
	C284.648315,425.428711 284.184448,425.738190 283.410858,426.119812 
z"/>
<path fill="#5999DD" opacity="1.000000" stroke="none" 
	d="
M200.329346,275.995361 
	C200.473755,275.700958 200.920654,275.378021 201.660004,275.056854 
	C201.512222,275.361328 201.072021,275.664062 200.329346,275.995361 
z"/>
<path fill="#5999DD" opacity="1.000000" stroke="none" 
	d="
M207.340179,271.971008 
	C207.506866,271.659180 207.982452,271.354370 208.756866,271.054199 
	C208.586823,271.365234 208.117950,271.671600 207.340179,271.971008 
z"/>
<path fill="#2F9ED2" opacity="1.000000" stroke="none" 
	d="
M272.004272,425.269958 
	C272.245422,425.090790 272.529816,425.254059 272.879028,425.735901 
	C272.703186,425.805817 272.404449,425.658447 272.004272,425.269958 
z"/>
<path fill="#2F9ED2" opacity="1.000000" stroke="none" 
	d="
M287.252747,423.865479 
	C287.114258,423.589172 287.311584,423.348785 287.819672,423.097656 
	C287.861511,423.285950 287.680908,423.557434 287.252747,423.865479 
z"/>
<path fill="#2F9ED2" opacity="1.000000" stroke="none" 
	d="
M289.270447,422.859802 
	C289.136078,422.532990 289.334961,422.318604 289.823547,422.112061 
	C289.867188,422.333282 289.697327,422.617401 289.270447,422.859802 
z"/>
<path fill="#2F9ED2" opacity="1.000000" stroke="none" 
	d="
M273.144318,426.187378 
	C273.325470,426.047058 273.550659,426.169891 273.850494,426.519836 
	C273.642670,426.763672 273.397064,426.664825 273.144318,426.187378 
z"/>
<path fill="#6C98E3" opacity="1.000000" stroke="none" 
	d="
M250.715881,95.986702 
	C250.777359,96.181625 250.589066,96.470528 250.156830,96.860886 
	C250.097290,96.668457 250.281708,96.374573 250.715881,95.986702 
z"/>
<path fill="#5A9ADE" opacity="1.000000" stroke="none" 
	d="
M133.261520,345.888214 
	C133.281509,345.726959 133.539886,345.632080 133.887634,345.679993 
	C133.977020,345.822784 133.499924,345.954590 133.261520,345.888214 
z"/>
<path fill="#5A9ADE" opacity="1.000000" stroke="none" 
	d="
M131.066422,344.267029 
	C131.345291,344.115356 131.602982,344.312927 131.881836,344.833496 
	C131.688782,344.882935 131.402863,344.702850 131.066422,344.267029 
z"/>
<path fill="#399CD5" opacity="1.000000" stroke="none" 
	d="
M446.070251,175.645782 
	C445.852020,175.783524 445.551239,175.644653 445.112183,175.292191 
	C445.311859,175.175461 445.649780,175.272308 446.070251,175.645782 
z"/>
<path fill="#399CD5" opacity="1.000000" stroke="none" 
	d="
M448.022278,176.649170 
	C447.736389,176.900909 447.456146,176.761719 447.102722,176.311295 
	C447.308563,176.194443 447.641327,176.280502 448.022278,176.649170 
z"/>
<path fill="#469CD9" opacity="1.000000" stroke="none" 
	d="
M373.945312,186.353104 
	C374.213501,186.088409 374.507111,186.217484 374.883362,186.672455 
	C374.687103,186.794189 374.355377,186.710373 373.945312,186.353104 
z"/>
<path fill="#509BDB" opacity="1.000000" stroke="none" 
	d="
M191.954559,328.811920 
	C191.747208,328.976166 191.488419,328.837280 191.145477,328.440002 
	C191.394562,328.126343 191.675156,328.235382 191.954559,328.811920 
z"/>
<path fill="#529BDC" opacity="1.000000" stroke="none" 
	d="
M331.126984,161.189621 
	C331.295502,161.034988 331.520630,161.136292 331.819977,161.464401 
	C331.927246,161.617737 331.522034,161.639343 331.522034,161.639343 
	C331.522034,161.639343 331.216644,161.372101 331.126984,161.189621 
z"/>
<path fill="#6C98E3" opacity="1.000000" stroke="none" 
	d="
M239.757187,102.089020 
	C239.904068,102.344803 239.714325,102.605530 239.201340,102.890846 
	C239.155228,102.711716 239.336044,102.437889 239.757187,102.089020 
z"/>
<path fill="#409CD7" opacity="1.000000" stroke="none" 
	d="
M1067.860352,186.729248 
	C1067.533813,186.852417 1067.311646,186.633575 1067.101562,186.108459 
	C1067.320801,186.074936 1067.604614,186.269958 1067.860352,186.729248 
z"/>
<path fill="#469CD9" opacity="1.000000" stroke="none" 
	d="
M407.030640,153.633820 
	C406.755035,153.896057 406.466766,153.764633 406.102997,153.308594 
	C406.303345,153.188538 406.633453,153.273941 407.030640,153.633820 
z"/>
<path fill="#6C98E3" opacity="1.000000" stroke="none" 
	d="
M237.731323,103.190704 
	C237.872452,103.503143 237.703781,103.700638 237.260773,103.867538 
	C237.035843,103.551575 237.180878,103.297852 237.731323,103.190704 
z"/>
<path fill="#5E99DF" opacity="1.000000" stroke="none" 
	d="
M286.019806,135.297562 
	C286.251282,135.067520 286.523651,135.186188 286.871765,135.607529 
	C286.700439,135.710861 286.404846,135.622894 286.019806,135.297562 
z"/>
<path fill="#5F9ADF" opacity="1.000000" stroke="none" 
	d="
M242.716400,200.024567 
	C242.769547,200.209686 242.580887,200.490524 242.153900,200.871979 
	C242.101913,200.688492 242.288254,200.404373 242.716400,200.024567 
z"/>
<path fill="#179FCC" opacity="1.000000" stroke="none" 
	d="
M1352.741333,132.111084 
	C1352.722778,132.264481 1352.464111,132.361359 1352.114380,132.316513 
	C1352.023193,132.174774 1352.501343,132.054565 1352.741333,132.111084 
z"/>
<path fill="#3B9DD6" opacity="1.000000" stroke="none" 
	d="
M386.991760,245.696106 
	C386.715912,245.878174 386.453339,245.707932 386.198578,245.192505 
	C386.484650,244.988251 386.750854,245.153748 386.991760,245.696106 
z"/>
<path fill="#2F9ED2" opacity="1.000000" stroke="none" 
	d="
M424.026062,268.651978 
	C423.733704,268.899353 423.453125,268.753540 423.101746,268.294128 
	C423.310669,268.180908 423.646301,268.273682 424.026062,268.651978 
z"/>
<path fill="#529BDC" opacity="1.000000" stroke="none" 
	d="
M360.929443,127.691666 
	C360.680969,127.919724 360.433533,127.801430 360.127899,127.398560 
	C360.383179,127.012390 360.670135,127.089500 360.929443,127.691666 
z"/>
<path fill="#5999DD" opacity="1.000000" stroke="none" 
	d="
M187.298248,282.626404 
	C187.203262,282.381409 187.366425,282.216980 187.764008,282.069458 
	C187.876007,282.293060 187.728653,282.499939 187.298248,282.626404 
z"/>
<path fill="#2F9ED2" opacity="1.000000" stroke="none" 
	d="
M424.956177,269.740601 
	C424.777222,269.787567 424.504181,269.601227 424.140930,269.178070 
	C424.321198,269.129944 424.591644,269.318634 424.956177,269.740601 
z"/>
<path fill="#5999DD" opacity="1.000000" stroke="none" 
	d="
M199.304108,276.934540 
	C199.129684,276.670532 199.301590,276.408386 199.800980,276.122009 
	C200.006241,276.389343 199.846909,276.668854 199.304108,276.934540 
z"/>
<path fill="#179FCC" opacity="1.000000" stroke="none" 
	d="
M1343.732910,132.191376 
	C1343.844482,132.493317 1343.631958,132.705460 1343.127319,132.909424 
	C1343.099243,132.707642 1343.290405,132.441086 1343.732910,132.191376 
z"/>
<path fill="#5999DD" opacity="1.000000" stroke="none" 
	d="
M206.285110,272.616516 
	C206.196487,272.379364 206.360565,272.217346 206.753784,272.069153 
	C206.863754,272.290253 206.715363,272.493134 206.285110,272.616516 
z"/>
<path fill="#000000" opacity="1.000000" stroke="none" 
	d="
M613.016663,250.161865 
	C609.646545,250.112793 606.276428,250.063721 602.452942,250.088699 
	C597.332581,250.106735 592.665588,250.050705 587.493591,249.507980 
	C587.023315,236.034103 587.057983,223.046936 587.092712,210.059769 
	C592.086487,210.032089 597.080200,210.004410 602.535583,209.905594 
	C608.727966,210.213226 614.503540,210.265823 620.179565,211.043808 
	C629.773315,212.358795 633.214233,219.472931 633.907349,227.554596 
	C634.991638,240.197342 629.840393,247.997696 617.007080,249.106094 
	C616.242493,249.172134 615.517456,249.695526 614.136475,250.023438 
	C613.498962,250.040787 613.016663,250.161850 613.016663,250.161865 
z"/>
<path fill="#000000" opacity="1.000000" stroke="none" 
	d="
M611.507812,155.050537 
	C615.514893,156.429092 619.524658,157.110641 622.501587,159.237762 
	C628.837952,163.765350 630.588501,171.165695 627.995667,178.529831 
	C625.813538,184.727127 619.339417,188.932571 611.863464,189.005325 
	C610.866333,189.015030 609.869080,189.008759 608.433472,189.082779 
	C601.085205,189.155670 594.175415,189.155670 586.870361,189.155670 
	C586.870361,178.768097 586.870361,169.030289 586.870361,159.292465 
	C586.870361,158.013184 586.870361,156.733902 586.870361,155.008621 
	C595.219788,155.008621 603.131104,155.008621 611.507812,155.050537 
z"/>
<path fill="#639AE0" opacity="1.000000" stroke="none" 
	d="
M586.764282,210.316406 
	C587.057983,223.046936 587.023315,236.034103 587.032837,249.483261 
	C586.737549,249.409622 586.099243,248.872360 586.102234,248.338638 
	C586.171570,235.749863 586.310059,223.161484 586.764282,210.316406 
z"/>
<path fill="#9095EC" opacity="1.000000" stroke="none" 
	d="
M613.107422,250.306259 
	C613.016663,250.161850 613.498962,250.040787 613.739685,250.102936 
	C613.719666,250.260269 613.458984,250.355469 613.107422,250.306259 
z"/>
<path fill="#000000" opacity="1.000000" stroke="none" 
	d="
M896.718628,156.045074 
	C909.501587,164.035568 915.556091,175.307053 915.075745,190.234802 
	C914.776672,199.529037 915.191406,208.844635 914.978271,218.143585 
	C914.565552,236.149887 903.183899,252.473450 882.441284,251.102539 
	C870.276062,251.918442 860.731140,240.896179 858.054504,231.380096 
	C856.522766,225.934280 855.253235,220.221710 855.154968,214.606644 
	C854.960999,203.525253 854.926636,192.343674 856.185913,181.359406 
	C857.691895,168.222946 864.661072,158.241638 878.025146,154.745956 
	C882.700012,153.523132 888.039490,154.840637 893.633179,155.305557 
	C894.785950,155.681595 895.380981,155.750168 895.975952,155.818726 
	C896.139465,155.874298 896.303040,155.929871 896.718628,156.045074 
z"/>
<path fill="#5B99DE" opacity="1.000000" stroke="none" 
	d="
M895.783020,155.602310 
	C895.380981,155.750168 894.785950,155.681595 894.056152,155.331421 
	C894.477539,155.161850 895.033813,155.273865 895.783020,155.602310 
z"/>
<path fill="#000000" opacity="1.000000" stroke="none" 
	d="
M794.000000,334.881653 
	C794.301331,342.417175 792.438782,348.502930 786.076904,352.431183 
	C775.709778,358.832520 765.007080,352.091827 763.568359,342.729767 
	C762.316406,334.582886 763.111694,325.938812 764.209229,317.674683 
	C765.003235,311.696289 771.765686,307.261322 777.747375,307.002472 
	C783.389038,306.758331 790.498535,311.528137 791.933472,317.565491 
	C793.232849,323.032715 793.357361,328.779144 794.000000,334.881653 
z"/>
</svg>