<?xml version="1.0" encoding="UTF-8"?>
<!DOCTYPE svg PUBLIC "-//W3C//DTD SVG 1.1//EN" "http://www.w3.org/Graphics/SVG/1.1/DTD/svg11.dtd">
<svg xmlns="http://www.w3.org/2000/svg" version="1.1" width="2560px" height="853px" style="shape-rendering:geometricPrecision; text-rendering:geometricPrecision; image-rendering:optimizeQuality; fill-rule:evenodd; clip-rule:evenodd" xmlns:xlink="http://www.w3.org/1999/xlink">
<g><path style="opacity:0.004" fill="#00fffe" d="M 465.5,135.5 C 465.158,136.338 464.492,136.672 463.5,136.5C 461.956,136.703 460.622,137.37 459.5,138.5C 458.893,138.376 458.56,138.043 458.5,137.5C 459.794,136.71 460.961,135.71 462,134.5C 463.011,135.337 464.178,135.67 465.5,135.5 Z"/></g>
<g><path style="opacity:0.99" fill="#6b98e2" d="M 554.5,180.5 C 554.217,181.289 553.717,181.956 553,182.5C 550.757,180.718 548.257,180.218 545.5,181C 529.8,197.032 514.467,213.365 499.5,230C 494.999,229.067 494.666,229.734 498.5,232C 498.043,232.414 497.709,232.914 497.5,233.5C 498.612,234.265 499.279,235.265 499.5,236.5C 490.798,230.805 481.798,225.472 472.5,220.5C 472.083,219.876 471.416,219.543 470.5,219.5C 469.287,219.747 468.62,220.414 468.5,221.5C 452.522,231.493 436.189,240.993 419.5,250C 418.5,251 417.5,252 416.5,253C 409.167,256.333 401.833,259.667 394.5,263C 392.208,264.29 390.208,265.957 388.5,268C 379.846,271.594 371.512,275.927 363.5,281C 355.318,287.702 346.318,292.868 336.5,296.5C 335.761,296.369 335.094,296.536 334.5,297C 333.262,297.69 333.262,298.19 334.5,298.5C 321.801,305.357 309.134,312.523 296.5,320C 294.561,320.908 293.561,322.408 293.5,324.5C 291.379,324.325 289.379,324.659 287.5,325.5C 287.343,324.127 287.51,322.793 288,321.5C 342.167,264 396.333,206.5 450.5,149C 449.5,148.667 448.5,148.333 447.5,148C 448.252,147.329 448.586,146.496 448.5,145.5C 449.768,143.953 451.435,142.953 453.5,142.5C 453.435,142.938 453.601,143.272 454,143.5C 457.186,141.011 460.352,138.678 463.5,136.5C 464.492,136.672 465.158,136.338 465.5,135.5C 466.885,134.386 468.385,133.386 470,132.5C 475.049,135.037 480.215,137.37 485.5,139.5C 492.43,144.976 500.097,149.476 508.5,153C 520.918,162.211 534.252,169.877 548.5,176C 550.114,178.127 552.114,179.627 554.5,180.5 Z"/></g>
<g><path style="opacity:0.008" fill="#4e64fe" d="M 463.5,136.5 C 460.352,138.678 457.186,141.011 454,143.5C 453.601,143.272 453.435,142.938 453.5,142.5C 454.833,140.5 456.5,138.833 458.5,137.5C 458.56,138.043 458.893,138.376 459.5,138.5C 460.622,137.37 461.956,136.703 463.5,136.5 Z"/></g>
<g><path style="opacity:0.987" fill="#7298e4" d="M 448.5,145.5 C 448.586,146.496 448.252,147.329 447.5,148C 448.5,148.333 449.5,148.667 450.5,149C 396.333,206.5 342.167,264 288,321.5C 287.51,322.793 287.343,324.127 287.5,325.5C 246.073,349.72 204.407,373.72 162.5,397.5C 161.737,396.732 160.737,396.232 159.5,396C 162.333,392.5 165.167,389 168,385.5C 220.508,331.658 272.341,277.158 323.5,222C 322.099,221.59 320.766,221.09 319.5,220.5C 338.14,209.401 356.474,197.568 374.5,185C 382.718,181.776 390.718,178.109 398.5,174C 411.434,166.862 424.101,159.196 436.5,151C 440.85,149.787 444.85,147.954 448.5,145.5 Z"/></g>
<g><path style="opacity:0.004" fill="#00fffe" d="M 570.5,189.5 C 573.614,189.555 575.948,190.888 577.5,193.5C 574.414,193.401 572.081,192.068 570.5,189.5 Z"/></g>
<g><path style="opacity:0.004" fill="#00fffe" d="M 582.5,196.5 C 585.292,196.622 587.292,197.956 588.5,200.5C 586.223,199.551 584.223,198.218 582.5,196.5 Z"/></g>
<g><path style="opacity:0.989" fill="#5b99de" d="M 554.5,180.5 C 560.197,183.011 565.53,186.011 570.5,189.5C 572.081,192.068 574.414,193.401 577.5,193.5C 579.674,193.75 581.341,194.75 582.5,196.5C 584.223,198.218 586.223,199.551 588.5,200.5C 596.199,203.163 603.199,207.163 609.5,212.5C 610.899,213.89 612.566,214.89 614.5,215.5C 615.514,216.674 616.847,217.34 618.5,217.5C 617.965,220.238 618.965,222.072 621.5,223C 604.316,241.057 587.316,258.89 570.5,276.5C 546.87,263.227 523.204,249.894 499.5,236.5C 499.279,235.265 498.612,234.265 497.5,233.5C 497.709,232.914 498.043,232.414 498.5,232C 494.666,229.734 494.999,229.067 499.5,230C 514.467,213.365 529.8,197.032 545.5,181C 548.257,180.218 550.757,180.718 553,182.5C 553.717,181.956 554.217,181.289 554.5,180.5 Z"/></g>
<g><path style="opacity:0.004" fill="#00fffe" d="M 609.5,212.5 C 611.989,212.241 613.656,213.241 614.5,215.5C 612.566,214.89 610.899,213.89 609.5,212.5 Z"/></g>
<g><path style="opacity:0.004" fill="#2333ff" d="M 472.5,220.5 C 471.041,220.433 469.708,220.766 468.5,221.5C 468.62,220.414 469.287,219.747 470.5,219.5C 471.416,219.543 472.083,219.876 472.5,220.5 Z"/></g>
<g><path style="opacity:0.991" fill="#7898e6" d="M 319.5,220.5 C 320.766,221.09 322.099,221.59 323.5,222C 272.341,277.158 220.508,331.658 168,385.5C 165.167,389 162.333,392.5 159.5,396C 160.737,396.232 161.737,396.732 162.5,397.5C 158.262,401.228 153.595,404.394 148.5,407C 145.773,407.818 143.106,407.652 140.5,406.5C 139.691,404.929 139.357,403.262 139.5,401.5C 139.5,399.167 139.5,396.833 139.5,394.5C 140.833,373.5 140.833,352.5 139.5,331.5C 139.5,330.833 139.5,330.167 139.5,329.5C 139.503,326.325 140.503,323.492 142.5,321C 151.619,317.275 159.952,312.275 167.5,306C 184.739,294.717 202.739,285.05 221.5,277C 222.833,275.667 224.167,274.333 225.5,273C 236.009,268.249 246.009,262.749 255.5,256.5C 258.448,254.638 261.448,252.971 264.5,251.5C 267.069,248.272 270.402,246.272 274.5,245.5C 276.027,245.573 277.027,244.906 277.5,243.5C 287.293,237.726 297.293,232.226 307.5,227C 311.167,224.003 315.167,221.837 319.5,220.5 Z"/></g>
<g><path style="opacity:0.986" fill="#9094ec" d="M 1053.5,229.5 C 1039.31,229.201 1024.98,229.201 1010.5,229.5C 1008.41,239.388 1006.74,249.388 1005.5,259.5C 1002.36,260.089 999.36,260.756 996.5,261.5C 996.5,281.5 996.5,301.5 996.5,321.5C 988.903,366.677 982.237,412.01 976.5,457.5C 997.007,457.17 1017.34,457.503 1037.5,458.5C 1009.83,458.5 982.167,458.5 954.5,458.5C 954.5,381.5 954.5,304.5 954.5,227.5C 984.502,227.333 1014.5,227.5 1044.5,228C 1047.69,228.181 1050.69,228.681 1053.5,229.5 Z"/></g>
<g><path style="opacity:0.974" fill="#409bd6" d="M 1821.5,387.5 C 1822.76,386.182 1824.09,384.849 1825.5,383.5C 1827.69,370.171 1829.69,356.838 1831.5,343.5C 1830.39,340.822 1828.39,338.322 1825.5,336C 1826.07,335.005 1826.73,334.172 1827.5,333.5C 1839.89,353.27 1852.06,373.27 1864,393.5C 1863.5,338.167 1862.67,282.834 1861.5,227.5C 1875.5,227.5 1889.5,227.5 1903.5,227.5C 1903.5,304.5 1903.5,381.5 1903.5,458.5C 1890.16,458.667 1876.83,458.5 1863.5,458C 1849.27,434.613 1835.27,411.113 1821.5,387.5 Z"/></g>
<g><path style="opacity:0.981" fill="#7797e5" d="M 1244.5,227.5 C 1258.5,227.5 1272.5,227.5 1286.5,227.5C 1286.5,304.5 1286.5,381.5 1286.5,458.5C 1272.5,458.5 1258.5,458.5 1244.5,458.5C 1244.5,381.5 1244.5,304.5 1244.5,227.5 Z"/></g>
<g><path style="opacity:0.973" fill="#6698e1" d="M 1478.5,227.5 C 1479.21,228.404 1480.21,228.737 1481.5,228.5C 1480.96,239.09 1479.63,249.59 1477.5,260C 1477.83,261.5 1478.17,263 1478.5,264.5C 1480.03,263.579 1481.36,263.912 1482.5,265.5C 1466.19,276.361 1457.03,291.694 1455,311.5C 1454.33,332.5 1454.33,353.5 1455,374.5C 1456.85,392.537 1464.68,407.204 1478.5,418.5C 1476.86,418.714 1475.36,418.38 1474,417.5C 1471.76,429.168 1469.43,440.835 1467,452.5C 1466,451.5 1465,450.5 1464,449.5C 1463.29,450.381 1462.46,451.047 1461.5,451.5C 1431.45,434.439 1415.28,408.439 1413,373.5C 1412.33,353.167 1412.33,332.833 1413,312.5C 1416.74,269.962 1438.57,241.628 1478.5,227.5 Z"/></g>
<g><path style="opacity:0.988" fill="#4b9ad9" d="M 1827.5,333.5 C 1826.73,334.172 1826.07,335.005 1825.5,336C 1828.39,338.322 1830.39,340.822 1831.5,343.5C 1829.69,356.838 1827.69,370.171 1825.5,383.5C 1824.09,384.849 1822.76,386.182 1821.5,387.5C 1802.11,355.729 1782.94,323.729 1764,291.5C 1764.66,347.162 1765.49,402.829 1766.5,458.5C 1752.83,458.5 1739.17,458.5 1725.5,458.5C 1725.5,381.5 1725.5,304.5 1725.5,227.5C 1738.75,227.177 1751.91,227.511 1765,228.5C 1786.09,263.404 1806.92,298.404 1827.5,333.5 Z"/></g>
<g><path style="opacity:0.958" fill="#2f9dd2" d="M 2039.5,227.5 C 2053.5,227.5 2067.5,227.5 2081.5,227.5C 2081.5,304.5 2081.5,381.5 2081.5,458.5C 2067.5,458.5 2053.5,458.5 2039.5,458.5C 2039.5,381.5 2039.5,304.5 2039.5,227.5 Z"/></g>
<g><path style="opacity:0.995" fill="#1c9ecc" d="M 2286.5,224.5 C 2304.3,223.067 2321.63,225.234 2338.5,231C 2371.94,245.714 2386.94,271.214 2383.5,307.5C 2370.52,308.499 2357.52,308.832 2344.5,308.5C 2345.1,276.981 2329.77,260.314 2298.5,258.5C 2278.31,260.523 2264.14,270.856 2256,289.5C 2250.15,307.022 2247.98,325.022 2249.5,343.5C 2248.28,360.865 2250.11,377.865 2255,394.5C 2268.34,424.415 2290.5,433.915 2321.5,423C 2333.7,416.457 2340.86,406.29 2343,392.5C 2343.75,387.519 2344.25,382.519 2344.5,377.5C 2357.52,377.168 2370.52,377.501 2383.5,378.5C 2386.58,408.852 2375.24,432.352 2349.5,449C 2329.47,459.673 2308.14,463.673 2285.5,461C 2252.48,455.976 2229.31,438.142 2216,407.5C 2209.13,386.742 2206.3,365.408 2207.5,343.5C 2206.46,322.368 2208.96,301.701 2215,281.5C 2228.11,248.872 2251.95,229.872 2286.5,224.5 Z"/></g>
<g><path style="opacity:0.985" fill="#8895ea" d="M 1053.5,229.5 C 1095.47,235.301 1114.64,259.301 1111,301.5C 1107.42,314.08 1100.92,324.913 1091.5,334C 1121.83,360.421 1128.33,391.921 1111,428.5C 1100.32,442.814 1086.15,451.981 1068.5,456C 1058.25,457.87 1047.92,458.703 1037.5,458.5C 1017.34,457.503 997.007,457.17 976.5,457.5C 982.237,412.01 988.903,366.677 996.5,321.5C 1010.5,321.667 1024.5,321.5 1038.5,321C 1064.04,319.109 1073.87,305.609 1068,280.5C 1065.22,274.057 1060.72,269.223 1054.5,266C 1047.41,263.382 1040.07,262.048 1032.5,262C 1020.5,261.5 1008.5,261.333 996.5,261.5C 999.36,260.756 1002.36,260.089 1005.5,259.5C 1006.74,249.388 1008.41,239.388 1010.5,229.5C 1024.98,229.201 1039.31,229.201 1053.5,229.5 Z M 996.5,355.5 C 1015.84,355.333 1035.17,355.5 1054.5,356C 1066.23,358.732 1073.73,365.899 1077,377.5C 1081.58,392.674 1078.41,405.841 1067.5,417C 1061.2,421.324 1054.2,423.657 1046.5,424C 1029.84,424.5 1013.17,424.667 996.5,424.5C 996.5,401.5 996.5,378.5 996.5,355.5 Z"/></g>
<g><path style="opacity:0.004" fill="#00fffe" d="M 277.5,243.5 C 277.027,244.906 276.027,245.573 274.5,245.5C 274.973,244.094 275.973,243.427 277.5,243.5 Z"/></g>
<g><path style="opacity:0.99" fill="#519bdb" d="M 618.5,217.5 C 626.597,220.717 633.93,225.217 640.5,231C 645.081,232.292 649.081,234.625 652.5,238C 654.167,238.333 655.833,238.667 657.5,239C 666.762,245.121 676.096,250.955 685.5,256.5C 681.173,257.282 677.673,259.615 675,263.5C 661.571,279.599 647.404,295.099 632.5,310C 631.207,310.49 629.873,310.657 628.5,310.5C 626.076,309.97 623.743,309.136 621.5,308C 617.033,303.6 612.033,299.934 606.5,297C 593.848,291.184 581.848,284.351 570.5,276.5C 587.316,258.89 604.316,241.057 621.5,223C 618.965,222.072 617.965,220.238 618.5,217.5 Z"/></g>
<g><path style="opacity:0.971" fill="#5c99de" d="M 1461.5,451.5 C 1462.46,451.047 1463.29,450.381 1464,449.5C 1465,450.5 1466,451.5 1467,452.5C 1469.43,440.835 1471.76,429.168 1474,417.5C 1475.36,418.38 1476.86,418.714 1478.5,418.5C 1503.06,431.379 1525.23,428.046 1545,408.5C 1553.4,397.638 1558.07,385.305 1559,371.5C 1559.67,352.5 1559.67,333.5 1559,314.5C 1557.27,294.52 1548.43,278.687 1532.5,267C 1516.02,257.78 1499.35,257.28 1482.5,265.5C 1481.36,263.912 1480.03,263.579 1478.5,264.5C 1478.17,263 1477.83,261.5 1477.5,260C 1479.63,249.59 1480.96,239.09 1481.5,228.5C 1480.21,228.737 1479.21,228.404 1478.5,227.5C 1515.95,218.318 1548.45,226.985 1576,253.5C 1592.19,272.053 1600.52,293.72 1601,318.5C 1601.67,335.167 1601.67,351.833 1601,368.5C 1599.32,404.721 1583.15,432.221 1552.5,451C 1529.44,461.736 1505.44,464.403 1480.5,459C 1473.64,457.553 1467.31,455.053 1461.5,451.5 Z"/></g>
<g><path style="opacity:0.004" fill="#00fffe" d="M 264.5,251.5 C 261.448,252.971 258.448,254.638 255.5,256.5C 255.5,255.167 255.5,253.833 255.5,252.5C 258.545,252.492 261.545,252.159 264.5,251.5 Z"/></g>
<g><path style="opacity:0.986" fill="#489cd9" d="M 685.5,256.5 C 698.364,263.178 711.364,269.678 724.5,276C 731.059,280.441 737.726,284.607 744.5,288.5C 727.313,305.867 709.813,323.867 692,342.5C 691.135,344.888 691.968,346.388 694.5,347C 694.272,347.399 693.938,347.565 693.5,347.5C 671.631,335.402 649.964,323.069 628.5,310.5C 629.873,310.657 631.207,310.49 632.5,310C 647.404,295.099 661.571,279.599 675,263.5C 677.673,259.615 681.173,257.282 685.5,256.5 Z"/></g>
<g><path style="opacity:0.004" fill="#3229ff" d="M 336.5,296.5 C 336.167,297.5 335.5,298.167 334.5,298.5C 333.262,298.19 333.262,297.69 334.5,297C 335.094,296.536 335.761,296.369 336.5,296.5 Z"/></g>
<g><path style="opacity:0.992" fill="#5f9adf" d="M 479.5,302.5 C 479.28,306.59 480.946,308.59 484.5,308.5C 441.147,353.02 398.313,398.02 356,443.5C 349.469,450.365 342.636,456.865 335.5,463C 336.883,464.271 337.883,465.771 338.5,467.5C 319.469,476.712 300.802,486.545 282.5,497C 273.401,502.279 264.734,508.112 256.5,514.5C 257.128,516.258 258.128,517.758 259.5,519C 278.402,529.611 297.069,540.445 315.5,551.5C 313.007,551.671 311.174,550.671 310,548.5C 309.25,549.126 308.416,549.626 307.5,550C 308.357,550.689 309.023,551.522 309.5,552.5C 293.483,569.349 277.65,586.349 262,603.5C 261.667,603.167 261.333,602.833 261,602.5C 259.698,603.085 258.531,603.751 257.5,604.5C 255.821,604.108 254.154,603.608 252.5,603C 246.493,597.487 239.493,593.987 231.5,592.5C 231.719,591.325 231.386,590.325 230.5,589.5C 226.996,587.582 223.663,585.416 220.5,583C 214.81,579.488 208.81,576.488 202.5,574C 200.833,573 199.5,571.667 198.5,570C 191.925,566.545 185.259,563.378 178.5,560.5C 179.404,559.791 179.737,558.791 179.5,557.5C 180.552,557.649 181.552,557.483 182.5,557C 239.611,497.22 296.778,437.386 354,377.5C 355.326,373.641 357.493,369.974 360.5,366.5C 360.833,365.833 361.167,365.167 361.5,364.5C 365.661,360.419 370.661,357.919 376.5,357C 404.791,339.334 433.791,322.334 463.5,306C 466.377,305.044 469.044,303.711 471.5,302C 474.261,301.278 476.927,301.445 479.5,302.5 Z"/></g>
<g><path style="opacity:0.986" fill="#599bde" d="M 479.5,302.5 C 484.295,306.107 489.628,308.774 495.5,310.5C 496.382,311.76 497.382,312.926 498.5,314C 504.507,314.836 509.507,317.503 513.5,322C 514.5,322.667 515.5,322.667 516.5,322C 519.216,317.367 521.882,317.367 524.5,322C 524.507,323.583 524.174,325.249 523.5,327C 531.429,330.747 538.595,335.581 545,341.5C 545.667,343.167 545.667,344.833 545,346.5C 540.019,351.608 534.186,355.441 527.5,358C 526.5,359 525.5,360 524.5,361C 516.301,365.746 507.634,369.746 498.5,373C 496.158,375.786 493.158,377.453 489.5,378C 488.5,379 487.5,380 486.5,381C 475.38,385.724 465.047,391.724 455.5,399C 449.847,401.093 444.681,403.927 440,407.5C 435.475,408.028 431.975,410.194 429.5,414C 426.833,415 424.167,416 421.5,417C 413.081,422.147 404.748,427.48 396.5,433C 394.392,433.36 392.392,434.027 390.5,435C 373.992,447.091 356.659,457.924 338.5,467.5C 337.883,465.771 336.883,464.271 335.5,463C 342.636,456.865 349.469,450.365 356,443.5C 398.313,398.02 441.147,353.02 484.5,308.5C 480.946,308.59 479.28,306.59 479.5,302.5 Z"/></g>
<g><path style="opacity:0.995" fill="#3c9cd5" d="M 744.5,288.5 C 748.26,290.408 751.926,292.575 755.5,295C 758.637,295.601 761.637,296.601 764.5,298C 766.056,302.889 769.389,305.556 774.5,306C 781.373,311.401 788.706,316.067 796.5,320C 799.985,322.617 801.652,326.117 801.5,330.5C 801.714,341.519 801.38,352.519 800.5,363.5C 800.951,370.34 801.618,377.007 802.5,383.5C 802.938,383.435 803.272,383.601 803.5,384C 802.427,385.313 801.76,386.813 801.5,388.5C 802.575,394.134 802.742,399.801 802,405.5C 801.612,406.428 800.945,407.095 800,407.5C 794.607,405.748 789.44,403.581 784.5,401C 756.744,385.054 729.078,369.22 701.5,353.5C 699.074,351.059 696.407,349.059 693.5,347.5C 693.938,347.565 694.272,347.399 694.5,347C 691.968,346.388 691.135,344.888 692,342.5C 709.813,323.867 727.313,305.867 744.5,288.5 Z"/></g>
<g><path style="opacity:0.004" fill="#00fffe" d="M 139.5,329.5 C 139.5,330.167 139.5,330.833 139.5,331.5C 139.324,352.563 139.324,373.563 139.5,394.5C 139.5,396.833 139.5,399.167 139.5,401.5C 138.732,400.737 138.232,399.737 138,398.5C 137.333,376.167 137.333,353.833 138,331.5C 138.278,330.584 138.778,329.918 139.5,329.5 Z"/></g>
<g><path style="opacity:0.004" fill="#10f2f2" d="M 801.5,330.5 C 802.497,347.992 802.83,365.659 802.5,383.5C 801.618,377.007 800.951,370.34 800.5,363.5C 801.38,352.519 801.714,341.519 801.5,330.5 Z"/></g>
<g><path style="opacity:0.024" fill="#7d82ff" d="M 139.5,331.5 C 140.833,352.5 140.833,373.5 139.5,394.5C 139.324,373.563 139.324,352.563 139.5,331.5 Z"/></g>
<g><path style="opacity:0.004" fill="#00fffe" d="M 361.5,364.5 C 361.167,365.167 360.833,365.833 360.5,366.5C 359.833,366.5 359.167,366.5 358.5,366.5C 358.973,365.094 359.973,364.427 361.5,364.5 Z"/></g>
<g><path style="opacity:0.992" fill="#6698e1" d="M 358.5,366.5 C 359.167,366.5 359.833,366.5 360.5,366.5C 357.493,369.974 355.326,373.641 354,377.5C 296.778,437.386 239.611,497.22 182.5,557C 181.552,557.483 180.552,557.649 179.5,557.5C 179.737,558.791 179.404,559.791 178.5,560.5C 176.114,559.627 174.114,558.127 172.5,556C 171.207,555.51 169.873,555.343 168.5,555.5C 168.719,554.325 168.386,553.325 167.5,552.5C 158.689,548.168 150.023,543.668 141.5,539C 139.549,537.266 138.549,535.099 138.5,532.5C 137.581,524.424 137.247,516.424 137.5,508.5C 137.588,503.464 138.088,498.464 139,493.5C 190.813,464.017 242.313,434.183 293.5,404C 296.167,402.667 298.167,400.667 299.5,398C 320.159,389.286 339.826,378.786 358.5,366.5 Z"/></g>
<g><path style="opacity:0.004" fill="#00fffe" d="M 181.5,392.5 C 181.897,391.475 182.563,391.308 183.5,392C 182.906,392.464 182.239,392.631 181.5,392.5 Z"/></g>
<g><path style="opacity:0.996" fill="#429ad7" d="M 675.5,427.5 C 673.073,427.523 670.74,428.023 668.5,429C 654.167,444 639.833,459 625.5,474C 624.552,474.483 623.552,474.649 622.5,474.5C 622.5,475.5 622.5,476.5 622.5,477.5C 616.66,474.536 610.66,471.703 604.5,469C 588.137,456.816 570.804,446.149 552.5,437C 545.541,433.861 544.875,429.861 550.5,425C 567,415.251 583.334,405.251 599.5,395C 604.855,392.739 610.355,390.906 616,389.5C 622.673,392.826 628.84,396.993 634.5,402C 648.802,409.467 662.469,417.967 675.5,427.5 Z"/></g>
<g><path style="opacity:0.996" fill="#3a9cd5" d="M 675.5,427.5 C 683.439,432.476 691.439,437.476 699.5,442.5C 700.382,444.384 701.882,445.717 704,446.5C 704.399,446.272 704.565,445.938 704.5,445.5C 707.696,446.929 710.696,448.595 713.5,450.5C 699.307,465.885 684.474,481.551 669,497.5C 668.505,499.473 668.338,501.473 668.5,503.5C 671.344,503.343 673.011,504.676 673.5,507.5C 657.329,498.189 640.995,489.022 624.5,480C 623.619,479.292 622.953,478.458 622.5,477.5C 622.5,476.5 622.5,475.5 622.5,474.5C 623.552,474.649 624.552,474.483 625.5,474C 639.833,459 654.167,444 668.5,429C 670.74,428.023 673.073,427.523 675.5,427.5 Z"/></g>
<g><path style="opacity:0.008" fill="#235fe9" d="M 699.5,442.5 C 701.368,443.263 703.035,444.263 704.5,445.5C 704.565,445.938 704.399,446.272 704,446.5C 701.882,445.717 700.382,444.384 699.5,442.5 Z"/></g>
<g><path style="opacity:0.994" fill="#349dd3" d="M 713.5,450.5 C 724.373,456.382 734.707,463.048 744.5,470.5C 743.325,470.281 742.325,470.614 741.5,471.5C 742.588,473.965 744.421,475.631 747,476.5C 747.667,477.167 747.667,477.833 747,478.5C 687.698,541.469 628.032,604.136 568,666.5C 567.5,667.5 567,668.5 566.5,669.5C 567.612,670.265 568.279,671.265 568.5,672.5C 567.038,673.458 565.705,674.624 564.5,676C 551.361,681.446 538.694,687.779 526.5,695C 517.609,701.078 508.276,706.411 498.5,711C 494.5,714 490.5,717 486.5,720C 481.36,721.446 476.694,723.779 472.5,727C 468.152,727.159 464.486,725.659 461.5,722.5C 460.047,721.175 460.381,720.342 462.5,720C 460.053,718.771 459.887,717.271 462,715.5C 508.198,667.636 554.032,619.469 599.5,571C 598.483,569.951 598.316,568.784 599,567.5C 599.419,568.672 600.085,569.672 601,570.5C 601.494,568.866 601.66,567.199 601.5,565.5C 628.533,550.322 655.199,534.655 681.5,518.5C 682.888,517.409 683.388,516.076 683,514.5C 679.855,512.024 676.688,509.69 673.5,507.5C 673.011,504.676 671.344,503.343 668.5,503.5C 668.338,501.473 668.505,499.473 669,497.5C 684.474,481.551 699.307,465.885 713.5,450.5 Z"/></g>
<g><path style="opacity:0.992" fill="#2d9ed2" d="M 744.5,470.5 C 762.823,481.671 780.99,493.005 799,504.5C 800.98,509.277 801.98,514.277 802,519.5C 802.5,520.667 803.333,521.5 804.5,522C 803.54,523.419 802.707,524.919 802,526.5C 801.703,529.914 801.036,533.247 800,536.5C 797.732,538.188 795.565,540.021 793.5,542C 776.786,551.412 760.119,560.745 743.5,570C 741.649,571.684 739.982,573.517 738.5,575.5C 730.833,579 723.167,582.5 715.5,586C 713.208,587.29 711.208,588.957 709.5,591C 705.358,593.235 701.025,595.235 696.5,597C 681.117,607.209 665.117,616.376 648.5,624.5C 636.122,631.375 624.122,638.875 612.5,647C 606.304,649.592 600.637,652.925 595.5,657C 587.684,660.49 580.684,665.157 574.5,671C 572.414,671.315 570.414,671.815 568.5,672.5C 568.279,671.265 567.612,670.265 566.5,669.5C 567,668.5 567.5,667.5 568,666.5C 628.032,604.136 687.698,541.469 747,478.5C 747.667,477.833 747.667,477.167 747,476.5C 744.421,475.631 742.588,473.965 741.5,471.5C 742.325,470.614 743.325,470.281 744.5,470.5 Z"/></g>
<g><path style="opacity:0.96" fill="#4d96da" d="M 472.5,481.5 C 471.234,482.09 469.901,482.59 468.5,483C 452.167,500 435.833,517 419.5,534C 421.891,535.309 421.891,536.309 419.5,537C 420.252,537.671 420.586,538.504 420.5,539.5C 412.369,534.725 404.035,530.225 395.5,526C 391.583,523.166 390.749,519.666 393,515.5C 400.624,510.296 408.458,505.463 416.5,501C 431.731,493.436 446.731,485.436 461.5,477C 465.858,476.847 469.525,478.347 472.5,481.5 Z"/></g>
<g><path style="opacity:0.983" fill="#489bd9" d="M 472.5,481.5 C 480.842,485.671 489.176,489.838 497.5,494C 508.066,501.447 519.066,508.113 530.5,514C 533.102,515.554 534.269,517.72 534,520.5C 525.314,527.007 516.314,533.007 507,538.5C 496.885,542.25 488.051,547.916 480.5,555.5C 474.748,558.372 468.748,560.706 462.5,562.5C 447.932,555.883 433.932,548.216 420.5,539.5C 420.586,538.504 420.252,537.671 419.5,537C 421.891,536.309 421.891,535.309 419.5,534C 435.833,517 452.167,500 468.5,483C 469.901,482.59 471.234,482.09 472.5,481.5 Z"/></g>
<g><path style="opacity:0.004" fill="#00fffe" d="M 137.5,508.5 C 137.247,516.424 137.581,524.424 138.5,532.5C 137.732,531.737 137.232,530.737 137,529.5C 136.179,522.321 136.345,515.321 137.5,508.5 Z"/></g>
<g><path style="opacity:0.815" fill="#fefffe" d="M 1148.5,509.5 C 1161.58,507.813 1173.92,509.98 1185.5,516C 1194.87,523.581 1199.21,533.414 1198.5,545.5C 1192.83,545.5 1187.17,545.5 1181.5,545.5C 1181.75,533.929 1176.41,526.429 1165.5,523C 1147.73,521.414 1137.57,529.581 1135,547.5C 1134.33,558.167 1134.33,568.833 1135,579.5C 1139.92,602.709 1153.09,609.542 1174.5,600C 1179.49,594.851 1181.82,588.684 1181.5,581.5C 1187.17,581.5 1192.83,581.5 1198.5,581.5C 1196.75,605.559 1183.75,617.559 1159.5,617.5C 1141.39,618.025 1128.55,610.025 1121,593.5C 1119.38,589.653 1118.38,585.653 1118,581.5C 1117.09,567.786 1117.43,554.119 1119,540.5C 1123.28,524.724 1133.11,514.39 1148.5,509.5 Z"/></g>
<g><path style="opacity:0.826" fill="#fefffe" d="M 1313.5,509.5 C 1340.56,505.263 1358.39,515.93 1367,541.5C 1368.54,554.124 1368.87,566.791 1368,579.5C 1365.37,599.126 1354.54,611.626 1335.5,617C 1310.17,621.924 1293,612.424 1284,588.5C 1282.42,573.546 1282.08,558.546 1283,543.5C 1286.74,526.269 1296.9,514.936 1313.5,509.5 Z M 1320.5,522.5 C 1338.61,522.44 1348.78,531.44 1351,549.5C 1351.67,558.833 1351.67,568.167 1351,577.5C 1348.08,597.858 1336.58,606.358 1316.5,603C 1307.65,598.471 1302.15,591.304 1300,581.5C 1299.33,569.5 1299.33,557.5 1300,545.5C 1302.26,533.575 1309.1,525.909 1320.5,522.5 Z"/></g>
<g><path style="opacity:0.816" fill="#fefffe" d="M 1482.5,509.5 C 1489.84,509.334 1497.17,509.5 1504.5,510C 1522.14,513.797 1531.14,524.63 1531.5,542.5C 1526.17,542.5 1520.83,542.5 1515.5,542.5C 1512.78,526.117 1503.12,519.617 1486.5,523C 1475.41,526.357 1471.57,533.524 1475,544.5C 1477.2,547.04 1479.7,549.207 1482.5,551C 1495.21,554.681 1507.54,559.348 1519.5,565C 1533.15,575.77 1535.98,588.937 1528,604.5C 1522.28,611.11 1515.12,615.277 1506.5,617C 1490.47,620.072 1475.81,617.072 1462.5,608C 1455.47,601.75 1452.47,593.917 1453.5,584.5C 1458.83,584.5 1464.17,584.5 1469.5,584.5C 1470.02,593.372 1474.35,599.538 1482.5,603C 1493.04,606.541 1502.88,605.041 1512,598.5C 1517.42,589.739 1515.92,582.239 1507.5,576C 1496.17,572 1484.83,568 1473.5,564C 1457.45,555.513 1452.61,542.68 1459,525.5C 1464.82,517.02 1472.66,511.686 1482.5,509.5 Z"/></g>
<g><path style="opacity:0.833" fill="#fefffe" d="M 1805.5,509.5 C 1818.84,507.542 1831.17,510.042 1842.5,517C 1850.53,523.589 1854.2,532.089 1853.5,542.5C 1848.17,542.5 1842.83,542.5 1837.5,542.5C 1837.35,532.688 1832.69,526.188 1823.5,523C 1815.8,521.666 1808.47,522.666 1801.5,526C 1793.56,533.741 1793.56,541.407 1801.5,549C 1812.88,554.095 1824.54,558.428 1836.5,562C 1854.19,571.938 1858.69,586.104 1850,604.5C 1841.21,614.321 1830.21,618.654 1817,617.5C 1799.22,618.615 1785.89,611.615 1777,596.5C 1775.49,592.654 1775.32,588.821 1776.5,585C 1781.49,584.501 1786.49,584.334 1791.5,584.5C 1791.99,595.487 1797.65,601.987 1808.5,604C 1817.38,606.086 1825.71,604.586 1833.5,599.5C 1839.23,591.485 1838.56,583.985 1831.5,577C 1819.26,572.186 1806.93,567.52 1794.5,563C 1778.31,553.425 1774.47,540.258 1783,523.5C 1788.92,516.046 1796.42,511.379 1805.5,509.5 Z"/></g>
<g><path style="opacity:0.851" fill="#fefffe" d="M 963.5,510.5 C 987.167,510.5 1010.83,510.5 1034.5,510.5C 1034.5,514.833 1034.5,519.167 1034.5,523.5C 1016.5,523.5 998.5,523.5 980.5,523.5C 980.5,534.167 980.5,544.833 980.5,555.5C 996.5,555.5 1012.5,555.5 1028.5,555.5C 1028.5,559.833 1028.5,564.167 1028.5,568.5C 1012.5,568.5 996.5,568.5 980.5,568.5C 980.5,580.167 980.5,591.833 980.5,603.5C 998.833,603.5 1017.17,603.5 1035.5,603.5C 1035.5,607.5 1035.5,611.5 1035.5,615.5C 1011.5,615.5 987.5,615.5 963.5,615.5C 963.5,580.5 963.5,545.5 963.5,510.5 Z"/></g>
<g><path style="opacity:0.819" fill="#fefffe" d="M 1609.5,510.5 C 1616.09,510.189 1622.59,510.522 1629,511.5C 1637.59,527.677 1645.92,544.011 1654,560.5C 1662.33,544.167 1670.67,527.833 1679,511.5C 1685.44,510.19 1691.94,510.19 1698.5,511.5C 1686.92,533.659 1675.09,555.659 1663,577.5C 1662.5,590.162 1662.33,602.829 1662.5,615.5C 1656.83,615.5 1651.17,615.5 1645.5,615.5C 1645.67,602.829 1645.5,590.162 1645,577.5C 1632.63,555.43 1620.8,533.096 1609.5,510.5 Z"/></g>
<g><path style="opacity:0.834" fill="#fefffe" d="M 1933.5,510.5 C 1961.5,510.5 1989.5,510.5 2017.5,510.5C 2017.5,514.833 2017.5,519.167 2017.5,523.5C 2006.17,523.5 1994.83,523.5 1983.5,523.5C 1983.5,554.167 1983.5,584.833 1983.5,615.5C 1977.83,615.5 1972.17,615.5 1966.5,615.5C 1966.5,584.833 1966.5,554.167 1966.5,523.5C 1955.83,523.667 1945.16,523.5 1934.5,523C 1933.54,518.934 1933.2,514.767 1933.5,510.5 Z"/></g>
<g><path style="opacity:0.867" fill="#fefffe" d="M 2101.5,510.5 C 2125.17,510.5 2148.83,510.5 2172.5,510.5C 2172.8,514.767 2172.46,518.934 2171.5,523C 2153.5,523.5 2135.5,523.667 2117.5,523.5C 2117.5,534.167 2117.5,544.833 2117.5,555.5C 2133.83,555.5 2150.17,555.5 2166.5,555.5C 2166.8,559.767 2166.46,563.934 2165.5,568C 2149.5,568.5 2133.5,568.667 2117.5,568.5C 2117.5,580.167 2117.5,591.833 2117.5,603.5C 2136.17,603.5 2154.83,603.5 2173.5,603.5C 2173.5,607.5 2173.5,611.5 2173.5,615.5C 2149.5,615.5 2125.5,615.5 2101.5,615.5C 2101.5,580.5 2101.5,545.5 2101.5,510.5 Z"/></g>
<g><path style="opacity:0.825" fill="#fefffe" d="M 2259.5,510.5 C 2266.75,510.187 2273.92,510.52 2281,511.5C 2291.22,537.986 2301.72,564.32 2312.5,590.5C 2323.29,564.296 2333.79,537.962 2344,511.5C 2351.08,510.52 2358.25,510.187 2365.5,510.5C 2365.5,545.5 2365.5,580.5 2365.5,615.5C 2359.83,615.5 2354.17,615.5 2348.5,615.5C 2348.46,590.485 2348.63,565.485 2349,540.5C 2338.96,565.405 2328.8,590.239 2318.5,615C 2314.5,615.667 2310.5,615.667 2306.5,615C 2296.14,590.264 2285.98,565.431 2276,540.5C 2276.41,565.48 2276.58,590.48 2276.5,615.5C 2270.83,615.5 2265.17,615.5 2259.5,615.5C 2259.5,580.5 2259.5,545.5 2259.5,510.5 Z"/></g>
<g><path style="opacity:0.988" fill="#519adb" d="M 315.5,551.5 C 335.11,562.461 354.443,573.794 373.5,585.5C 371.745,586.072 370.078,586.906 368.5,588C 352.602,604.476 336.935,621.142 321.5,638C 323.795,639.062 324.461,640.562 323.5,642.5C 315.152,638.326 306.818,634.159 298.5,630C 289.829,622.669 280.162,617.002 269.5,613C 265.575,609.888 261.575,607.054 257.5,604.5C 258.531,603.751 259.698,603.085 261,602.5C 261.333,602.833 261.667,603.167 262,603.5C 277.65,586.349 293.483,569.349 309.5,552.5C 309.023,551.522 308.357,550.689 307.5,550C 308.416,549.626 309.25,549.126 310,548.5C 311.174,550.671 313.007,551.671 315.5,551.5 Z"/></g>
<g><path style="opacity:0.995" fill="#3b9bd5" d="M 601.5,565.5 C 601.66,567.199 601.494,568.866 601,570.5C 600.085,569.672 599.419,568.672 599,567.5C 598.316,568.784 598.483,569.951 599.5,571C 554.032,619.469 508.198,667.636 462,715.5C 459.887,717.271 460.053,718.771 462.5,720C 460.381,720.342 460.047,721.175 461.5,722.5C 440.52,710.533 419.52,698.533 398.5,686.5C 399.413,684.914 399.413,683.414 398.5,682C 409.667,670.167 420.833,658.333 432,646.5C 437.837,640.15 444.003,634.484 450.5,629.5C 452.179,629.892 453.846,630.392 455.5,631C 459.666,633.917 463.999,636.584 468.5,639C 470.5,639.667 472.5,639.667 474.5,639C 496.692,626.407 518.692,613.574 540.5,600.5C 542.655,600.628 544.655,600.128 546.5,599C 549.241,597.589 551.575,595.756 553.5,593.5C 569.204,583.826 585.204,574.493 601.5,565.5 Z"/></g>
<g><path style="opacity:0.989" fill="#479bd8" d="M 373.5,585.5 C 399.434,599.959 425.1,614.625 450.5,629.5C 444.003,634.484 437.837,640.15 432,646.5C 420.833,658.333 409.667,670.167 398.5,682C 399.413,683.414 399.413,684.914 398.5,686.5C 381.971,677.225 365.638,667.392 349.5,657C 341.446,652.306 333.112,648.139 324.5,644.5C 323.702,644.043 323.369,643.376 323.5,642.5C 324.461,640.562 323.795,639.062 321.5,638C 336.935,621.142 352.602,604.476 368.5,588C 370.078,586.906 371.745,586.072 373.5,585.5 Z"/></g>
<g><path style="opacity:0.024" fill="#286ce5" d="M 553.5,593.5 C 551.575,595.756 549.241,597.589 546.5,599C 544.655,600.128 542.655,600.628 540.5,600.5C 544.315,597.422 548.649,595.089 553.5,593.5 Z"/></g>
</svg>
