<svg version="1.1" id="Layer_1" xmlns="http://www.w3.org/2000/svg" xmlns:xlink="http://www.w3.org/1999/xlink" x="0px" y="0px"
	 width="100%" viewBox="0 0 866 288" enable-background="new 0 0 866 288" xml:space="preserve">
<path fill="#000000" opacity="1.000000" stroke="none" 
	d="
M564.000000,289.000000 
	C376.000031,289.000000 188.500092,289.000000 1.000101,289.000000 
	C1.000067,193.000061 1.000067,97.000137 1.000033,1.000152 
	C289.666534,1.000101 578.333069,1.000101 866.999634,1.000051 
	C866.999756,96.999840 866.999756,192.999680 866.999878,288.999756 
	C766.166687,289.000000 665.333313,289.000000 564.000000,289.000000 
M617.051758,109.308838 
	C616.720520,108.820427 616.389343,108.332024 615.999451,107.416550 
	C615.999451,107.416550 615.859985,107.008667 615.880676,106.409966 
	C615.283081,105.902367 614.685425,105.394760 614.034607,104.999756 
	C614.034607,104.999756 614.118469,104.907623 614.046631,104.183365 
	C608.987915,95.821404 603.929260,87.459442 598.685852,78.225105 
	C594.247925,78.225105 589.810059,78.225105 585.273560,78.225105 
	C585.161011,78.850372 585.006226,79.309486 585.005981,79.768669 
	C584.992859,104.203522 584.981445,128.638412 585.032227,153.073135 
	C585.034302,154.080276 585.633362,155.086166 586.407776,156.825241 
	C590.301453,156.822525 594.195129,156.819794 598.843262,156.587402 
	C599.211304,155.061432 599.926025,153.527802 599.892395,152.010742 
	C599.633484,140.314514 599.229553,128.621506 599.001709,116.014229 
	C599.001709,111.628143 599.001709,107.242058 599.001709,101.850998 
	C603.360229,108.530510 607.152466,114.342209 611.003052,120.582787 
	C611.003052,120.582787 611.141724,120.992790 611.170593,121.657257 
	C612.094971,122.823296 613.019287,123.989326 614.000671,125.583038 
	C614.000671,125.583038 614.139221,125.991638 614.168396,126.656570 
	C615.093384,127.823021 616.018372,128.989471 617.000916,130.584366 
	C617.000916,130.584366 617.140503,130.993484 617.171753,131.657745 
	C618.096985,132.821701 619.022156,133.985657 620.263550,135.793350 
	C622.340149,139.564316 624.948242,143.144257 626.385925,147.144836 
	C629.674866,156.297058 636.223145,158.422272 645.786865,156.679169 
	C645.860474,131.189484 645.944092,105.699806 645.954468,80.210075 
	C645.954712,79.509079 645.166992,78.807755 643.867249,77.947777 
	C639.956848,78.008369 636.046448,78.068970 631.253296,78.309998 
	C631.167358,88.621338 631.061462,98.932648 631.041199,109.244102 
	C631.039856,109.920914 631.692139,110.599014 631.955139,111.580322 
	C631.955139,111.580322 632.108398,111.856140 632.022217,112.805824 
	C632.065002,116.535370 632.107849,120.264923 632.017578,124.861961 
	C632.017578,127.375885 632.017578,129.889801 632.017578,132.403717 
	C631.722656,132.489777 631.427673,132.575821 631.132751,132.661865 
	C629.471313,130.093826 627.809814,127.525780 626.057800,124.312469 
	C625.725098,123.821915 625.392395,123.331360 625.001099,122.415733 
	C625.001099,122.415733 624.864075,122.009132 624.887024,121.409279 
	C624.288025,120.901329 623.689087,120.393379 623.051392,119.964821 
	C623.051392,119.964821 623.138550,119.950546 623.055420,119.305687 
	C622.722961,118.818062 622.390564,118.330429 621.998657,117.415733 
	C621.998657,117.415733 621.859985,117.007446 621.881165,116.408615 
	C621.283081,115.900909 620.684998,115.393204 620.052612,114.964485 
	C620.052612,114.964485 620.138000,114.952881 620.053284,114.308228 
	C619.721436,113.819756 619.389526,113.331284 618.999329,112.416153 
	C618.999329,112.416153 618.861389,112.008240 618.883057,111.408943 
	C618.284363,110.901665 617.685608,110.394386 617.050476,109.965996 
	C617.050476,109.965996 617.136353,109.952805 617.051758,109.308838 
M273.650970,137.922363 
	C273.413574,137.476669 273.176178,137.030975 273.050720,136.363800 
	C273.050720,136.363800 272.892548,136.172592 272.957581,135.197998 
	C272.969666,128.242905 273.029144,121.287239 272.943939,114.333336 
	C272.930817,113.262131 272.252380,112.199081 271.268738,110.772316 
	C266.544525,108.134956 261.820312,105.497604 256.774200,102.228287 
	C255.364288,101.493477 253.942032,100.781334 252.546616,100.019936 
	C246.404846,96.668762 240.270813,93.303368 233.816193,89.304070 
	C225.935547,84.853531 218.054916,80.402985 209.850021,75.297653 
	C200.620148,70.183601 191.390289,65.069550 181.841187,59.304405 
	C178.319321,57.425991 174.322845,56.099499 171.369568,53.559883 
	C164.131180,47.335411 157.295471,47.125320 150.197327,53.424076 
	C150.081543,53.526825 150.036072,53.708824 149.336823,53.962971 
	C148.851562,54.280350 148.366302,54.597725 147.973297,54.967678 
	C147.973297,54.967678 147.922440,54.874466 147.273941,54.957611 
	C146.479080,55.614216 145.684235,56.270821 144.971069,56.963894 
	C144.971069,56.963894 144.941971,56.879295 144.472458,56.983707 
	C144.472458,56.983707 144.018967,57.143959 143.518082,57.068295 
	C143.329330,57.332062 143.140564,57.595825 142.301331,57.966091 
	C141.499939,58.622265 140.698547,59.278435 139.974091,59.957729 
	C139.974091,59.957729 139.963181,59.878151 139.340973,59.985733 
	C138.856857,60.299355 138.372726,60.612972 137.936142,60.946739 
	C137.936142,60.946739 137.911804,60.900337 137.185974,60.983036 
	C134.776718,62.321056 132.347839,63.625076 129.961212,65.002304 
	C103.334694,80.367424 76.714706,95.743858 49.209038,111.284546 
	C49.209038,120.400017 49.209038,129.515488 49.209038,139.217285 
	C50.302151,138.775070 51.203789,138.410324 52.832947,138.007996 
	C62.719631,132.360855 72.636612,126.765846 82.480286,121.044701 
	C87.436279,118.164284 92.259224,115.054924 97.590698,111.989807 
	C97.590698,111.989807 98.018616,111.843391 98.550224,111.901886 
	C98.748573,111.616333 98.946922,111.330780 99.580605,111.002617 
	C99.580605,111.002617 99.996162,110.866081 100.662697,110.844154 
	C101.822975,109.913055 102.983246,108.981956 104.582138,107.990768 
	C104.582138,107.990768 105.001465,107.848801 105.664558,107.825447 
	C106.821709,106.899796 107.978859,105.974144 109.860115,104.993073 
	C123.558632,97.202866 137.150574,89.214867 151.020081,81.742035 
	C155.223419,79.477303 158.903778,73.837311 165.654785,78.160667 
	C174.602234,83.387062 183.549698,88.613449 192.525360,93.802261 
	C192.525360,93.802261 192.519791,93.833961 192.795212,94.260132 
	C193.201202,94.464394 193.607208,94.668648 194.660797,95.185745 
	C202.604294,99.733543 210.547806,104.281342 218.517242,108.790405 
	C218.517242,108.790405 218.517258,108.821602 218.789124,109.252869 
	C219.198105,109.460068 219.607071,109.667267 220.672165,110.197769 
	C221.943634,110.802979 223.263687,111.324303 224.478409,112.027512 
	C230.670410,115.612106 236.835175,119.243729 243.423767,122.991379 
	C243.423767,122.991379 243.854843,123.049355 244.094147,123.617653 
	C244.735779,124.039452 245.377426,124.461250 246.666183,125.199562 
	C254.406219,129.478378 262.146240,133.757202 270.126190,138.698685 
	C271.108948,138.478745 272.091675,138.258804 273.003571,138.008194 
	C273.003571,138.008194 273.049622,138.070160 273.650970,137.922363 
M768.659546,93.619827 
	C768.659546,93.619827 768.809753,93.381424 769.300842,93.196655 
	C769.894043,92.500053 770.487183,91.803459 771.072693,91.012779 
	C771.072693,91.012779 771.112610,91.098557 771.786377,91.045975 
	C772.884399,90.405098 773.982422,89.764221 775.963013,89.016289 
	C777.786560,89.011414 779.617065,88.900848 781.432434,89.020515 
	C788.179626,89.465271 793.961609,94.303078 793.826294,100.369881 
	C793.718445,105.206520 795.403931,106.635704 799.844238,106.044418 
	C801.473267,105.827499 803.168335,105.874931 804.810303,106.036331 
	C808.111084,106.360786 809.170593,104.922783 809.071411,101.711311 
	C808.680603,89.063271 797.586365,78.399658 783.707947,77.201874 
	C780.475647,77.174583 777.243347,77.147293 773.289368,77.252419 
	C770.514404,78.457527 767.739380,79.662636 764.251404,80.983215 
	C756.570740,84.586273 752.286926,91.137177 750.087769,98.843796 
	C747.407349,108.236946 747.565918,117.823219 748.796509,127.614426 
	C749.937927,136.695404 752.624329,144.395599 760.152832,150.639130 
	C760.724548,151.107437 761.296265,151.575745 762.102844,152.608902 
	C762.741455,153.027756 763.380066,153.446609 764.689392,154.199799 
	C766.448120,154.966293 768.162537,155.863159 769.972595,156.478836 
	C785.661560,161.815353 804.883240,153.354736 808.633667,136.010406 
	C809.878113,130.255203 809.102173,128.972870 803.080322,128.960953 
	C800.135559,128.955139 797.190796,128.959946 794.381165,128.959946 
	C793.989258,132.017807 794.145691,134.764893 793.248352,137.108459 
	C789.481384,146.946442 777.606567,149.200790 768.889404,141.403488 
	C768.607544,141.225830 768.325623,141.048172 767.916199,140.428040 
	C767.740967,140.146805 767.488770,139.987228 767.066284,139.307358 
	C766.735229,138.816437 766.404236,138.325531 766.007812,137.418213 
	C766.007812,137.418213 765.867126,137.020859 765.761719,136.261597 
	C764.838562,131.356277 763.435181,126.483513 763.099915,121.538353 
	C762.537598,113.242531 762.541138,104.887360 766.065063,96.458427 
	C766.396240,96.024010 766.727417,95.589584 767.552856,94.960411 
	C767.835144,94.549774 768.117371,94.139145 768.659546,93.619827 
M324.986969,77.989220 
	C324.986969,77.989220 324.957336,77.917664 324.173706,78.327713 
	C324.115723,103.579216 324.050293,128.830719 324.040253,154.082230 
	C324.039978,154.750854 324.641754,155.419708 324.981903,156.016815 
	C324.981903,156.016815 324.909424,156.032455 325.324768,156.814575 
	C335.907196,156.876541 346.489594,156.955750 357.072021,156.959610 
	C357.740509,156.959854 358.409180,156.372772 359.893280,156.015411 
	C368.690704,155.476379 375.112122,150.842331 378.778015,143.272202 
	C384.465820,131.526718 379.085693,122.084488 370.717377,113.952187 
	C379.278717,105.605423 378.891205,99.919273 377.145355,94.501266 
	C373.694855,83.792892 366.825684,79.372276 352.999146,78.412804 
	C352.999146,78.412804 352.844604,77.964195 352.589539,77.131477 
	C345.509949,77.086487 338.429535,76.965370 331.351257,77.042503 
	C329.203217,77.065910 327.061188,77.637054 324.986969,77.989220 
M706.837524,155.656616 
	C706.891846,130.749512 706.953613,105.842400 706.960754,80.935295 
	C706.960999,80.263840 706.370850,79.592216 705.634888,78.156738 
	C701.351746,78.184235 697.068665,78.211731 691.944763,78.077965 
	C691.629395,79.052269 691.040710,80.025993 691.038635,81.000977 
	C690.987610,104.890175 690.984924,128.779541 691.041138,152.668716 
	C691.043884,153.846268 691.658386,155.022385 692.398438,156.949142 
	C696.961426,156.673447 701.524414,156.397766 706.837524,155.656616 
M209.665085,161.193344 
	C214.789078,164.081985 219.913071,166.970627 225.674515,170.182068 
	C228.600250,171.958221 231.525970,173.734390 235.091812,175.899139 
	C223.609940,182.667084 213.280594,188.755676 202.320114,194.945557 
	C201.837677,195.282135 201.355240,195.618713 200.309860,196.182999 
	C199.524765,196.737930 198.739685,197.292862 197.324234,197.952866 
	C196.841003,198.287216 196.357773,198.621567 195.427353,199.090622 
	C195.140564,199.270828 194.985931,199.529907 194.237762,199.987946 
	C187.579239,203.733978 180.958649,207.549576 174.251831,211.207062 
	C167.106812,215.103500 160.245255,221.841995 151.623276,213.991287 
	C151.528961,213.905426 151.299911,213.967529 150.946213,213.457855 
	C150.635818,213.355377 150.325439,213.252884 149.537979,213.002716 
	C149.537979,213.002716 149.052582,212.885330 148.763336,212.243729 
	C140.884415,207.811996 133.005493,203.380264 124.803612,198.310989 
	C117.238029,194.191162 109.672447,190.071350 101.807968,185.307373 
	C99.210709,183.686127 96.622101,182.050797 94.013618,180.447815 
	C91.687790,179.018555 89.340004,177.625015 86.610352,175.979691 
	C120.598831,156.431870 153.468399,137.527557 187.135757,118.164406 
	C179.190964,113.761711 172.425125,109.680573 165.331711,106.283371 
	C163.200821,105.262825 159.626434,105.194405 157.618484,106.313675 
	C144.589050,113.576523 131.809540,121.287712 118.298538,128.958954 
	C117.496696,129.616135 116.694862,130.273315 115.978668,130.973129 
	C115.978668,130.973129 115.934105,130.888458 115.205872,130.988739 
	C112.739525,132.223602 110.203598,133.337738 107.817909,134.712570 
	C89.673225,145.168961 71.587906,155.728806 53.403656,166.115616 
	C50.403542,167.829285 48.412922,169.599182 48.939880,173.398590 
	C49.256542,175.681763 48.753883,178.080612 49.088947,180.358414 
	C49.305096,181.827850 50.001675,183.788666 51.123600,184.462311 
	C55.249554,186.939758 59.643032,188.971664 64.210396,191.818344 
	C71.301125,195.822845 78.391853,199.827347 85.511108,203.796066 
	C85.511108,203.796066 85.519501,203.833221 85.795990,204.257721 
	C86.201721,204.462250 86.607452,204.666779 87.660942,205.183060 
	C95.109077,209.406693 102.557213,213.630325 110.652519,218.162949 
	C119.105331,223.062149 127.558151,227.961349 136.722885,232.996033 
	C143.483322,236.947510 150.243744,240.899002 157.432907,244.986481 
	C157.432907,244.986481 157.879059,245.043442 158.114166,245.607269 
	C158.746735,246.030029 159.379303,246.452789 160.668808,246.978729 
	C161.109192,246.942413 161.549561,246.906097 162.602798,246.899521 
	C163.117126,246.283783 163.631454,245.668045 164.771515,244.746780 
	C174.852570,239.124344 184.933640,233.501923 195.708481,227.812729 
	C198.804123,225.826828 201.899780,223.840927 205.499329,221.933136 
	C205.690414,221.666672 205.881500,221.400208 206.773895,221.036224 
	C208.514206,219.977554 210.254532,218.918884 212.600586,217.870621 
	C213.110413,217.262573 213.620239,216.654510 214.847351,215.987610 
	C223.323792,211.322205 231.861389,206.763824 240.261047,201.964035 
	C250.533768,196.093918 260.723663,190.076279 270.876251,184.000168 
	C273.612488,182.362595 274.190704,174.601715 271.636383,172.936111 
	C266.253235,169.425980 260.646210,166.259094 254.811249,162.320953 
	C250.261536,159.526566 245.711823,156.732178 240.969864,153.419708 
	C240.648727,153.320099 240.327576,153.220490 239.533676,152.995529 
	C239.533676,152.995529 239.060196,152.872849 238.741074,152.254135 
	C232.869537,148.821381 226.998016,145.388641 220.831299,141.313217 
	C217.577652,139.197769 214.364944,137.014313 211.041718,135.014496 
	C210.206802,134.512085 208.739197,134.099091 208.033890,134.491821 
	C200.879410,138.475677 193.822769,142.635239 185.830826,147.272278 
	C193.174118,151.487640 199.591949,155.171738 206.426514,158.989532 
	C206.426514,158.989532 206.860382,159.046936 207.098969,159.614395 
	C207.738953,160.036575 208.378952,160.458771 209.665085,161.193344 
M435.002258,77.959450 
	C431.045563,78.012238 427.088898,78.065025 422.239990,78.277504 
	C422.163422,103.716560 422.081238,129.155624 422.050476,154.594727 
	C422.049866,155.101105 422.650269,155.608200 423.405975,156.859619 
	C427.608704,156.855118 431.811401,156.850616 436.848785,156.592087 
	C436.899292,131.183884 436.959229,105.775688 436.954010,80.367485 
	C436.953857,79.618248 436.267609,78.869156 435.002258,77.959450 
M499.069977,155.555817 
	C499.372070,155.650833 499.674164,155.745865 500.444183,156.002914 
	C500.444183,156.002914 500.916626,156.151245 501.318298,156.820526 
	C503.877106,157.157700 506.435944,157.494873 509.879333,157.974716 
	C513.112122,157.645325 516.415039,157.631500 519.565674,156.932159 
	C533.591003,153.819000 543.314392,138.932785 543.829407,128.675858 
	C543.884399,123.527031 544.065369,118.375252 543.944702,113.230545 
	C543.877930,110.383293 543.306519,107.547874 543.051025,104.355911 
	C543.051025,104.355911 542.864258,104.045593 542.942810,103.267960 
	C542.640747,102.129570 542.338623,100.991180 541.991699,99.116325 
	C537.955994,89.378487 532.016418,81.609932 520.876221,78.351227 
	C520.257141,78.278168 519.638000,78.205109 518.309814,78.011536 
	C517.591064,77.989594 516.872314,77.967644 515.713257,77.186554 
	C494.907318,74.224442 478.406128,90.347672 479.934662,110.225952 
	C480.353455,115.672096 479.486359,121.240852 480.150116,126.637634 
	C480.787689,131.821411 481.812683,137.285233 484.171448,141.848572 
	C487.275146,147.852921 491.648315,153.325150 498.967529,155.042404 
	C498.967529,155.042404 498.872162,155.073624 499.069977,155.555817 
M135.076889,176.574448 
	C135.324249,177.153809 135.405884,178.004730 135.843750,178.271927 
	C142.862961,182.555557 149.896011,186.819687 157.023743,190.918091 
	C157.872421,191.406082 159.518723,191.295120 160.414764,190.788620 
	C167.995407,186.503387 175.487595,182.061752 183.464172,177.399460 
	C175.422668,172.991501 167.849426,168.698746 160.107422,164.735733 
	C158.816910,164.075150 156.515411,164.327026 155.153458,165.048721 
	C148.548294,168.548737 142.104172,172.352631 135.076889,176.574448 
z"/>
<path fill="#619CE0" opacity="1.000000" stroke="none" 
	d="
M118.948151,128.852051 
	C131.809540,121.287712 144.589050,113.576523 157.618484,106.313675 
	C159.626434,105.194405 163.200821,105.262825 165.331711,106.283371 
	C172.425125,109.680573 179.190964,113.761711 187.135757,118.164406 
	C153.468399,137.527557 120.598831,156.431870 86.610352,175.979691 
	C89.340004,177.625015 91.687790,179.018555 94.013618,180.447815 
	C96.622101,182.050797 99.210709,183.686127 101.633301,185.770172 
	C94.940590,191.016541 88.668640,196.023529 85.482590,203.831848 
	C78.391853,199.827347 71.301125,195.822845 64.090996,191.098297 
	C65.267906,187.799713 66.064796,184.760193 67.946266,182.721725 
	C76.469910,173.486786 85.314316,164.548431 94.014725,155.475937 
	C100.765854,148.436096 107.502831,141.382019 114.167221,134.260452 
	C115.002968,133.367386 115.356926,132.023483 115.934105,130.888458 
	C115.934105,130.888458 115.978668,130.973129 116.306870,130.965820 
	C117.406090,130.256348 118.177124,129.554199 118.948151,128.852051 
z"/>
<path fill="#7899E6" opacity="1.000000" stroke="none" 
	d="
M97.142334,112.049088 
	C92.259224,115.054924 87.436279,118.164284 82.480286,121.044701 
	C72.636612,126.765846 62.719631,132.360855 52.059006,137.936462 
	C50.856812,136.572418 50.073673,135.284012 50.058712,133.986755 
	C49.970787,126.364723 50.062073,118.740631 50.092953,111.117233 
	C76.714706,95.743858 103.334694,80.367424 129.961212,65.002304 
	C132.347839,63.625076 134.776718,62.321056 137.544128,61.292881 
	C137.046326,62.790184 136.313705,64.094543 135.315750,65.147423 
	C122.191589,78.993912 109.002739,92.779228 95.918648,106.663330 
	C94.561180,108.103790 93.770439,110.078323 92.160347,112.716850 
	C94.672058,112.380188 95.907196,112.214638 97.142334,112.049088 
z"/>
<path fill="#359FD4" opacity="1.000000" stroke="none" 
	d="
M161.989944,246.869797 
	C161.549561,246.906097 161.109192,246.942413 160.284821,246.609406 
	C159.226913,245.841187 158.552994,245.442307 157.879059,245.043442 
	C157.879059,245.043442 157.432907,244.986481 157.218262,244.529846 
	C157.961685,241.922821 158.432449,239.309158 159.961090,237.701233 
	C167.047745,230.246994 174.594681,223.228851 181.644562,215.741730 
	C186.371811,210.721268 190.543274,205.177490 194.963425,199.867859 
	C194.985931,199.529907 195.140564,199.270828 195.972076,199.011597 
	C196.996078,198.570984 197.475342,198.209396 197.954605,197.847778 
	C198.739685,197.292862 199.524765,196.737930 200.912903,196.057861 
	C201.994370,195.569916 202.472809,195.207092 202.951233,194.844269 
	C213.280594,188.755676 223.609940,182.667084 235.091812,175.899139 
	C231.525970,173.734390 228.600250,171.958221 225.501740,169.712936 
	C226.537766,167.344131 227.532257,165.256577 228.999207,163.583206 
	C232.226227,159.902054 235.691925,156.430161 239.060196,152.872849 
	C239.060196,152.872849 239.533676,152.995529 239.907990,153.262451 
	C240.527710,153.768646 240.820969,153.904770 241.162125,153.937790 
	C245.711823,156.732178 250.261536,159.526566 254.618500,162.680542 
	C253.007523,164.136337 251.429245,165.078293 250.198456,166.355194 
	C244.574829,172.189514 239.097015,178.164322 233.477051,184.002258 
	C223.027649,194.856888 212.359253,205.506531 202.127731,216.561447 
	C199.153091,219.775482 197.353134,224.076660 195.014694,227.879501 
	C184.933640,233.501923 174.852570,239.124344 164.134277,244.914093 
	C162.994659,245.677536 162.492310,246.273666 161.989944,246.869797 
z"/>
<path fill="#6E9AE3" opacity="1.000000" stroke="none" 
	d="
M97.366516,112.019447 
	C95.907196,112.214638 94.672058,112.380188 92.160347,112.716850 
	C93.770439,110.078323 94.561180,108.103790 95.918648,106.663330 
	C109.002739,92.779228 122.191589,78.993912 135.315750,65.147423 
	C136.313705,64.094543 137.046326,62.790184 137.907043,61.251534 
	C137.911804,60.900337 137.936142,60.946739 138.229004,60.934166 
	C139.002289,60.573776 139.482727,60.225960 139.963181,59.878151 
	C139.963181,59.878151 139.974091,59.957729 140.305786,59.958950 
	C141.408920,59.259979 142.180374,58.559788 142.951813,57.859596 
	C143.140564,57.595825 143.329330,57.332062 143.884064,57.247314 
	C144.480698,57.243988 144.711334,57.061642 144.941971,56.879295 
	C144.941971,56.879295 144.971069,56.963894 145.299484,56.960762 
	C146.392746,56.263245 147.157593,55.568855 147.922440,54.874466 
	C147.922440,54.874466 147.973297,54.967678 148.246582,54.941242 
	C148.999161,54.561150 149.478470,54.207493 149.957794,53.853836 
	C150.036072,53.708824 150.081543,53.526825 150.197327,53.424076 
	C157.295471,47.125320 164.131180,47.335411 171.369568,53.559883 
	C174.322845,56.099499 178.319321,57.425991 181.608536,59.645187 
	C179.641327,60.766720 177.621033,61.212528 176.231598,62.397854 
	C173.328827,64.874229 170.458420,67.511482 168.156876,70.526978 
	C166.593246,72.575661 166.018951,75.379463 165.002243,77.845581 
	C158.903778,73.837311 155.223419,79.477303 151.020081,81.742035 
	C137.150574,89.214867 123.558632,97.202866 109.149529,105.033005 
	C107.293114,105.998215 106.147285,106.923508 105.001465,107.848801 
	C105.001465,107.848801 104.582138,107.990768 104.012604,108.031380 
	C102.294098,109.003357 101.145134,109.934723 99.996170,110.866089 
	C99.996162,110.866081 99.580605,111.002617 99.134026,111.092377 
	C98.386742,111.323883 98.163795,111.544304 98.018616,111.843391 
	C98.018616,111.843391 97.590698,111.989807 97.366516,112.019447 
z"/>
<path fill="#8A98EB" opacity="1.000000" stroke="none" 
	d="
M353.052612,78.884270 
	C366.825684,79.372276 373.694855,83.792892 377.145355,94.501266 
	C378.891205,99.919273 379.278717,105.605423 370.717377,113.952187 
	C379.085693,122.084488 384.465820,131.526718 378.778015,143.272202 
	C375.112122,150.842331 368.690704,155.476379 359.016724,155.976105 
	C352.429901,155.893555 346.719574,155.850311 340.959839,155.465088 
	C337.900879,151.432220 340.574127,148.362244 342.459778,145.082321 
	C346.235748,145.002808 349.593018,145.319275 352.855011,144.898010 
	C355.961761,144.496796 359.604675,144.137421 361.900330,142.339996 
	C368.642578,137.061066 367.425903,126.884293 359.689484,121.767296 
	C354.951874,121.222946 350.482849,120.994263 346.002014,120.403564 
	C343.411041,113.581779 344.506836,111.934662 351.874084,110.975754 
	C352.916168,110.840118 353.901855,110.270798 354.925598,109.924561 
	C354.937561,109.946907 354.892273,109.925751 355.231873,109.947006 
	C356.375854,109.683838 357.180237,109.399406 358.314484,108.979271 
	C365.391296,102.095596 364.701202,94.553375 356.943726,90.532593 
	C356.217499,89.828896 355.545227,89.439087 354.467285,89.061829 
	C352.709991,89.026199 351.358429,88.978035 349.952026,88.541336 
	C348.143097,84.108025 348.482147,80.775856 353.052612,78.884270 
z"/>
<path fill="#619DDF" opacity="1.000000" stroke="none" 
	d="
M543.049805,129.089401 
	C543.314392,138.932785 533.591003,153.819000 519.565674,156.932159 
	C516.415039,157.631500 513.112122,157.645325 509.347046,157.548828 
	C506.182037,156.799057 503.549347,156.475143 500.916626,156.151245 
	C500.916626,156.151245 500.444183,156.002914 500.077087,155.729919 
	C499.474701,155.233002 499.195435,155.105240 498.872162,155.073624 
	C498.872162,155.073624 498.967529,155.042404 498.962036,154.676086 
	C498.340546,150.348236 496.127045,145.898651 502.513184,143.980072 
	C514.354309,149.766129 525.507751,142.642975 527.368042,132.721924 
	C528.990356,124.069794 529.329529,114.957199 528.654297,106.169563 
	C528.185425,100.067482 525.685791,93.748299 518.851257,90.657288 
	C518.480896,90.236794 518.198730,90.112511 517.876587,90.099701 
	C517.881775,90.108368 517.851013,90.112564 517.676819,89.782669 
	C516.146729,88.966736 514.823792,88.213966 513.429199,88.041832 
	C508.024994,87.374802 506.041962,83.731758 509.521820,79.709282 
	C510.758911,78.279259 513.888123,78.486084 516.153564,77.945694 
	C516.872314,77.967644 517.591064,77.989594 518.859985,78.298683 
	C519.985229,78.708122 520.560303,78.830414 521.135315,78.952705 
	C532.016418,81.609932 537.955994,89.378487 541.764160,99.649841 
	C541.979126,101.470764 542.421692,102.758171 542.864258,104.045593 
	C542.864258,104.045593 543.051025,104.355911 542.931030,105.018127 
	C542.890625,113.483360 542.970215,121.286385 543.049805,129.089401 
z"/>
<path fill="#469FD8" opacity="1.000000" stroke="none" 
	d="
M615.859985,107.008667 
	C615.859985,107.008667 615.999451,107.416550 616.031738,107.953247 
	C616.421387,108.977570 616.778870,109.465195 617.136353,109.952812 
	C617.136353,109.952805 617.050476,109.965996 617.074341,110.246780 
	C617.685913,111.021126 618.273621,111.514694 618.861389,112.008255 
	C618.861389,112.008240 618.999329,112.416153 619.031799,112.952850 
	C619.422180,113.977318 619.780090,114.465103 620.138000,114.952881 
	C620.138000,114.952881 620.052612,114.964485 620.075439,115.245193 
	C620.685486,116.019745 621.272766,116.513596 621.859985,117.007446 
	C621.859985,117.007446 621.998657,117.415733 622.031494,117.952522 
	C622.422424,118.976387 622.780518,119.463463 623.138550,119.950546 
	C623.138550,119.950546 623.051392,119.964821 623.075439,120.245743 
	C623.687622,121.020821 624.275879,121.514977 624.864075,122.009132 
	C624.864075,122.009132 625.001099,122.415733 625.033936,122.953278 
	C625.427368,123.979790 625.787842,124.468765 626.148376,124.957733 
	C627.809814,127.525780 629.471313,130.093826 631.132751,132.661865 
	C631.427673,132.575821 631.722656,132.489777 632.017578,132.403717 
	C632.017578,129.889801 632.017578,127.375885 632.380249,124.142181 
	C632.531372,119.566986 632.319946,115.711563 632.108398,111.856140 
	C632.108398,111.856140 631.955139,111.580322 632.100098,110.947556 
	C632.208679,99.586388 632.172363,88.857971 632.136047,78.129562 
	C636.046448,78.068970 639.956848,78.008369 644.330200,78.487892 
	C644.832581,104.973030 644.871948,130.918045 644.911377,156.863068 
	C636.223145,158.422272 629.674866,156.297058 626.385925,147.144836 
	C624.948242,143.144257 622.340149,139.564316 620.096191,135.121033 
	C618.999390,133.296967 618.069946,132.145233 617.140503,130.993484 
	C617.140503,130.993484 617.000916,130.584366 616.964661,130.019180 
	C615.998657,128.299881 615.068970,127.145752 614.139221,125.991638 
	C614.139221,125.991638 614.000671,125.583038 613.964600,125.018417 
	C612.999634,123.300117 612.070679,122.146454 611.141724,120.992783 
	C611.141724,120.992790 611.003052,120.582787 610.949158,119.948761 
	C610.596497,117.525719 610.006042,115.727699 610.060913,113.949570 
	C610.168823,110.448906 609.322205,106.361099 614.118469,104.907623 
	C614.118469,104.907623 614.034607,104.999756 614.066528,105.263519 
	C614.685669,106.021072 615.272827,106.514870 615.859985,107.008667 
z"/>
<path fill="#30A0D2" opacity="1.000000" stroke="none" 
	d="
M195.361588,227.846115 
	C197.353134,224.076660 199.153091,219.775482 202.127731,216.561447 
	C212.359253,205.506531 223.027649,194.856888 233.477051,184.002258 
	C239.097015,178.164322 244.574829,172.189514 250.198456,166.355194 
	C251.429245,165.078293 253.007523,164.136337 254.778412,162.995728 
	C260.646210,166.259094 266.253235,169.425980 271.636383,172.936111 
	C274.190704,174.601715 273.612488,182.362595 270.876251,184.000168 
	C260.723663,190.076279 250.533768,196.093918 240.261047,201.964035 
	C231.861389,206.763824 223.323792,211.322205 214.167587,216.035629 
	C212.990173,216.675842 212.492523,217.268036 211.994858,217.860199 
	C210.254532,218.918884 208.514206,219.977554 206.300232,220.906616 
	C205.549515,221.136353 205.272476,221.495682 204.995438,221.855026 
	C201.899780,223.840927 198.804123,225.826828 195.361588,227.846115 
z"/>
<path fill="#9398ED" opacity="1.000000" stroke="none" 
	d="
M353.025879,78.648537 
	C348.482147,80.775856 348.143097,84.108025 349.498474,88.582184 
	C345.726349,89.368652 342.352875,89.725723 338.983154,90.032150 
	C338.986908,89.981514 339.088470,89.982552 338.740875,90.229279 
	C338.632172,96.973808 338.871094,103.471619 339.569733,109.970520 
	C344.990875,109.948479 349.952240,109.925339 354.913635,109.902206 
	C353.901855,110.270798 352.916168,110.840118 351.874084,110.975754 
	C344.506836,111.934662 343.411041,113.581779 345.553772,120.467087 
	C337.819702,121.210693 337.834656,119.361374 338.025604,128.075424 
	C338.148956,133.704010 338.698608,139.323273 339.426178,144.968567 
	C340.529907,145.045609 341.264679,145.100769 341.999451,145.155914 
	C340.574127,148.362244 337.900879,151.432220 340.495667,155.531097 
	C335.023743,155.970200 329.966583,156.001328 324.909424,156.032471 
	C324.909424,156.032455 324.981903,156.016815 325.014832,155.579987 
	C325.017609,129.401321 324.987457,103.659492 324.957336,77.917664 
	C324.957336,77.917664 324.986969,77.989220 325.419739,78.055565 
	C334.849884,78.069336 343.847260,78.016762 352.844604,77.964195 
	C352.844604,77.964195 352.999146,78.412804 353.025879,78.648537 
z"/>
<path fill="#509DDB" opacity="1.000000" stroke="none" 
	d="
M614.082520,104.545494 
	C609.322205,106.361099 610.168823,110.448906 610.060913,113.949570 
	C610.006042,115.727699 610.596497,117.525719 610.919983,119.734322 
	C607.152466,114.342209 603.360229,108.530510 599.001709,101.850998 
	C599.001709,107.242058 599.001709,111.628143 598.608765,116.752159 
	C598.173523,130.599075 598.131165,143.708069 598.088806,156.817062 
	C594.195129,156.819794 590.301453,156.822525 586.214478,155.985947 
	C586.021179,129.930878 586.021179,104.715111 586.021179,79.097481 
	C590.684692,79.097481 594.777588,79.097481 598.870544,79.097473 
	C603.929260,87.459442 608.987915,95.821404 614.082520,104.545494 
z"/>
<path fill="#6B9CE2" opacity="1.000000" stroke="none" 
	d="
M515.933411,77.566124 
	C513.888123,78.486084 510.758911,78.279259 509.521820,79.709282 
	C506.041962,83.731758 508.024994,87.374802 513.429199,88.041832 
	C514.823792,88.213966 516.146729,88.966736 517.260376,89.763977 
	C515.690613,90.059677 514.338501,90.203049 513.039551,90.002357 
	C505.762177,88.878006 500.523560,91.775047 496.941071,98.176224 
	C492.808594,105.560135 494.346466,113.483711 493.995209,121.248192 
	C493.602539,129.928070 495.719055,137.708008 502.119781,143.956253 
	C496.127045,145.898651 498.340546,150.348236 498.934448,154.717987 
	C491.648315,153.325150 487.275146,147.852921 484.171448,141.848572 
	C481.812683,137.285233 480.787689,131.821411 480.150116,126.637634 
	C479.486359,121.240852 480.353455,115.672096 479.934662,110.225952 
	C478.406128,90.347672 494.907318,74.224442 515.933411,77.566124 
z"/>
<path fill="#6A9AE2" opacity="1.000000" stroke="none" 
	d="
M115.569992,130.938599 
	C115.356926,132.023483 115.002968,133.367386 114.167221,134.260452 
	C107.502831,141.382019 100.765854,148.436096 94.014725,155.475937 
	C85.314316,164.548431 76.469910,173.486786 67.946266,182.721725 
	C66.064796,184.760193 65.267906,187.799713 63.953724,190.774750 
	C59.643032,188.971664 55.249554,186.939758 51.123600,184.462311 
	C50.001675,183.788666 49.305096,181.827850 49.088947,180.358414 
	C48.753883,178.080612 49.256542,175.681763 48.939880,173.398590 
	C48.412922,169.599182 50.403542,167.829285 53.403656,166.115616 
	C71.587906,155.728806 89.673225,145.168961 107.817909,134.712570 
	C110.203598,133.337738 112.739525,132.223602 115.569992,130.938599 
z"/>
<path fill="#7A9AE6" opacity="1.000000" stroke="none" 
	d="
M423.132202,78.117805 
	C427.088898,78.065025 431.045563,78.012238 435.465149,78.500092 
	C435.956726,104.975861 435.985413,130.910995 436.014099,156.846115 
	C431.811401,156.850616 427.608704,156.855118 423.227844,156.012909 
	C423.077240,129.483414 423.104736,103.800606 423.132202,78.117805 
z"/>
<path fill="#3D9ED6" opacity="1.000000" stroke="none" 
	d="
M194.600586,199.927902 
	C190.543274,205.177490 186.371811,210.721268 181.644562,215.741730 
	C174.594681,223.228851 167.047745,230.246994 159.961090,237.701233 
	C158.432449,239.309158 157.961685,241.922821 157.003906,244.461853 
	C150.243744,240.899002 143.483322,236.947510 136.321198,232.575089 
	C136.272171,230.265274 136.030441,227.907089 137.084549,226.572083 
	C140.835480,221.821579 145.027557,217.419403 149.052582,212.885330 
	C149.052582,212.885330 149.537979,213.002716 149.911987,213.273712 
	C150.524017,213.774200 150.806595,213.912811 151.133759,213.960556 
	C151.299911,213.967529 151.528961,213.905426 151.623276,213.991287 
	C160.245255,221.841995 167.106812,215.103500 174.251831,211.207062 
	C180.958649,207.549576 187.579239,203.733978 194.600586,199.927902 
z"/>
<path fill="#29A3D0" opacity="1.000000" stroke="none" 
	d="
M765.840210,96.966614 
	C762.541138,104.887360 762.537598,113.242531 763.099915,121.538353 
	C763.435181,126.483513 764.838562,131.356277 765.494751,136.580383 
	C762.838745,134.650116 761.488770,135.665100 761.116272,138.419739 
	C760.592041,142.297104 760.334839,146.210587 759.963440,150.108627 
	C752.624329,144.395599 749.937927,136.695404 748.796509,127.614426 
	C747.565918,117.823219 747.407349,108.236946 750.087769,98.843796 
	C752.286926,91.137177 756.570740,84.586273 764.663452,81.335007 
	C765.075989,84.857971 764.987244,88.032608 765.110046,91.199036 
	C765.184875,93.128098 765.585754,95.044518 765.840210,96.966614 
z"/>
<path fill="#619CE0" opacity="1.000000" stroke="none" 
	d="
M165.328522,78.003128 
	C166.018951,75.379463 166.593246,72.575661 168.156876,70.526978 
	C170.458420,67.511482 173.328827,64.874229 176.231598,62.397854 
	C177.621033,61.212528 179.641327,60.766720 181.768158,59.970737 
	C191.390289,65.069550 200.620148,70.183601 209.611420,75.642082 
	C203.356628,76.793205 193.758499,86.947365 192.497147,93.839836 
	C183.549698,88.613449 174.602234,83.387062 165.328522,78.003128 
z"/>
<path fill="#1FA3CE" opacity="1.000000" stroke="none" 
	d="
M760.058105,150.373871 
	C760.334839,146.210587 760.592041,142.297104 761.116272,138.419739 
	C761.488770,135.665100 762.838745,134.650116 765.547424,136.960007 
	C765.867126,137.020859 766.007812,137.418213 766.036804,137.953125 
	C766.430420,138.975128 766.794983,139.462204 767.159607,139.949280 
	C767.488770,139.987228 767.740967,140.146805 767.977661,140.893738 
	C768.376038,141.535370 768.712952,141.711319 769.049805,141.887268 
	C777.606567,149.200790 789.481384,146.946442 793.248352,137.108459 
	C794.145691,134.764893 793.989258,132.017807 794.381165,128.959946 
	C797.190796,128.959946 800.135559,128.955139 803.080322,128.960953 
	C809.102173,128.972870 809.878113,130.255203 808.633667,136.010406 
	C804.883240,153.354736 785.661560,161.815353 769.972595,156.478836 
	C768.162537,155.863159 766.448120,154.966293 764.296265,153.714355 
	C763.224731,152.833939 762.546387,152.438995 761.867981,152.044037 
	C761.296265,151.575745 760.724548,151.107437 760.058105,150.373871 
z"/>
<path fill="#549CDC" opacity="1.000000" stroke="none" 
	d="
M192.511261,93.821045 
	C193.758499,86.947365 203.356628,76.793205 209.773560,75.969482 
	C218.054916,80.402985 225.935547,84.853531 233.654510,89.761902 
	C229.887787,93.753784 226.038345,97.078926 222.770950,100.901573 
	C220.863556,103.133095 219.886765,106.160042 218.491302,108.829132 
	C210.547806,104.281342 202.604294,99.733543 194.288208,94.720032 
	C193.450333,94.114204 192.985062,93.974083 192.519791,93.833961 
	C192.519791,93.833961 192.525360,93.802261 192.511261,93.821045 
z"/>
<path fill="#4A9DDA" opacity="1.000000" stroke="none" 
	d="
M148.907959,212.564529 
	C145.027557,217.419403 140.835480,221.821579 137.084549,226.572083 
	C136.030441,227.907089 136.272171,230.265274 135.965240,232.507355 
	C127.558151,227.961349 119.105331,223.062149 110.328857,217.619568 
	C111.957390,208.457520 119.297684,204.333405 125.126572,198.948532 
	C133.005493,203.380264 140.884415,207.811996 148.907959,212.564529 
z"/>
<path fill="#509DDB" opacity="1.000000" stroke="none" 
	d="
M135.339935,176.311661 
	C142.104172,172.352631 148.548294,168.548737 155.153458,165.048721 
	C156.515411,164.327026 158.816910,164.075150 160.107422,164.735733 
	C167.849426,168.698746 175.422668,172.991501 183.464172,177.399460 
	C175.487595,182.061752 167.995407,186.503387 160.414764,190.788620 
	C159.518723,191.295120 157.872421,191.406082 157.023743,190.918091 
	C149.896011,186.819687 142.862961,182.555557 135.843750,178.271927 
	C135.405884,178.004730 135.324249,177.153809 135.339935,176.311661 
z"/>
<path fill="#489DD9" opacity="1.000000" stroke="none" 
	d="
M218.504272,108.809769 
	C219.886765,106.160042 220.863556,103.133095 222.770950,100.901573 
	C226.038345,97.078926 229.887787,93.753784 233.813400,90.081436 
	C240.270813,93.303368 246.404846,96.668762 252.546616,100.019936 
	C253.942032,100.781334 255.364288,101.493477 256.877869,102.894943 
	C253.319641,107.542320 249.432190,111.345367 246.094849,115.581757 
	C244.521866,117.578506 244.004929,120.407188 243.009476,122.858894 
	C236.835175,119.243729 230.670410,115.612106 224.478409,112.027512 
	C223.263687,111.324303 221.943634,110.802979 220.295013,109.725998 
	C219.451004,109.110016 218.984131,108.965813 218.517258,108.821602 
	C218.517258,108.821602 218.517242,108.790405 218.504272,108.809769 
z"/>
<path fill="#549CDC" opacity="1.000000" stroke="none" 
	d="
M124.965088,198.629761 
	C119.297684,204.333405 111.957390,208.457520 110.005272,217.465057 
	C102.557213,213.630325 95.109077,209.406693 87.288055,204.718109 
	C86.449951,204.113174 85.984726,203.973206 85.519501,203.833221 
	C85.519501,203.833221 85.511108,203.796066 85.496849,203.813965 
	C88.668640,196.023529 94.940590,191.016541 101.782745,186.092255 
	C109.672447,190.071350 117.238029,194.191162 124.965088,198.629761 
z"/>
<path fill="#1FA3CE" opacity="1.000000" stroke="none" 
	d="
M765.952637,96.712524 
	C765.585754,95.044518 765.184875,93.128098 765.110046,91.199036 
	C764.987244,88.032608 765.075989,84.857971 765.020020,81.277267 
	C767.739380,79.662636 770.514404,78.457527 773.953430,77.458405 
	C777.795227,77.758736 780.972961,77.853081 784.150696,77.947426 
	C797.586365,78.399658 808.680603,89.063271 809.071411,101.711311 
	C809.170593,104.922783 808.111084,106.360786 804.810303,106.036331 
	C803.168335,105.874931 801.473267,105.827499 799.844238,106.044418 
	C795.403931,106.635704 793.718445,105.206520 793.826294,100.369881 
	C793.961609,94.303078 788.179626,89.465271 781.432434,89.020515 
	C779.617065,88.900848 777.786560,89.011414 775.330322,88.809769 
	C773.502686,89.435028 772.307617,90.266792 771.112610,91.098557 
	C771.112610,91.098557 771.072693,91.012779 770.727905,91.047577 
	C769.858643,91.848724 769.334167,92.615067 768.809753,93.381416 
	C768.809753,93.381424 768.659546,93.619827 768.221680,93.555984 
	C767.542053,94.046478 767.300293,94.600830 767.058594,95.155167 
	C766.727417,95.589584 766.396240,96.024010 765.952637,96.712524 
z"/>
<path fill="#3D9ED6" opacity="1.000000" stroke="none" 
	d="
M243.216614,122.925140 
	C244.004929,120.407188 244.521866,117.578506 246.094849,115.581757 
	C249.432190,111.345367 253.319641,107.542320 257.038818,103.210922 
	C261.820312,105.497604 266.544525,108.134956 271.601990,111.410904 
	C271.962860,113.870209 271.946960,115.692841 272.026123,117.511322 
	C272.296936,123.732529 272.601105,129.952286 272.892548,136.172592 
	C272.892548,136.172592 273.050720,136.363800 272.928650,136.853333 
	C272.887604,137.585297 272.968628,137.827728 273.049622,138.070160 
	C273.049622,138.070160 273.003571,138.008194 272.642090,137.963181 
	C271.482513,137.957443 270.684387,137.996735 269.886292,138.036011 
	C262.146240,133.757202 254.406219,129.478378 246.286407,124.719727 
	C245.222687,123.843040 244.538773,123.446198 243.854843,123.049355 
	C243.854843,123.049355 243.423767,122.991379 243.216614,122.925140 
z"/>
<path fill="#3D9ED6" opacity="1.000000" stroke="none" 
	d="
M238.900635,152.563492 
	C235.691925,156.430161 232.226227,159.902054 228.999207,163.583206 
	C227.532257,165.256577 226.537766,167.344131 225.183014,169.551544 
	C219.913071,166.970627 214.789078,164.081985 209.285858,160.716309 
	C208.224533,159.841812 207.542465,159.444382 206.860382,159.046936 
	C206.860382,159.046936 206.426514,158.989532 206.223816,158.561859 
	C209.198425,151.006821 214.143295,145.529785 221.126480,141.955887 
	C226.998016,145.388641 232.869537,148.821381 238.900635,152.563492 
z"/>
<path fill="#489DD9" opacity="1.000000" stroke="none" 
	d="
M220.978882,141.634552 
	C214.143295,145.529785 209.198425,151.006821 206.015457,158.495026 
	C199.591949,155.171738 193.174118,151.487640 185.830826,147.272278 
	C193.822769,142.635239 200.879410,138.475677 208.033890,134.491821 
	C208.739197,134.099091 210.206802,134.512085 211.041718,135.014496 
	C214.364944,137.014313 217.577652,139.197769 220.978882,141.634552 
z"/>
<path fill="#F6FBFD" opacity="1.000000" stroke="none" 
	d="
M691.988037,156.199173 
	C691.658386,155.022385 691.043884,153.846268 691.041138,152.668716 
	C690.984924,128.779541 690.987610,104.890175 691.038635,81.000977 
	C691.040710,80.025993 691.629395,79.052269 692.340759,78.274612 
	C692.736755,78.471268 692.849365,78.680374 692.724304,79.163696 
	C692.485779,99.603149 692.383240,119.559341 692.251526,139.515350 
	C692.215332,144.996338 692.092102,150.476776 691.952515,156.013489 
	C691.896301,156.069534 691.988037,156.199173 691.988037,156.199173 
z"/>
<path fill="#C0DBF1" opacity="1.000000" stroke="none" 
	d="
M598.778198,78.661293 
	C594.777588,79.097481 590.684692,79.097481 586.021179,79.097481 
	C586.021179,104.715111 586.021179,129.930878 585.987732,155.619644 
	C585.633362,155.086166 585.034302,154.080276 585.032227,153.073135 
	C584.981445,128.638412 584.992859,104.203522 585.005981,79.768669 
	C585.006226,79.309486 585.161011,78.850372 585.273560,78.225105 
	C589.810059,78.225105 594.247925,78.225105 598.778198,78.661293 
z"/>
<path fill="#F6FBFD" opacity="1.000000" stroke="none" 
	d="
M706.056030,78.920662 
	C706.370850,79.592216 706.960999,80.263840 706.960754,80.935295 
	C706.953613,105.842400 706.891846,130.749512 706.113098,155.832367 
	C705.152832,155.993103 704.916992,155.978119 704.931763,155.561737 
	C705.339783,138.899979 705.486267,122.639519 705.658813,106.379326 
	C705.755554,97.263596 705.895325,88.148331 706.044739,79.011597 
	C706.073730,78.990341 706.056030,78.920654 706.056030,78.920662 
z"/>
<path fill="#DAE3F8" opacity="1.000000" stroke="none" 
	d="
M645.349121,156.771118 
	C644.871948,130.918045 644.832581,104.973030 644.769958,78.567299 
	C645.166992,78.807755 645.954712,79.509079 645.954468,80.210075 
	C645.944092,105.699806 645.860474,131.189484 645.349121,156.771118 
z"/>
<path fill="#DAE3F8" opacity="1.000000" stroke="none" 
	d="
M436.431458,156.719101 
	C435.985413,130.910995 435.956726,104.975861 435.914642,78.580368 
	C436.267609,78.869156 436.953857,79.618248 436.954010,80.367485 
	C436.959229,105.775688 436.899292,131.183884 436.431458,156.719101 
z"/>
<path fill="#EFF3FC" opacity="1.000000" stroke="none" 
	d="
M324.565491,78.122688 
	C324.987457,103.659492 325.017609,129.401321 325.005249,155.615799 
	C324.641754,155.419708 324.039978,154.750854 324.040253,154.082230 
	C324.050293,128.830719 324.115723,103.579216 324.565491,78.122688 
z"/>
<path fill="#EFF3FC" opacity="1.000000" stroke="none" 
	d="
M422.686096,78.197655 
	C423.104736,103.800606 423.077240,129.483414 423.010010,155.640579 
	C422.650269,155.608200 422.049866,155.101105 422.050476,154.594727 
	C422.081238,129.155624 422.163422,103.716560 422.686096,78.197655 
z"/>
<path fill="#A3D4EB" opacity="1.000000" stroke="none" 
	d="
M598.466064,156.702240 
	C598.131165,143.708069 598.173523,130.599075 598.543213,117.208786 
	C599.229553,128.621506 599.633484,140.314514 599.892395,152.010742 
	C599.926025,153.527802 599.211304,155.061432 598.466064,156.702240 
z"/>
<path fill="#F6FBFD" opacity="1.000000" stroke="none" 
	d="
M325.117096,156.423523 
	C329.966583,156.001328 335.023743,155.970200 340.545105,155.873077 
	C346.719574,155.850311 352.429901,155.893555 358.608978,155.997864 
	C358.409180,156.372772 357.740509,156.959854 357.072021,156.959610 
	C346.489594,156.955750 335.907196,156.876541 325.117096,156.423523 
z"/>
<path fill="#EFF3FC" opacity="1.000000" stroke="none" 
	d="
M631.694702,78.219780 
	C632.172363,88.857971 632.208679,99.586388 632.142700,110.795654 
	C631.692139,110.599014 631.039856,109.920914 631.041199,109.244102 
	C631.061462,98.932648 631.167358,88.621338 631.694702,78.219780 
z"/>
<path fill="#C0DBF1" opacity="1.000000" stroke="none" 
	d="
M49.650993,111.200890 
	C50.062073,118.740631 49.970787,126.364723 50.058712,133.986755 
	C50.073673,135.284012 50.856812,136.572418 51.695244,137.955231 
	C51.203789,138.410324 50.302151,138.775070 49.209038,139.217285 
	C49.209038,129.515488 49.209038,120.400017 49.650993,111.200890 
z"/>
<path fill="#F6FBFD" opacity="1.000000" stroke="none" 
	d="
M352.717072,77.547836 
	C343.847260,78.016762 334.849884,78.069336 325.384460,78.039612 
	C327.061188,77.637054 329.203217,77.065910 331.351257,77.042503 
	C338.429535,76.965370 345.509949,77.086487 352.717072,77.547836 
z"/>
<path fill="#C0DBF1" opacity="1.000000" stroke="none" 
	d="
M272.925049,135.685303 
	C272.601105,129.952286 272.296936,123.732529 272.026123,117.511322 
	C271.946960,115.692841 271.962860,113.870209 271.908417,111.590866 
	C272.252380,112.199081 272.930817,113.262131 272.943939,114.333336 
	C273.029144,121.287239 272.969666,128.242905 272.925049,135.685303 
z"/>
<path fill="#EFF3FC" opacity="1.000000" stroke="none" 
	d="
M543.439575,128.882629 
	C542.970215,121.286385 542.890625,113.483360 542.886780,105.193733 
	C543.306519,107.547874 543.877930,110.383293 543.944702,113.230545 
	C544.065369,118.375252 543.884399,123.527031 543.439575,128.882629 
z"/>
<path fill="#6B9CE2" opacity="1.000000" stroke="none" 
	d="
M501.117462,156.485886 
	C503.549347,156.475143 506.182037,156.799057 508.904755,157.477509 
	C506.435944,157.494873 503.877106,157.157700 501.117462,156.485886 
z"/>
<path fill="#A3D4EB" opacity="1.000000" stroke="none" 
	d="
M704.681152,155.963135 
	C704.916992,155.978119 705.152832,155.993103 705.738037,156.065094 
	C701.524414,156.397766 696.961426,156.673447 692.193237,156.574158 
	C691.988037,156.199173 691.896301,156.069534 692.405212,155.918762 
	C696.836487,155.833038 700.758789,155.898087 704.681152,155.963135 
z"/>
<path fill="#A3D4EB" opacity="1.000000" stroke="none" 
	d="
M692.849365,78.680374 
	C692.849365,78.680374 692.736755,78.471268 692.761108,78.355255 
	C697.068665,78.211731 701.351746,78.184235 705.845459,78.538696 
	C706.056030,78.920654 706.073730,78.990341 705.579102,79.028748 
	C701.006042,78.938232 696.927734,78.809303 692.849365,78.680374 
z"/>
<path fill="#A3D4EB" opacity="1.000000" stroke="none" 
	d="
M632.065308,112.330978 
	C632.319946,115.711563 632.531372,119.566986 632.446777,123.708435 
	C632.107849,120.264923 632.065002,116.535370 632.065308,112.330978 
z"/>
<path fill="#29A3D0" opacity="1.000000" stroke="none" 
	d="
M783.929321,77.574646 
	C780.972961,77.853081 777.795227,77.758736 774.314270,77.392204 
	C777.243347,77.147293 780.475647,77.174583 783.929321,77.574646 
z"/>
<path fill="#29A3D0" opacity="1.000000" stroke="none" 
	d="
M771.449463,91.072266 
	C772.307617,90.266792 773.502686,89.435028 774.889038,88.863297 
	C773.982422,89.764221 772.884399,90.405098 771.449463,91.072266 
z"/>
<path fill="#7899E6" opacity="1.000000" stroke="none" 
	d="
M100.329437,110.855118 
	C101.145134,109.934723 102.294098,109.003357 103.793289,108.061417 
	C102.983246,108.981956 101.822975,109.913055 100.329437,110.855118 
z"/>
<path fill="#509DDB" opacity="1.000000" stroke="none" 
	d="
M614.153809,126.324104 
	C615.068970,127.145752 615.998657,128.299881 616.935913,129.804962 
	C616.018372,128.989471 615.093384,127.823021 614.153809,126.324104 
z"/>
<path fill="#7899E6" opacity="1.000000" stroke="none" 
	d="
M105.333008,107.837128 
	C106.147285,106.923508 107.293114,105.998215 108.787476,105.060715 
	C107.978859,105.974144 106.821709,106.899796 105.333008,107.837128 
z"/>
<path fill="#509DDB" opacity="1.000000" stroke="none" 
	d="
M617.156128,131.325623 
	C618.069946,132.145233 618.999390,133.296967 619.938110,134.799164 
	C619.022156,133.985657 618.096985,132.821701 617.156128,131.325623 
z"/>
<path fill="#509DDB" opacity="1.000000" stroke="none" 
	d="
M611.156128,121.325020 
	C612.070679,122.146454 612.999634,123.300117 613.936157,124.804573 
	C613.019287,123.989326 612.094971,122.823296 611.156128,121.325020 
z"/>
<path fill="#EFF3FC" opacity="1.000000" stroke="none" 
	d="
M542.903564,103.656769 
	C542.421692,102.758171 541.979126,101.470764 541.786560,100.018082 
	C542.338623,100.991180 542.640747,102.129570 542.903564,103.656769 
z"/>
<path fill="#6A9AE2" opacity="1.000000" stroke="none" 
	d="
M118.623344,128.905502 
	C118.177124,129.554199 117.406090,130.256348 116.264038,130.944489 
	C116.694862,130.273315 117.496696,129.616135 118.623344,128.905502 
z"/>
<path fill="#7899E6" opacity="1.000000" stroke="none" 
	d="
M147.598190,54.916039 
	C147.157593,55.568855 146.392746,56.263245 145.258636,56.942528 
	C145.684235,56.270821 146.479080,55.614216 147.598190,54.916039 
z"/>
<path fill="#7899E6" opacity="1.000000" stroke="none" 
	d="
M142.626572,57.912842 
	C142.180374,58.559788 141.408920,59.259979 140.267303,59.947388 
	C140.698547,59.278435 141.499939,58.622265 142.626572,57.912842 
z"/>
<path fill="#29A3D0" opacity="1.000000" stroke="none" 
	d="
M769.055298,93.289032 
	C769.334167,92.615067 769.858643,91.848724 770.731689,91.094620 
	C770.487183,91.803459 769.894043,92.500053 769.055298,93.289032 
z"/>
<path fill="#C0DBF1" opacity="1.000000" stroke="none" 
	d="
M270.006226,138.367340 
	C270.684387,137.996735 271.482513,137.957443 272.677521,137.978516 
	C272.091675,138.258804 271.108948,138.478745 270.006226,138.367340 
z"/>
<path fill="#489DD9" opacity="1.000000" stroke="none" 
	d="
M206.979675,159.330658 
	C207.542465,159.444382 208.224533,159.841812 208.962769,160.560104 
	C208.378952,160.458771 207.738953,160.036575 206.979675,159.330658 
z"/>
<path fill="#29A3D0" opacity="1.000000" stroke="none" 
	d="
M761.985413,152.326477 
	C762.546387,152.438995 763.224731,152.833939 763.960938,153.547180 
	C763.380066,153.446609 762.741455,153.027756 761.985413,152.326477 
z"/>
<path fill="#3D9ED6" opacity="1.000000" stroke="none" 
	d="
M157.996613,245.325348 
	C158.552994,245.442307 159.226913,245.841187 159.956360,246.557800 
	C159.379303,246.452789 158.746735,246.030029 157.996613,245.325348 
z"/>
<path fill="#359FD4" opacity="1.000000" stroke="none" 
	d="
M212.297729,217.865417 
	C212.492523,217.268036 212.990173,216.675842 213.808960,216.065063 
	C213.620239,216.654510 213.110413,217.262573 212.297729,217.865417 
z"/>
<path fill="#3D9ED6" opacity="1.000000" stroke="none" 
	d="
M162.296371,246.884659 
	C162.492310,246.273666 162.994659,245.677536 163.821396,245.066864 
	C163.631454,245.668045 163.117126,246.283783 162.296371,246.884659 
z"/>
<path fill="#489DD9" opacity="1.000000" stroke="none" 
	d="
M243.974487,123.333504 
	C244.538773,123.446198 245.222687,123.843040 245.962830,124.561470 
	C245.377426,124.461250 244.735779,124.039452 243.974487,123.333504 
z"/>
<path fill="#509DDB" opacity="1.000000" stroke="none" 
	d="
M624.875549,121.709206 
	C624.275879,121.514977 623.687622,121.020821 623.094727,120.206055 
	C623.689087,120.393379 624.288025,120.901329 624.875549,121.709206 
z"/>
<path fill="#509DDB" opacity="1.000000" stroke="none" 
	d="
M621.870605,116.708031 
	C621.272766,116.513596 620.685486,116.019745 620.092590,115.205688 
	C620.684998,115.393204 621.283081,115.900909 621.870605,116.708031 
z"/>
<path fill="#509DDB" opacity="1.000000" stroke="none" 
	d="
M618.872192,111.708603 
	C618.273621,111.514694 617.685913,111.021126 617.092529,110.207336 
	C617.685608,110.394386 618.284363,110.901665 618.872192,111.708603 
z"/>
<path fill="#509DDB" opacity="1.000000" stroke="none" 
	d="
M615.870361,106.709312 
	C615.272827,106.514870 614.685669,106.021072 614.093140,105.207214 
	C614.685425,105.394760 615.283081,105.902367 615.870361,106.709312 
z"/>
<path fill="#7899E6" opacity="1.000000" stroke="none" 
	d="
M149.647308,53.908401 
	C149.478470,54.207493 148.999161,54.561150 148.200439,54.914955 
	C148.366302,54.597725 148.851562,54.280350 149.647308,53.908401 
z"/>
<path fill="#509DDB" opacity="1.000000" stroke="none" 
	d="
M626.103088,124.635101 
	C625.787842,124.468765 625.427368,123.979790 625.063232,123.165817 
	C625.392395,123.331360 625.725098,123.821915 626.103088,124.635101 
z"/>
<path fill="#359FD4" opacity="1.000000" stroke="none" 
	d="
M205.247375,221.894073 
	C205.272476,221.495682 205.549515,221.136353 205.949554,220.955383 
	C205.881500,221.400208 205.690414,221.666672 205.247375,221.894073 
z"/>
<path fill="#7899E6" opacity="1.000000" stroke="none" 
	d="
M139.652069,59.931938 
	C139.482727,60.225960 139.002289,60.573776 138.205231,60.924091 
	C138.372726,60.612972 138.856857,60.299355 139.652069,59.931938 
z"/>
<path fill="#619CE0" opacity="1.000000" stroke="none" 
	d="
M85.657745,204.045471 
	C85.984726,203.973206 86.449951,204.113174 86.964172,204.562225 
	C86.607452,204.666779 86.201721,204.462250 85.657745,204.045471 
z"/>
<path fill="#6B9CE2" opacity="1.000000" stroke="none" 
	d="
M521.005737,78.651962 
	C520.560303,78.830414 519.985229,78.708122 519.214600,78.358932 
	C519.638000,78.205109 520.257141,78.278168 521.005737,78.651962 
z"/>
<path fill="#3D9ED6" opacity="1.000000" stroke="none" 
	d="
M197.639420,197.900330 
	C197.475342,198.209396 196.996078,198.570984 196.195679,198.944244 
	C196.357773,198.621567 196.841003,198.287216 197.639420,197.900330 
z"/>
<path fill="#3D9ED6" opacity="1.000000" stroke="none" 
	d="
M202.635681,194.894897 
	C202.472809,195.207092 201.994370,195.569916 201.194366,195.944031 
	C201.355240,195.618713 201.837677,195.282135 202.635681,194.894897 
z"/>
<path fill="#619CE0" opacity="1.000000" stroke="none" 
	d="
M192.657501,94.047043 
	C192.985062,93.974083 193.450333,94.114204 193.964401,94.563614 
	C193.607208,94.668648 193.201202,94.464394 192.657501,94.047043 
z"/>
<path fill="#29A3D0" opacity="1.000000" stroke="none" 
	d="
M767.305725,95.057793 
	C767.300293,94.600830 767.542053,94.046478 768.091675,93.610321 
	C768.117371,94.139145 767.835144,94.549774 767.305725,95.057793 
z"/>
<path fill="#549CDC" opacity="1.000000" stroke="none" 
	d="
M218.653198,109.037231 
	C218.984131,108.965813 219.451004,109.110016 219.966965,109.564346 
	C219.607071,109.667267 219.198105,109.460068 218.653198,109.037231 
z"/>
<path fill="#509DDB" opacity="1.000000" stroke="none" 
	d="
M617.094055,109.630829 
	C616.778870,109.465195 616.421387,108.977570 616.061035,108.166786 
	C616.389343,108.332024 616.720520,108.820427 617.094055,109.630829 
z"/>
<path fill="#509DDB" opacity="1.000000" stroke="none" 
	d="
M620.095642,114.630554 
	C619.780090,114.465103 619.422180,113.977318 619.060913,113.166176 
	C619.389526,113.331284 619.721436,113.819756 620.095642,114.630554 
z"/>
<path fill="#29A3D0" opacity="1.000000" stroke="none" 
	d="
M768.969604,141.645386 
	C768.712952,141.711319 768.376038,141.535370 768.041504,141.114960 
	C768.325623,141.048172 768.607544,141.225830 768.969604,141.645386 
z"/>
<path fill="#29A3D0" opacity="1.000000" stroke="none" 
	d="
M767.112915,139.628326 
	C766.794983,139.462204 766.430420,138.975128 766.069519,138.161331 
	C766.404236,138.325531 766.735229,138.816437 767.112915,139.628326 
z"/>
<path fill="#509DDB" opacity="1.000000" stroke="none" 
	d="
M623.096985,119.628113 
	C622.780518,119.463463 622.422424,118.976387 622.061279,118.166061 
	C622.390564,118.330429 622.722961,118.818062 623.096985,119.628113 
z"/>
<path fill="#6B9CE2" opacity="1.000000" stroke="none" 
	d="
M498.971069,155.314728 
	C499.195435,155.105240 499.474701,155.233002 499.843140,155.648911 
	C499.674164,155.745865 499.372070,155.650833 498.971069,155.314728 
z"/>
<path fill="#3D9ED6" opacity="1.000000" stroke="none" 
	d="
M241.065994,153.678741 
	C240.820969,153.904770 240.527710,153.768646 240.144379,153.325134 
	C240.327576,153.220490 240.648727,153.320099 241.065994,153.678741 
z"/>
<path fill="#7899E6" opacity="1.000000" stroke="none" 
	d="
M98.284424,111.872635 
	C98.163795,111.544304 98.386742,111.323883 98.916359,111.113678 
	C98.946922,111.330780 98.748573,111.616333 98.284424,111.872635 
z"/>
<path fill="#4A9DDA" opacity="1.000000" stroke="none" 
	d="
M151.039978,213.709198 
	C150.806595,213.912811 150.524017,213.774200 150.150543,213.347565 
	C150.325439,213.252884 150.635818,213.355377 151.039978,213.709198 
z"/>
<path fill="#7899E6" opacity="1.000000" stroke="none" 
	d="
M144.707214,56.931503 
	C144.711334,57.061642 144.480698,57.243988 144.134521,57.285149 
	C144.018967,57.143959 144.472458,56.983707 144.707214,56.931503 
z"/>
<path fill="#C0DBF1" opacity="1.000000" stroke="none" 
	d="
M273.350281,137.996262 
	C272.968628,137.827728 272.887604,137.585297 272.872681,136.964066 
	C273.176178,137.030975 273.413574,137.476669 273.350281,137.996262 
z"/>
<path fill="#000000" opacity="1.000000" stroke="none" 
	d="
M342.459778,145.082336 
	C341.264679,145.100769 340.529907,145.045609 339.399597,144.505951 
	C339.004028,136.764801 339.004028,129.508118 339.004028,122.082954 
	C346.365112,122.082954 353.161621,122.082954 359.958099,122.082954 
	C367.425903,126.884293 368.642578,137.061066 361.900330,142.339996 
	C359.604675,144.137421 355.961761,144.496796 352.855011,144.898010 
	C349.593018,145.319275 346.235748,145.002808 342.459778,145.082336 
z"/>
<path fill="#000000" opacity="1.000000" stroke="none" 
	d="
M354.925598,109.924561 
	C349.952240,109.925339 344.990875,109.948479 339.518738,109.507126 
	C339.034821,102.689278 339.061646,96.335915 339.088470,89.982552 
	C339.088470,89.982552 338.986908,89.981514 339.451202,89.987709 
	C344.932831,90.032143 349.950165,90.070381 355.070007,90.410049 
	C355.780914,90.756485 356.389313,90.801491 356.997681,90.846489 
	C364.701202,94.553375 365.391296,102.095596 357.967346,108.903954 
	C356.490997,109.284813 355.691650,109.605278 354.892273,109.925751 
	C354.892273,109.925751 354.937561,109.946907 354.925598,109.924561 
z"/>
<path fill="#DAE3F8" opacity="1.000000" stroke="none" 
	d="
M359.689484,121.767296 
	C353.161621,122.082954 346.365112,122.082954 339.004028,122.082954 
	C339.004028,129.508118 339.004028,136.764801 339.030640,144.484085 
	C338.698608,139.323273 338.148956,133.704010 338.025604,128.075424 
	C337.834656,119.361374 337.819702,121.210693 345.565613,120.829094 
	C350.482849,120.994263 354.951874,121.222946 359.689484,121.767296 
z"/>
<path fill="#DAE3F8" opacity="1.000000" stroke="none" 
	d="
M354.967499,90.108620 
	C349.950165,90.070381 344.932831,90.032143 339.447449,90.038345 
	C342.352875,89.725723 345.726349,89.368652 349.553345,88.970726 
	C351.358429,88.978035 352.709991,89.026199 354.491211,89.326485 
	C354.936401,89.755280 354.951965,89.931946 354.967499,90.108620 
z"/>
<path fill="#9398ED" opacity="1.000000" stroke="none" 
	d="
M355.070007,90.410049 
	C354.951965,89.931946 354.936401,89.755280 354.896912,89.313950 
	C355.545227,89.439087 356.217499,89.828896 356.943726,90.532593 
	C356.389313,90.801491 355.780914,90.756485 355.070007,90.410049 
z"/>
<path fill="#9398ED" opacity="1.000000" stroke="none" 
	d="
M355.231873,109.947006 
	C355.691650,109.605278 356.490997,109.284813 357.637512,109.039658 
	C357.180237,109.399406 356.375854,109.683838 355.231873,109.947006 
z"/>
<path fill="#000000" opacity="1.000000" stroke="none" 
	d="
M502.513184,143.980072 
	C495.719055,137.708008 493.602539,129.928070 493.995209,121.248192 
	C494.346466,113.483711 492.808594,105.560135 496.941071,98.176224 
	C500.523560,91.775047 505.762177,88.878006 513.039551,90.002357 
	C514.338501,90.203049 515.690613,90.059677 517.434570,90.093872 
	C517.851013,90.112564 517.881775,90.108368 517.973450,90.345047 
	C518.371704,90.671379 518.678223,90.761032 518.984802,90.850693 
	C525.685791,93.748299 528.185425,100.067482 528.654297,106.169563 
	C529.329529,114.957199 528.990356,124.069794 527.368042,132.721924 
	C525.507751,142.642975 514.354309,149.766129 502.513184,143.980072 
z"/>
<path fill="#6B9CE2" opacity="1.000000" stroke="none" 
	d="
M518.851257,90.657288 
	C518.678223,90.761032 518.371704,90.671379 517.968262,90.336380 
	C518.198730,90.112511 518.480896,90.236794 518.851257,90.657288 
z"/>
<path fill="#DAE3F8" opacity="1.000000" stroke="none" 
	d="
M338.740875,90.229279 
	C339.061646,96.335915 339.034821,102.689278 339.058990,109.506035 
	C338.871094,103.471619 338.632172,96.973808 338.740875,90.229279 
z"/>
<path fill="#38A1D4" opacity="1.000000" stroke="none" 
	d="
M692.724304,79.163696 
	C696.927734,78.809303 701.006042,78.938232 705.550049,79.050003 
	C705.895325,88.148331 705.755554,97.263596 705.658813,106.379326 
	C705.486267,122.639519 705.339783,138.899979 704.931763,155.561737 
	C700.758789,155.898087 696.836487,155.833038 692.461426,155.862717 
	C692.092102,150.476776 692.215332,144.996338 692.251526,139.515350 
	C692.383240,119.559341 692.485779,99.603149 692.724304,79.163696 
z"/>
</svg>