<?xml version="1.0" encoding="UTF-8"?>
<!DOCTYPE svg PUBLIC "-//W3C//DTD SVG 1.1//EN" "http://www.w3.org/Graphics/SVG/1.1/DTD/svg11.dtd">
<svg xmlns="http://www.w3.org/2000/svg" version="1.1" width="500px" height="500px" style="shape-rendering:geometricPrecision; text-rendering:geometricPrecision; image-rendering:optimizeQuality; fill-rule:evenodd; clip-rule:evenodd" xmlns:xlink="http://www.w3.org/1999/xlink">
<g><path style="opacity:1" fill="#fb960f" d="M 348.5,77.5 C 348.821,79.0481 349.821,79.7148 351.5,79.5C 352.035,81.4456 353.368,82.4456 355.5,82.5C 356.643,82.9081 357.643,83.5748 358.5,84.5C 359.55,85.4288 359.55,86.0954 358.5,86.5C 357.5,86.8333 356.833,87.5 356.5,88.5C 356.5,89.8333 355.833,90.5 354.5,90.5C 353.094,90.9731 352.427,91.9731 352.5,93.5C 347.036,99.4647 341.37,105.298 335.5,111C 329.059,109.445 323.059,110.445 317.5,114C 306,127.332 294,140.165 281.5,152.5C 280.5,152.833 279.833,153.5 279.5,154.5C 278.5,154.833 277.833,155.5 277.5,156.5C 271.493,163.506 265.493,170.506 259.5,177.5C 257.416,179.993 257.083,182.66 258.5,185.5C 259.634,187.966 259.801,190.633 259,193.5C 255.298,197.37 251.464,201.037 247.5,204.5C 246.5,204.833 245.833,205.5 245.5,206.5C 244.5,206.833 243.833,207.5 243.5,208.5C 242.164,210.01 240.997,211.677 240,213.5C 239.184,214.823 238.017,215.489 236.5,215.5C 235.5,215.5 234.5,215.5 233.5,215.5C 232.738,213.738 231.404,212.738 229.5,212.5C 220.903,199.586 218.57,185.586 222.5,170.5C 224.213,169.365 224.88,167.698 224.5,165.5C 224.5,165.167 224.5,164.833 224.5,164.5C 225.906,164.027 226.573,163.027 226.5,161.5C 228.369,159.966 229.702,157.966 230.5,155.5C 232.262,154.738 233.262,153.404 233.5,151.5C 236.573,149.431 238.906,146.764 240.5,143.5C 241.5,143.167 242.167,142.5 242.5,141.5C 242.5,140.167 243.167,139.5 244.5,139.5C 246.914,138.089 248.581,136.089 249.5,133.5C 250.167,132.167 251.167,131.167 252.5,130.5C 255.573,128.431 257.906,125.764 259.5,122.5C 260.833,120.5 262.5,118.833 264.5,117.5C 269.562,113.441 273.895,108.774 277.5,103.5C 279.5,100.833 281.833,98.5 284.5,96.5C 289.167,92.5 293.5,88.1667 297.5,83.5C 299.404,83.2624 300.738,82.2624 301.5,80.5C 303.027,80.573 304.027,79.9063 304.5,78.5C 319.016,70.9387 333.683,70.6054 348.5,77.5 Z"/></g>
<g><path style="opacity:0.894" fill="#bc9465" d="M 389.5,75.5 C 387.246,76.4151 385.246,77.7484 383.5,79.5C 384.38,75.8867 386.38,74.5533 389.5,75.5 Z"/></g>
<g><path style="opacity:1" fill="#fb960f" d="M 389.5,75.5 C 391.833,77.1667 393.833,79.1667 395.5,81.5C 397.523,84.5203 400.19,86.8536 403.5,88.5C 404.5,88.8333 405.167,89.5 405.5,90.5C 406.5,92.1667 407.833,93.5 409.5,94.5C 409.833,95.5 410.5,96.1667 411.5,96.5C 415.439,98.4093 415.439,100.409 411.5,102.5C 410.5,102.833 409.833,103.5 409.5,104.5C 393.186,123.455 376.186,141.788 358.5,159.5C 357.5,159.833 356.833,160.5 356.5,161.5C 351.04,168.409 344.04,170.242 335.5,167C 333.416,166.303 331.749,165.136 330.5,163.5C 330.144,161.81 329.144,160.81 327.5,160.5C 325.133,157.32 324.133,153.653 324.5,149.5C 324.287,146.473 324.953,143.807 326.5,141.5C 327.906,141.027 328.573,140.027 328.5,138.5C 328.833,137.5 329.5,136.833 330.5,136.5C 331.5,136.167 332.167,135.5 332.5,134.5C 336.234,131.769 339.234,128.436 341.5,124.5C 342.882,122.451 344.548,120.785 346.5,119.5C 350.566,116.437 353.899,112.771 356.5,108.5C 356.833,107.5 357.5,106.833 358.5,106.5C 361.903,104.1 364.57,101.1 366.5,97.5C 367.833,95.5 369.5,93.8333 371.5,92.5C 372.833,91.8333 373.833,90.8333 374.5,89.5C 377.573,87.4309 379.906,84.7642 381.5,81.5C 381.833,80.5 382.5,79.8333 383.5,79.5C 385.246,77.7484 387.246,76.4151 389.5,75.5 Z"/></g>
<g><path style="opacity:1" fill="#ce9759" d="M 348.5,77.5 C 349.71,77.9321 350.71,78.5987 351.5,79.5C 349.821,79.7148 348.821,79.0481 348.5,77.5 Z"/></g>
<g><path style="opacity:0.984" fill="#b58e65" d="M 304.5,78.5 C 304.027,79.9063 303.027,80.573 301.5,80.5C 301.973,79.0937 302.973,78.427 304.5,78.5 Z"/></g>
<g><path style="opacity:1" fill="#c89255" d="M 351.5,79.5 C 353.23,80.0256 354.564,81.0256 355.5,82.5C 353.368,82.4456 352.035,81.4456 351.5,79.5 Z"/></g>
<g><path style="opacity:0.914" fill="#bd915e" d="M 301.5,80.5 C 300.738,82.2624 299.404,83.2624 297.5,83.5C 298.262,81.7376 299.596,80.7376 301.5,80.5 Z"/></g>
<g><path style="opacity:1" fill="#ca9e6e" d="M 395.5,81.5 C 398.784,83.117 401.451,85.4503 403.5,88.5C 400.19,86.8536 397.523,84.5203 395.5,81.5 Z"/></g>
<g><path style="opacity:0.91" fill="#c1925d" d="M 381.5,81.5 C 379.906,84.7642 377.573,87.4309 374.5,89.5C 376.094,86.2358 378.427,83.5691 381.5,81.5 Z"/></g>
<g><path style="opacity:0.8" fill="#c09d74" d="M 297.5,83.5 C 293.5,88.1667 289.167,92.5 284.5,96.5C 287.833,91.1667 292.167,86.8333 297.5,83.5 Z"/></g>
<g><path style="opacity:0.027" fill="#c8b196" d="M 358.5,86.5 C 358.5,87.8333 357.833,88.5 356.5,88.5C 356.833,87.5 357.5,86.8333 358.5,86.5 Z"/></g>
<g><path style="opacity:0.004" fill="#cfbda7" d="M 405.5,90.5 C 407.833,90.8333 409.167,92.1667 409.5,94.5C 407.833,93.5 406.5,92.1667 405.5,90.5 Z"/></g>
<g><path style="opacity:0.02" fill="#d6c2ac" d="M 354.5,90.5 C 354.573,92.0269 353.906,93.0269 352.5,93.5C 352.427,91.9731 353.094,90.9731 354.5,90.5 Z"/></g>
<g><path style="opacity:0.651" fill="#bea381" d="M 374.5,89.5 C 373.833,90.8333 372.833,91.8333 371.5,92.5C 371.5,90.5 372.5,89.5 374.5,89.5 Z"/></g>
<g><path style="opacity:0.086" fill="#cab59c" d="M 409.5,94.5 C 410.833,94.5 411.5,95.1667 411.5,96.5C 410.5,96.1667 409.833,95.5 409.5,94.5 Z"/></g>
<g><path style="opacity:0.769" fill="#c29b6c" d="M 366.5,97.5 C 364.57,101.1 361.903,104.1 358.5,106.5C 360.43,102.9 363.097,99.8998 366.5,97.5 Z"/></g>
<g><path style="opacity:0.106" fill="#c9b499" d="M 411.5,102.5 C 411.5,103.833 410.833,104.5 409.5,104.5C 409.833,103.5 410.5,102.833 411.5,102.5 Z"/></g>
<g><path style="opacity:0.918" fill="#c49968" d="M 277.5,103.5 C 273.895,108.774 269.562,113.441 264.5,117.5C 268.105,112.226 272.438,107.559 277.5,103.5 Z"/></g>
<g><path style="opacity:0.973" fill="#c18e56" d="M 356.5,108.5 C 353.899,112.771 350.566,116.437 346.5,119.5C 349.101,115.229 352.434,111.563 356.5,108.5 Z"/></g>
<g><path style="opacity:0.839" fill="#c19b6d" d="M 259.5,122.5 C 257.906,125.764 255.573,128.431 252.5,130.5C 254.094,127.236 256.427,124.569 259.5,122.5 Z"/></g>
<g><path style="opacity:0.882" fill="#c29561" d="M 341.5,124.5 C 339.234,128.436 336.234,131.769 332.5,134.5C 334.766,130.564 337.766,127.231 341.5,124.5 Z"/></g>
<g><path style="opacity:0.992" fill="#c3915a" d="M 408.5,131.5 C 406.5,132.5 404.5,133.5 402.5,134.5C 403.804,131.431 405.804,130.431 408.5,131.5 Z"/></g>
<g><path style="opacity:1" fill="#fc960a" d="M 408.5,131.5 C 409.5,131.833 410.167,132.5 410.5,133.5C 410.738,135.404 411.738,136.738 413.5,137.5C 413.427,139.027 414.094,140.027 415.5,140.5C 416.674,141.514 417.34,142.847 417.5,144.5C 417.12,146.698 417.787,148.365 419.5,149.5C 421.734,157.287 422.067,165.287 420.5,173.5C 418.528,176.084 417.528,179.084 417.5,182.5C 415.767,188.305 412.767,193.305 408.5,197.5C 407.5,197.833 406.833,198.5 406.5,199.5C 406.5,200.167 406.167,200.5 405.5,200.5C 404.5,200.833 403.833,201.5 403.5,202.5C 398.559,209.11 392.892,215.11 386.5,220.5C 385.5,220.833 384.833,221.5 384.5,222.5C 379.253,229.417 373.253,235.751 366.5,241.5C 365.094,241.973 364.427,242.973 364.5,244.5C 356.213,254.624 346.546,263.124 335.5,270C 331.371,271.949 327.037,273.116 322.5,273.5C 314.419,273.685 306.419,273.018 298.5,271.5C 295.843,271.065 293.509,270.065 291.5,268.5C 290.738,266.738 289.404,265.738 287.5,265.5C 287.196,264.85 286.863,264.183 286.5,263.5C 287.63,262.378 288.297,261.044 288.5,259.5C 288.833,258.5 289.5,257.833 290.5,257.5C 292.587,256.415 293.92,254.749 294.5,252.5C 296.914,251.089 298.581,249.089 299.5,246.5C 301.262,245.738 302.262,244.404 302.5,242.5C 302.833,241.5 303.5,240.833 304.5,240.5C 305.922,240.25 306.922,239.417 307.5,238C 311.025,237.821 314.359,237.321 317.5,236.5C 319.167,235.833 320.833,235.167 322.5,234.5C 327.5,231.5 331.5,227.5 334.5,222.5C 335.833,220.5 337.5,218.833 339.5,217.5C 343.566,214.437 346.899,210.771 349.5,206.5C 349.833,205.5 350.5,204.833 351.5,204.5C 352.5,204.167 353.167,203.5 353.5,202.5C 356.243,200.761 358.243,198.427 359.5,195.5C 361.167,193.167 363.167,191.167 365.5,189.5C 369.234,186.769 372.234,183.436 374.5,179.5C 374.833,178.5 375.5,177.833 376.5,177.5C 377.5,177.167 378.167,176.5 378.5,175.5C 379.5,175.167 380.167,174.5 380.5,173.5C 384.086,170.344 385.253,166.344 384,161.5C 383.722,160.584 383.222,159.918 382.5,159.5C 382.216,157.585 382.549,155.919 383.5,154.5C 385.833,152.833 387.833,150.833 389.5,148.5C 393.898,145.105 397.564,141.105 400.5,136.5C 400.833,135.5 401.5,134.833 402.5,134.5C 404.5,133.5 406.5,132.5 408.5,131.5 Z"/></g>
<g><path style="opacity:0.961" fill="#c39c70" d="M 410.5,133.5 C 412.262,134.262 413.262,135.596 413.5,137.5C 411.738,136.738 410.738,135.404 410.5,133.5 Z"/></g>
<g><path style="opacity:0.62" fill="#b59c7b" d="M 332.5,134.5 C 332.167,135.5 331.5,136.167 330.5,136.5C 330.5,135.167 331.167,134.5 332.5,134.5 Z"/></g>
<g><path style="opacity:0.875" fill="#c29765" d="M 249.5,133.5 C 248.581,136.089 246.914,138.089 244.5,139.5C 245.419,136.911 247.086,134.911 249.5,133.5 Z"/></g>
<g><path style="opacity:0.886" fill="#c49661" d="M 400.5,136.5 C 397.564,141.105 393.898,145.105 389.5,148.5C 392.436,143.895 396.102,139.895 400.5,136.5 Z"/></g>
<g><path style="opacity:0.737" fill="#bc915b" d="M 413.5,137.5 C 414.906,137.973 415.573,138.973 415.5,140.5C 414.094,140.027 413.427,139.027 413.5,137.5 Z"/></g>
<g><path style="opacity:0.635" fill="#bf9f76" d="M 328.5,138.5 C 328.573,140.027 327.906,141.027 326.5,141.5C 326.427,139.973 327.094,138.973 328.5,138.5 Z"/></g>
<g><path style="opacity:0.576" fill="#b8a081" d="M 242.5,141.5 C 242.167,142.5 241.5,143.167 240.5,143.5C 240.5,142.167 241.167,141.5 242.5,141.5 Z"/></g>
<g><path style="opacity:0.788" fill="#c29e73" d="M 240.5,143.5 C 238.906,146.764 236.573,149.431 233.5,151.5C 235.094,148.236 237.427,145.569 240.5,143.5 Z"/></g>
<g><path style="opacity:1" fill="#c59155" d="M 417.5,144.5 C 418.931,145.78 419.598,147.447 419.5,149.5C 417.787,148.365 417.12,146.698 417.5,144.5 Z"/></g>
<g><path style="opacity:0.902" fill="#c09663" d="M 233.5,151.5 C 233.262,153.404 232.262,154.738 230.5,155.5C 230.738,153.596 231.738,152.262 233.5,151.5 Z"/></g>
<g><path style="opacity:0.016" fill="#d3c4b0" d="M 281.5,152.5 C 281.5,153.833 280.833,154.5 279.5,154.5C 279.833,153.5 280.5,152.833 281.5,152.5 Z"/></g>
<g><path style="opacity:0.678" fill="#bfa17a" d="M 389.5,148.5 C 387.833,150.833 385.833,152.833 383.5,154.5C 384.5,151.5 386.5,149.5 389.5,148.5 Z"/></g>
<g><path style="opacity:0.09" fill="#c4ac8f" d="M 279.5,154.5 C 279.5,155.833 278.833,156.5 277.5,156.5C 277.833,155.5 278.5,154.833 279.5,154.5 Z"/></g>
<g><path style="opacity:1" fill="#d28f41" d="M 230.5,155.5 C 229.702,157.966 228.369,159.966 226.5,161.5C 226.845,158.802 228.178,156.802 230.5,155.5 Z"/></g>
<g><path style="opacity:0.027" fill="#cdb9a1" d="M 358.5,159.5 C 358.5,160.833 357.833,161.5 356.5,161.5C 356.833,160.5 357.5,159.833 358.5,159.5 Z"/></g>
<g><path style="opacity:0.612" fill="#c7a37a" d="M 327.5,160.5 C 329.144,160.81 330.144,161.81 330.5,163.5C 328.856,163.19 327.856,162.19 327.5,160.5 Z"/></g>
<g><path style="opacity:0.42" fill="#c5ac8d" d="M 226.5,161.5 C 226.573,163.027 225.906,164.027 224.5,164.5C 224.427,162.973 225.094,161.973 226.5,161.5 Z"/></g>
<g><path style="opacity:0.718" fill="#c7985f" d="M 382.5,159.5 C 383.222,159.918 383.722,160.584 384,161.5C 385.253,166.344 384.086,170.344 380.5,173.5C 383.364,169.173 384.031,164.506 382.5,159.5 Z"/></g>
<g><path style="opacity:1" fill="#c38f51" d="M 224.5,165.5 C 224.88,167.698 224.213,169.365 222.5,170.5C 222.796,168.597 223.463,166.93 224.5,165.5 Z"/></g>
<g><path style="opacity:0.573" fill="#bfa787" d="M 380.5,173.5 C 380.167,174.5 379.5,175.167 378.5,175.5C 378.5,174.167 379.167,173.5 380.5,173.5 Z"/></g>
<g><path style="opacity:0.643" fill="#b19977" d="M 378.5,175.5 C 378.167,176.5 377.5,177.167 376.5,177.5C 376.5,176.167 377.167,175.5 378.5,175.5 Z"/></g>
<g><path style="opacity:0.851" fill="#bd986e" d="M 420.5,173.5 C 420.072,176.785 419.072,179.785 417.5,182.5C 417.528,179.084 418.528,176.084 420.5,173.5 Z"/></g>
<g><path style="opacity:0.69" fill="#be8f4f" d="M 259.5,177.5 C 258.908,180.127 258.575,182.794 258.5,185.5C 257.083,182.66 257.416,179.993 259.5,177.5 Z"/></g>
<g><path style="opacity:0.855" fill="#c49b6d" d="M 374.5,179.5 C 372.234,183.436 369.234,186.769 365.5,189.5C 367.766,185.564 370.766,182.231 374.5,179.5 Z"/></g>
<g><path style="opacity:0.043" fill="#cab499" d="M 408.5,197.5 C 408.5,198.833 407.833,199.5 406.5,199.5C 406.833,198.5 407.5,197.833 408.5,197.5 Z"/></g>
<g><path style="opacity:0.804" fill="#c19c70" d="M 359.5,195.5 C 358.243,198.427 356.243,200.761 353.5,202.5C 354.757,199.573 356.757,197.239 359.5,195.5 Z"/></g>
<g><path style="opacity:0.012" fill="#c9b49b" d="M 405.5,200.5 C 405.5,201.833 404.833,202.5 403.5,202.5C 403.833,201.5 404.5,200.833 405.5,200.5 Z"/></g>
<g><path style="opacity:0.682" fill="#b59771" d="M 353.5,202.5 C 353.167,203.5 352.5,204.167 351.5,204.5C 351.5,203.167 352.167,202.5 353.5,202.5 Z"/></g>
<g><path style="opacity:0.024" fill="#d2c2ad" d="M 247.5,204.5 C 247.5,205.833 246.833,206.5 245.5,206.5C 245.833,205.5 246.5,204.833 247.5,204.5 Z"/></g>
<g><path style="opacity:0.027" fill="#cebca5" d="M 245.5,206.5 C 245.5,207.833 244.833,208.5 243.5,208.5C 243.833,207.5 244.5,206.833 245.5,206.5 Z"/></g>
<g><path style="opacity:0.741" fill="#caad8a" d="M 229.5,212.5 C 231.404,212.738 232.738,213.738 233.5,215.5C 231.596,215.262 230.262,214.262 229.5,212.5 Z"/></g>
<g><path style="opacity:0.847" fill="#bf925e" d="M 349.5,206.5 C 346.899,210.771 343.566,214.437 339.5,217.5C 342.101,213.229 345.434,209.563 349.5,206.5 Z"/></g>
<g><path style="opacity:1" fill="#c1925c" d="M 233.5,215.5 C 234.5,215.5 235.5,215.5 236.5,215.5C 235.5,218.167 234.5,218.167 233.5,215.5 Z"/></g>
<g><path style="opacity:0.027" fill="#cebba3" d="M 386.5,220.5 C 386.5,221.833 385.833,222.5 384.5,222.5C 384.833,221.5 385.5,220.833 386.5,220.5 Z"/></g>
<g><path style="opacity:1" fill="#fb960f" d="M 199.5,228.5 C 200.514,229.674 201.847,230.34 203.5,230.5C 205.853,231.34 207.853,232.674 209.5,234.5C 210.502,236.011 211.169,237.678 211.5,239.5C 204.005,247.162 196.672,254.996 189.5,263C 181.781,261.285 174.781,262.785 168.5,267.5C 167.094,267.973 166.427,268.973 166.5,270.5C 161.537,277.131 155.87,283.131 149.5,288.5C 148.5,288.833 147.833,289.5 147.5,290.5C 146.094,290.973 145.427,291.973 145.5,293.5C 134.131,305.369 123.297,317.702 113,330.5C 112.503,333.146 112.336,335.813 112.5,338.5C 112.5,340.833 112.5,343.167 112.5,345.5C 105.139,353.862 97.1388,361.528 88.5,368.5C 87.4154,366.413 85.7488,365.08 83.5,364.5C 81.0605,361.957 79.3938,358.957 78.5,355.5C 78.2525,352.146 77.2525,349.146 75.5,346.5C 72.7632,333.937 74.7632,322.27 81.5,311.5C 82.9063,311.027 83.573,310.027 83.5,308.5C 84.9063,308.027 85.573,307.027 85.5,305.5C 87.2624,304.738 88.2624,303.404 88.5,301.5C 88.8333,300.5 89.5,299.833 90.5,299.5C 94.5658,296.437 97.8991,292.771 100.5,288.5C 102.5,285.833 104.833,283.5 107.5,281.5C 110.243,279.761 112.243,277.427 113.5,274.5C 113.833,273.5 114.5,272.833 115.5,272.5C 119.566,269.437 122.899,265.771 125.5,261.5C 126.833,259.5 128.5,257.833 130.5,256.5C 133.903,254.1 136.57,251.1 138.5,247.5C 141.833,243.5 145.5,239.833 149.5,236.5C 151.404,236.262 152.738,235.262 153.5,233.5C 153.842,232.662 154.508,232.328 155.5,232.5C 157.848,232.408 159.514,231.408 160.5,229.5C 169.887,224.867 179.887,223.367 190.5,225C 193.79,225.725 196.79,226.892 199.5,228.5 Z"/></g>
<g><path style="opacity:0.455" fill="#bfa27f" d="M 199.5,228.5 C 201.38,228.229 202.713,228.896 203.5,230.5C 201.847,230.34 200.514,229.674 199.5,228.5 Z"/></g>
<g><path style="opacity:0.988" fill="#c08b50" d="M 160.5,229.5 C 159.514,231.408 157.848,232.408 155.5,232.5C 156.659,230.75 158.326,229.75 160.5,229.5 Z"/></g>
<g><path style="opacity:0.686" fill="#c6a278" d="M 334.5,222.5 C 331.5,227.5 327.5,231.5 322.5,234.5C 326.167,230.167 330.167,226.167 334.5,222.5 Z"/></g>
<g><path style="opacity:0.847" fill="#c09765" d="M 153.5,233.5 C 152.738,235.262 151.404,236.262 149.5,236.5C 150.262,234.738 151.596,233.738 153.5,233.5 Z"/></g>
<g><path style="opacity:1" fill="#cfa77b" d="M 209.5,234.5 C 213.446,235.345 214.112,237.012 211.5,239.5C 211.169,237.678 210.502,236.011 209.5,234.5 Z"/></g>
<g><path style="opacity:0.725" fill="#b48c5d" d="M 317.5,236.5 C 314.359,237.321 311.025,237.821 307.5,238C 306.922,239.417 305.922,240.25 304.5,240.5C 305.109,238.057 306.609,236.39 309,235.5C 311.719,236.444 314.552,236.777 317.5,236.5 Z"/></g>
<g><path style="opacity:0.012" fill="#dccbb7" d="M 366.5,241.5 C 366.573,243.027 365.906,244.027 364.5,244.5C 364.427,242.973 365.094,241.973 366.5,241.5 Z"/></g>
<g><path style="opacity:0.839" fill="#b98f5b" d="M 302.5,242.5 C 302.262,244.404 301.262,245.738 299.5,246.5C 299.738,244.596 300.738,243.262 302.5,242.5 Z"/></g>
<g><path style="opacity:0.902" fill="#c3915a" d="M 299.5,246.5 C 298.581,249.089 296.914,251.089 294.5,252.5C 295.419,249.911 297.086,247.911 299.5,246.5 Z"/></g>
<g><path style="opacity:0.941" fill="#c39561" d="M 138.5,247.5 C 136.57,251.1 133.903,254.1 130.5,256.5C 132.43,252.9 135.097,249.9 138.5,247.5 Z"/></g>
<g><path style="opacity:0.408" fill="#d1d0cf" d="M 187.5,292.5 C 187.5,292.167 187.5,291.833 187.5,291.5C 203.493,292.363 219.493,292.53 235.5,292C 264.682,263.318 293.349,234.151 321.5,204.5C 304.535,202.765 287.535,202.265 270.5,203C 255.218,218.45 239.885,233.617 224.5,248.5C 236.425,235.238 248.758,222.238 261.5,209.5C 264.851,206.152 268.518,203.152 272.5,200.5C 289.459,201.432 306.459,202.099 323.5,202.5C 323.392,204.783 322.559,206.783 321,208.5C 292.833,236.667 264.667,264.833 236.5,293C 220.151,293.722 203.818,293.555 187.5,292.5 Z"/></g>
<g><path style="opacity:0.996" fill="#c08b50" d="M 294.5,252.5 C 293.92,254.749 292.587,256.415 290.5,257.5C 291.08,255.251 292.413,253.585 294.5,252.5 Z"/></g>
<g><path style="opacity:0.749" fill="#cacaca" d="M 224.5,248.5 C 219.379,255.437 213.379,261.437 206.5,266.5C 211.731,260.95 216.898,255.284 222,249.5C 222.671,248.748 223.504,248.414 224.5,248.5 Z"/></g>
<g><path style="opacity:1" fill="#c18f56" d="M 288.5,259.5 C 288.297,261.044 287.63,262.378 286.5,263.5C 286.863,264.183 287.196,264.85 287.5,265.5C 286.244,265.539 285.244,265.039 284.5,264C 285.328,262.008 286.661,260.508 288.5,259.5 Z"/></g>
<g><path style="opacity:0.996" fill="#be915e" d="M 287.5,265.5 C 289.404,265.738 290.738,266.738 291.5,268.5C 289.596,268.262 288.262,267.262 287.5,265.5 Z"/></g>
<g><path style="opacity:0.004" fill="#d5c5b2" d="M 168.5,267.5 C 168.573,269.027 167.906,270.027 166.5,270.5C 166.427,268.973 167.094,267.973 168.5,267.5 Z"/></g>
<g><path style="opacity:0.765" fill="#c2996b" d="M 125.5,261.5 C 122.899,265.771 119.566,269.437 115.5,272.5C 118.101,268.229 121.434,264.563 125.5,261.5 Z"/></g>
<g><path style="opacity:1" fill="#c38d4e" d="M 298.5,271.5 C 306.419,273.018 314.419,273.685 322.5,273.5C 317.015,274.652 311.349,274.818 305.5,274C 302.896,273.61 300.562,272.776 298.5,271.5 Z"/></g>
<g><path style="opacity:0.91" fill="#c4945c" d="M 113.5,274.5 C 112.243,277.427 110.243,279.761 107.5,281.5C 108.757,278.573 110.757,276.239 113.5,274.5 Z"/></g>
<g><path style="opacity:0.69" fill="#bea281" d="M 270.5,280.5 C 269.542,280.047 268.708,279.381 268,278.5C 267.292,279.381 266.458,280.047 265.5,280.5C 265.418,278.748 266.251,277.748 268,277.5C 269.749,277.748 270.582,278.748 270.5,280.5 Z"/></g>
<g><path style="opacity:0.482" fill="#d2d2d2" d="M 206.5,266.5 C 199.239,274.434 191.905,282.434 184.5,290.5C 185.325,291.386 186.325,291.719 187.5,291.5C 187.5,291.833 187.5,292.167 187.5,292.5C 185.833,292.5 184.167,292.5 182.5,292.5C 182.351,291.448 182.517,290.448 183,289.5C 190.397,281.268 198.23,273.602 206.5,266.5 Z"/></g>
<g><path style="opacity:1" fill="#fb960d" d="M 270.5,280.5 C 271.08,282.749 272.413,284.415 274.5,285.5C 274.427,287.027 275.094,288.027 276.5,288.5C 279.341,292.684 281.007,297.351 281.5,302.5C 281.5,308.5 281.5,314.5 281.5,320.5C 280.837,327.32 278.671,333.654 275,339.5C 269.034,347.633 262.201,354.966 254.5,361.5C 253.5,361.833 252.833,362.5 252.5,363.5C 245.195,372.139 237.529,380.473 229.5,388.5C 228.5,388.833 227.833,389.5 227.5,390.5C 220.039,399.795 211.706,408.295 202.5,416C 191.245,422.597 179.245,424.764 166.5,422.5C 164.485,421.076 162.152,420.41 159.5,420.5C 157.447,420.598 155.78,419.931 154.5,418.5C 154.027,417.094 153.027,416.427 151.5,416.5C 151.027,415.094 150.027,414.427 148.5,414.5C 146.355,414.262 144.688,413.262 143.5,411.5C 145.188,409.146 147.188,407.146 149.5,405.5C 150.5,405.167 151.167,404.5 151.5,403.5C 152.5,403.167 153.167,402.5 153.5,401.5C 155.167,400.5 156.5,399.167 157.5,397.5C 161.833,393.833 165.833,389.833 169.5,385.5C 170.5,384.167 171.5,384.167 172.5,385.5C 175.304,386.638 178.304,386.805 181.5,386C 182.056,385.617 182.389,385.117 182.5,384.5C 184.632,384.446 185.965,383.446 186.5,381.5C 186.856,379.81 187.856,378.81 189.5,378.5C 193.566,375.437 196.899,371.771 199.5,367.5C 199.5,366.167 200.167,365.5 201.5,365.5C 205.566,362.437 208.899,358.771 211.5,354.5C 212.167,353.167 213.167,352.167 214.5,351.5C 215.833,350.833 216.833,349.833 217.5,348.5C 220.573,346.431 222.906,343.764 224.5,340.5C 225.5,338.833 226.833,337.5 228.5,336.5C 230.167,335.5 231.5,334.167 232.5,332.5C 234.587,331.415 235.92,329.749 236.5,327.5C 237.5,325.833 238.833,324.5 240.5,323.5C 242.262,322.738 243.262,321.404 243.5,319.5C 245.033,315.028 244.7,310.695 242.5,306.5C 242.453,304.962 243.12,303.962 244.5,303.5C 246.914,302.089 248.581,300.089 249.5,297.5C 250.5,295.833 251.833,294.5 253.5,293.5C 256.243,291.761 258.243,289.427 259.5,286.5C 261.167,284.167 263.167,282.167 265.5,280.5C 266.458,280.047 267.292,279.381 268,278.5C 268.708,279.381 269.542,280.047 270.5,280.5 Z"/></g>
<g><path style="opacity:1" fill="#c69d6f" d="M 270.5,280.5 C 272.587,281.585 273.92,283.251 274.5,285.5C 272.413,284.415 271.08,282.749 270.5,280.5 Z"/></g>
<g><path style="opacity:0.624" fill="#bda07d" d="M 274.5,285.5 C 275.906,285.973 276.573,286.973 276.5,288.5C 275.094,288.027 274.427,287.027 274.5,285.5 Z"/></g>
<g><path style="opacity:0.094" fill="#c7ae91" d="M 149.5,288.5 C 149.5,289.833 148.833,290.5 147.5,290.5C 147.833,289.5 148.5,288.833 149.5,288.5 Z"/></g>
<g><path style="opacity:0.027" fill="#d6c3ad" d="M 147.5,290.5 C 147.573,292.027 146.906,293.027 145.5,293.5C 145.427,291.973 146.094,290.973 147.5,290.5 Z"/></g>
<g><path style="opacity:0.824" fill="#c19c70" d="M 259.5,286.5 C 258.243,289.427 256.243,291.761 253.5,293.5C 254.757,290.573 256.757,288.239 259.5,286.5 Z"/></g>
<g><path style="opacity:0.776" fill="#c1996c" d="M 100.5,288.5 C 97.8991,292.771 94.5658,296.437 90.5,299.5C 93.1009,295.229 96.4342,291.563 100.5,288.5 Z"/></g>
<g><path style="opacity:0.882" fill="#c09462" d="M 249.5,297.5 C 248.581,300.089 246.914,302.089 244.5,303.5C 245.419,300.911 247.086,298.911 249.5,297.5 Z"/></g>
<g><path style="opacity:0.996" fill="#bf8f59" d="M 88.5,301.5 C 88.2624,303.404 87.2624,304.738 85.5,305.5C 85.7376,303.596 86.7376,302.262 88.5,301.5 Z"/></g>
<g><path style="opacity:1" fill="#c18b4d" d="M 85.5,305.5 C 85.573,307.027 84.9063,308.027 83.5,308.5C 83.427,306.973 84.0937,305.973 85.5,305.5 Z"/></g>
<g><path style="opacity:0.749" fill="#b78f61" d="M 83.5,308.5 C 83.573,310.027 82.9063,311.027 81.5,311.5C 81.427,309.973 82.0937,308.973 83.5,308.5 Z"/></g>
<g><path style="opacity:0.518" fill="#bc9c77" d="M 281.5,302.5 C 284.037,308.511 284.037,314.511 281.5,320.5C 281.5,314.5 281.5,308.5 281.5,302.5 Z"/></g>
<g><path style="opacity:0.89" fill="#c29e74" d="M 243.5,319.5 C 243.262,321.404 242.262,322.738 240.5,323.5C 240.738,321.596 241.738,320.262 243.5,319.5 Z"/></g>
<g><path style="opacity:0.89" fill="#be8f59" d="M 236.5,327.5 C 235.92,329.749 234.587,331.415 232.5,332.5C 233.08,330.251 234.413,328.585 236.5,327.5 Z"/></g>
<g><path style="opacity:0.741" fill="#bc9c73" d="M 232.5,332.5 C 231.5,334.167 230.167,335.5 228.5,336.5C 228.833,334.167 230.167,332.833 232.5,332.5 Z"/></g>
<g><path style="opacity:1" fill="#fb960f" d="M 167.5,337.5 C 168.08,339.749 169.413,341.415 171.5,342.5C 172.338,342.842 172.672,343.508 172.5,344.5C 172.5,348.5 172.5,352.5 172.5,356.5C 171.072,361.606 168.072,365.606 163.5,368.5C 162.5,368.833 161.833,369.5 161.5,370.5C 154.53,379.412 146.863,387.745 138.5,395.5C 137.5,395.833 136.833,396.5 136.5,397.5C 128.853,407.121 120.52,416.121 111.5,424.5C 109.784,424.371 108.117,424.038 106.5,423.5C 101.452,419.119 96.7852,414.452 92.5,409.5C 92.0269,408.094 91.0269,407.427 89.5,407.5C 88.4489,406.778 87.7822,405.778 87.5,404.5C 86.4728,402.816 85.4728,401.149 84.5,399.5C 87.8333,398.167 90.1667,395.833 91.5,392.5C 93.5482,389.785 95.8816,387.452 98.5,385.5C 101.903,383.1 104.57,380.1 106.5,376.5C 107.5,374.833 108.833,373.5 110.5,372.5C 114.594,369.411 117.928,365.745 120.5,361.5C 121.5,359.833 122.833,358.5 124.5,357.5C 125.5,357.167 126.167,356.5 126.5,355.5C 126.5,354.167 127.167,353.5 128.5,353.5C 130.914,352.089 132.581,350.089 133.5,347.5C 134.5,345.833 135.833,344.5 137.5,343.5C 140.167,341.5 142.5,339.167 144.5,336.5C 146.027,336.573 147.027,335.906 147.5,334.5C 153.425,331.869 159.425,332.035 165.5,335C 166.381,335.708 167.047,336.542 167.5,337.5 Z"/></g>
<g><path style="opacity:0.863" fill="#bf996a" d="M 147.5,334.5 C 147.027,335.906 146.027,336.573 144.5,336.5C 144.973,335.094 145.973,334.427 147.5,334.5 Z"/></g>
<g><path style="opacity:1" fill="#c19462" d="M 167.5,337.5 C 169.587,338.585 170.92,340.251 171.5,342.5C 169.413,341.415 168.08,339.749 167.5,337.5 Z"/></g>
<g><path style="opacity:0.749" fill="#c2a47e" d="M 144.5,336.5 C 142.5,339.167 140.167,341.5 137.5,343.5C 138.833,340.167 141.167,337.833 144.5,336.5 Z"/></g>
<g><path style="opacity:1" fill="#ca9d6a" d="M 112.5,338.5 C 113.249,339.531 113.915,340.698 114.5,342C 113.915,343.302 113.249,344.469 112.5,345.5C 112.5,343.167 112.5,340.833 112.5,338.5 Z"/></g>
<g><path style="opacity:0.945" fill="#c09058" d="M 224.5,340.5 C 222.906,343.764 220.573,346.431 217.5,348.5C 219.094,345.236 221.427,342.569 224.5,340.5 Z"/></g>
<g><path style="opacity:0.89" fill="#c39662" d="M 133.5,347.5 C 132.581,350.089 130.914,352.089 128.5,353.5C 129.419,350.911 131.086,348.911 133.5,347.5 Z"/></g>
<g><path style="opacity:0.627" fill="#bfa27e" d="M 217.5,348.5 C 216.833,349.833 215.833,350.833 214.5,351.5C 214.5,349.5 215.5,348.5 217.5,348.5 Z"/></g>
<g><path style="opacity:0.996" fill="#ca9967" d="M 172.5,344.5 C 175.167,348.5 175.167,352.5 172.5,356.5C 172.5,352.5 172.5,348.5 172.5,344.5 Z"/></g>
<g><path style="opacity:0.69" fill="#b99872" d="M 75.5,346.5 C 77.2525,349.146 78.2525,352.146 78.5,355.5C 76.7475,352.854 75.7475,349.854 75.5,346.5 Z"/></g>
<g><path style="opacity:0.608" fill="#ba9f7c" d="M 126.5,355.5 C 126.167,356.5 125.5,357.167 124.5,357.5C 124.5,356.167 125.167,355.5 126.5,355.5 Z"/></g>
<g><path style="opacity:0.745" fill="#c39c6e" d="M 211.5,354.5 C 208.899,358.771 205.566,362.437 201.5,365.5C 204.101,361.229 207.434,357.563 211.5,354.5 Z"/></g>
<g><path style="opacity:0.031" fill="#cab499" d="M 254.5,361.5 C 254.5,362.833 253.833,363.5 252.5,363.5C 252.833,362.5 253.5,361.833 254.5,361.5 Z"/></g>
<g><path style="opacity:0.902" fill="#c8a882" d="M 83.5,364.5 C 85.7488,365.08 87.4154,366.413 88.5,368.5C 86.2512,367.92 84.5846,366.587 83.5,364.5 Z"/></g>
<g><path style="opacity:0.733" fill="#c59a68" d="M 120.5,361.5 C 117.928,365.745 114.594,369.411 110.5,372.5C 113.101,368.229 116.434,364.563 120.5,361.5 Z"/></g>
<g><path style="opacity:0.047" fill="#c7b094" d="M 163.5,368.5 C 163.5,369.833 162.833,370.5 161.5,370.5C 161.833,369.5 162.5,368.833 163.5,368.5 Z"/></g>
<g><path style="opacity:0.898" fill="#c49157" d="M 199.5,367.5 C 196.899,371.771 193.566,375.437 189.5,378.5C 192.101,374.229 195.434,370.563 199.5,367.5 Z"/></g>
<g><path style="opacity:0.992" fill="#c1905b" d="M 106.5,376.5 C 104.57,380.1 101.903,383.1 98.5,385.5C 100.43,381.9 103.097,378.9 106.5,376.5 Z"/></g>
<g><path style="opacity:0.91" fill="#c5945b" d="M 186.5,381.5 C 185.965,383.446 184.632,384.446 182.5,384.5C 183.436,383.026 184.77,382.026 186.5,381.5 Z"/></g>
<g><path style="opacity:1" fill="#c08d4f" d="M 182.5,384.5 C 182.389,385.117 182.056,385.617 181.5,386C 178.304,386.805 175.304,386.638 172.5,385.5C 175.902,385.658 179.236,385.324 182.5,384.5 Z"/></g>
<g><path style="opacity:0.871" fill="#c29d70" d="M 169.5,385.5 C 165.833,389.833 161.833,393.833 157.5,397.5C 160.5,392.5 164.5,388.5 169.5,385.5 Z"/></g>
<g><path style="opacity:0.008" fill="#d5c4b0" d="M 229.5,388.5 C 229.5,389.833 228.833,390.5 227.5,390.5C 227.833,389.5 228.5,388.833 229.5,388.5 Z"/></g>
<g><path style="opacity:0.071" fill="#cab49b" d="M 138.5,395.5 C 138.5,396.833 137.833,397.5 136.5,397.5C 136.833,396.5 137.5,395.833 138.5,395.5 Z"/></g>
<g><path style="opacity:0.765" fill="#c69a68" d="M 91.5,392.5 C 90.1667,395.833 87.8333,398.167 84.5,399.5C 86.5,396.833 88.8333,394.5 91.5,392.5 Z"/></g>
<g><path style="opacity:0.631" fill="#bca588" d="M 157.5,397.5 C 156.5,399.167 155.167,400.5 153.5,401.5C 153.833,399.167 155.167,397.833 157.5,397.5 Z"/></g>
<g><path style="opacity:0.867" fill="#cb9a63" d="M 84.5,399.5 C 85.4728,401.149 86.4728,402.816 87.5,404.5C 84.1789,403.902 83.1789,402.235 84.5,399.5 Z"/></g>
<g><path style="opacity:0.62" fill="#bba07d" d="M 153.5,401.5 C 153.167,402.5 152.5,403.167 151.5,403.5C 151.5,402.167 152.167,401.5 153.5,401.5 Z"/></g>
<g><path style="opacity:0.565" fill="#bfa88a" d="M 151.5,403.5 C 151.167,404.5 150.5,405.167 149.5,405.5C 149.5,404.167 150.167,403.5 151.5,403.5 Z"/></g>
<g><path style="opacity:0.839" fill="#c3a178" d="M 89.5,407.5 C 91.0269,407.427 92.0269,408.094 92.5,409.5C 90.9731,409.573 89.9731,408.906 89.5,407.5 Z"/></g>
<g><path style="opacity:0.69" fill="#c09664" d="M 148.5,414.5 C 150.027,414.427 151.027,415.094 151.5,416.5C 149.973,416.573 148.973,415.906 148.5,414.5 Z"/></g>
<g><path style="opacity:0.525" fill="#bda07f" d="M 151.5,416.5 C 153.027,416.427 154.027,417.094 154.5,418.5C 152.973,418.573 151.973,417.906 151.5,416.5 Z"/></g>
<g><path style="opacity:0.796" fill="#bc8d53" d="M 159.5,420.5 C 162.152,420.41 164.485,421.076 166.5,422.5C 163.848,422.59 161.515,421.924 159.5,420.5 Z"/></g>
<g><path style="opacity:1" fill="#c99760" d="M 106.5,423.5 C 108.117,424.038 109.784,424.371 111.5,424.5C 109.543,427.059 107.877,426.726 106.5,423.5 Z"/></g>
</svg>
