<svg version="1.1" id="Layer_1" xmlns="http://www.w3.org/2000/svg" xmlns:xlink="http://www.w3.org/1999/xlink" x="0px" y="0px"
	 width="100%" viewBox="0 0 60 60" enable-background="new 0 0 60 60" xml:space="preserve">
<path fill="#000000" opacity="1.000000" stroke="none" 
	d="
M42.001724,61.000000 
	C28.001308,61.000000 14.501357,61.000000 1.001055,61.000000 
	C1.000703,41.000542 1.000703,21.001083 1.000352,1.001218 
	C20.999386,1.000812 40.998772,1.000812 60.998619,1.000406 
	C60.999077,20.999313 60.999077,40.998627 60.999538,60.998970 
	C54.834064,61.000000 48.668129,61.000000 42.001724,61.000000 
M53.774933,20.278921 
	C52.218636,19.502693 50.662342,18.726465 48.777489,17.328270 
	C46.533661,16.180195 44.289837,15.032118 41.731289,13.276596 
	C39.524464,12.168493 37.317635,11.060390 34.784004,9.328233 
	C33.451988,8.531734 32.119976,7.735236 30.855581,6.979172 
	C27.111736,9.351415 23.535549,11.617423 19.234104,13.998007 
	C15.703093,15.949357 12.296186,18.188231 8.609724,19.779438 
	C3.978511,21.778437 3.127990,25.059418 4.420480,29.868034 
	C8.367708,27.234287 12.204097,24.674496 16.772551,22.006386 
	C21.511110,19.594936 26.249670,17.183489 31.697956,14.922140 
	C33.761951,15.961198 35.825951,17.000256 38.221767,18.658146 
	C40.446297,19.787367 42.670822,20.916588 45.211380,22.656437 
	C47.140438,23.715588 49.069492,24.774736 51.655342,26.155941 
	C53.595585,27.133085 55.535831,28.110228 57.768738,29.234762 
	C58.105682,25.245844 58.802422,21.774014 53.774933,20.278921 
M15.185774,46.686668 
	C17.440456,47.827087 19.695137,48.967506 22.247868,50.751244 
	C24.343447,51.783161 26.439028,52.815075 28.919199,54.360359 
	C29.955576,54.689163 31.309902,55.606995 31.975002,55.247982 
	C35.426529,53.384895 38.702194,51.196014 42.756176,48.999180 
	C45.431885,47.549164 48.189751,46.229668 50.759872,44.611900 
	C53.258953,43.038849 55.565624,41.160107 57.956787,39.415596 
	C55.422825,37.329063 52.897152,35.232224 50.338928,33.175877 
	C50.137516,33.013973 49.709576,33.133881 49.032482,32.595291 
	C45.435612,29.491970 41.835289,26.420105 37.009514,31.698463 
	C40.391418,33.538700 43.671577,35.323570 47.157730,37.665871 
	C46.770039,38.515423 46.382347,39.364975 45.319408,40.329487 
	C40.545349,42.941288 35.771290,45.553089 30.291260,48.016083 
	C28.564657,47.328373 26.838053,46.640663 24.783411,45.332752 
	C22.536903,44.183357 20.290394,43.033962 17.764931,41.261089 
	C16.193514,40.472210 14.622096,39.683331 13.276368,38.272945 
	C14.865429,37.220337 16.454491,36.167725 18.768122,35.008156 
	C24.824272,31.576168 30.880423,28.144180 36.936573,24.712193 
	C36.969917,24.266613 37.003258,23.821033 37.036602,23.375454 
	C34.440655,22.910120 31.618935,21.585493 29.304993,22.193466 
	C26.303946,22.981972 23.707293,25.309601 20.274620,27.223635 
	C15.565022,29.941959 10.844725,32.641972 6.149583,35.385040 
	C3.013809,37.217072 3.076483,39.883904 6.273164,41.752953 
	C7.500520,42.470566 8.755633,43.140705 10.626364,44.128357 
	C12.049162,44.769852 13.471960,45.411343 15.185774,46.686668 
M34.493118,37.921593 
	C29.367167,34.843082 27.962521,35.079132 25.191435,39.484730 
	C31.711397,42.922974 32.879189,42.757492 34.493118,37.921593 
z"/>
<path fill="#6599E1" opacity="1.000000" stroke="none" 
	d="
M18.043550,35.115112 
	C16.454491,36.167725 14.865429,37.220337 12.994431,38.864632 
	C11.807694,40.915039 10.902896,42.373756 9.998096,43.832478 
	C8.755633,43.140705 7.500520,42.470566 6.273164,41.752953 
	C3.076483,39.883904 3.013809,37.217072 6.149583,35.385040 
	C10.844725,32.641972 15.565022,29.941959 20.799614,27.354790 
	C20.230923,30.028999 19.137236,32.572056 18.043550,35.115112 
z"/>
<path fill="#2F9ED2" opacity="1.000000" stroke="none" 
	d="
M49.386913,33.122822 
	C49.709576,33.133881 50.137516,33.013973 50.338928,33.175877 
	C52.897152,35.232224 55.422825,37.329063 57.956787,39.415596 
	C55.565624,41.160107 53.258953,43.038849 50.759872,44.611900 
	C48.189751,46.229668 45.431885,47.549164 42.456169,48.704620 
	C43.435661,45.678211 44.715157,42.946369 45.994659,40.214523 
	C46.382347,39.364975 46.770039,38.515423 47.257256,37.054901 
	C48.033489,35.336895 48.710201,34.229858 49.386913,33.122822 
z"/>
<path fill="#6F99E4" opacity="1.000000" stroke="none" 
	d="
M19.959364,13.883430 
	C23.535549,11.617423 27.111736,9.351415 30.855581,6.979172 
	C32.119976,7.735236 33.451988,8.531734 34.668419,9.808077 
	C33.364632,11.782626 32.176430,13.277331 30.988228,14.772039 
	C26.249670,17.183489 21.511110,19.594936 16.473343,21.713060 
	C17.435879,18.907635 18.697620,16.395533 19.959364,13.883430 
z"/>
<path fill="#7798E6" opacity="1.000000" stroke="none" 
	d="
M19.596733,13.940720 
	C18.697620,16.395533 17.435879,18.907635 16.107311,21.767220 
	C12.204097,24.674496 8.367708,27.234287 4.420480,29.868034 
	C3.127990,25.059418 3.978511,21.778437 8.609724,19.779438 
	C12.296186,18.188231 15.703093,15.949357 19.596733,13.940720 
z"/>
<path fill="#359DD4" opacity="1.000000" stroke="none" 
	d="
M45.657032,40.272003 
	C44.715157,42.946369 43.435661,45.678211 42.097649,48.765343 
	C38.702194,51.196014 35.426529,53.384895 31.975002,55.247982 
	C31.309902,55.606995 29.955576,54.689163 28.923130,53.754124 
	C29.617115,51.486889 30.307171,49.825886 30.997227,48.164886 
	C35.771290,45.553089 40.545349,42.941288 45.657032,40.272003 
z"/>
<path fill="#5C99DE" opacity="1.000000" stroke="none" 
	d="
M18.405836,35.061634 
	C19.137236,32.572056 20.230923,30.028999 21.130583,27.230309 
	C23.707293,25.309601 26.303946,22.981972 29.304993,22.193466 
	C31.618935,21.585493 34.440655,22.910120 37.036602,23.375454 
	C37.003258,23.821033 36.969917,24.266613 36.936573,24.712193 
	C30.880423,28.144180 24.824272,31.576168 18.405836,35.061634 
z"/>
<path fill="#419CD7" opacity="1.000000" stroke="none" 
	d="
M49.209698,32.859055 
	C48.710201,34.229858 48.033489,35.336895 47.154259,36.776184 
	C43.671577,35.323570 40.391418,33.538700 37.009514,31.698463 
	C41.835289,26.420105 45.435612,29.491970 49.209698,32.859055 
z"/>
<path fill="#5E99DE" opacity="1.000000" stroke="none" 
	d="
M31.343090,14.847089 
	C32.176430,13.277331 33.364632,11.782626 34.831821,10.120105 
	C37.317635,11.060390 39.524464,12.168493 41.806702,13.921221 
	C40.551395,15.723668 39.220669,16.881491 37.889946,18.039314 
	C35.825951,17.000256 33.761951,15.961198 31.343090,14.847089 
z"/>
<path fill="#439CD7" opacity="1.000000" stroke="none" 
	d="
M30.644243,48.090485 
	C30.307171,49.825886 29.617115,51.486889 28.730833,53.497440 
	C26.439028,52.815075 24.343447,51.783161 22.244667,50.128712 
	C23.198128,48.321770 24.154789,47.137363 25.111450,45.952953 
	C26.838053,46.640663 28.564657,47.328373 30.644243,48.090485 
z"/>
<path fill="#4A9BD9" opacity="1.000000" stroke="none" 
	d="
M34.841629,37.994728 
	C32.879189,42.757492 31.711397,42.922974 25.191435,39.484730 
	C27.962521,35.079132 29.367167,34.843082 34.841629,37.994728 
z"/>
<path fill="#4F9ADB" opacity="1.000000" stroke="none" 
	d="
M24.947430,45.642853 
	C24.154789,47.137363 23.198128,48.321770 22.095644,49.807053 
	C19.695137,48.967506 17.440456,47.827087 15.329279,46.191650 
	C16.329817,44.425945 17.186852,43.155254 18.043884,41.884567 
	C20.290394,43.033962 22.536903,44.183357 24.947430,45.642853 
z"/>
<path fill="#529BDC" opacity="1.000000" stroke="none" 
	d="
M38.055855,18.348730 
	C39.220669,16.881491 40.551395,15.723668 41.964066,14.224943 
	C44.289837,15.032118 46.533661,16.180195 48.659065,17.810848 
	C47.325542,19.544220 46.110447,20.795015 44.895351,22.045811 
	C42.670822,20.916588 40.446297,19.787367 38.055855,18.348730 
z"/>
<path fill="#469CD8" opacity="1.000000" stroke="none" 
	d="
M45.053368,22.351124 
	C46.110447,20.795015 47.325542,19.544220 48.823341,18.121832 
	C50.662342,18.726465 52.218636,19.502693 53.743896,20.867296 
	C52.808090,22.915077 51.903320,24.374483 50.998550,25.833887 
	C49.069492,24.774736 47.140438,23.715588 45.053368,22.351124 
z"/>
<path fill="#5B9BDF" opacity="1.000000" stroke="none" 
	d="
M17.904408,41.572830 
	C17.186852,43.155254 16.329817,44.425945 15.183770,45.874733 
	C13.471960,45.411343 12.049162,44.769852 10.312230,43.980415 
	C10.902896,42.373756 11.807694,40.915039 12.881586,39.175388 
	C14.622096,39.683331 16.193514,40.472210 17.904408,41.572830 
z"/>
<path fill="#3C9DD6" opacity="1.000000" stroke="none" 
	d="
M51.326946,25.994915 
	C51.903320,24.374483 52.808090,22.915077 53.881836,21.174459 
	C58.802422,21.774014 58.105682,25.245844 57.768738,29.234762 
	C55.535831,28.110228 53.595585,27.133085 51.326946,25.994915 
z"/>
</svg>