<?xml version="1.0" encoding="UTF-8"?>
<!DOCTYPE svg PUBLIC "-//W3C//DTD SVG 1.1//EN" "http://www.w3.org/Graphics/SVG/1.1/DTD/svg11.dtd">
<svg xmlns="http://www.w3.org/2000/svg" version="1.1" width="60px" height="60px" style="shape-rendering:geometricPrecision; text-rendering:geometricPrecision; image-rendering:optimizeQuality; fill-rule:evenodd; clip-rule:evenodd" xmlns:xlink="http://www.w3.org/1999/xlink">
<g><path style="opacity:0.942" fill="#6f9ae3" d="M 34.5,8.5 C 33.925,10.4113 32.925,12.078 31.5,13.5C 30.8501,13.1961 30.1835,12.8627 29.5,12.5C 25.272,15.1127 20.9386,17.446 16.5,19.5C 19.8782,16.1239 22.8782,12.4572 25.5,8.5C 28.3793,5.94711 31.3793,5.94711 34.5,8.5 Z"/></g>
<g><path style="opacity:0.943" fill="#7c9de6" d="M 25.5,8.5 C 22.8782,12.4572 19.8782,16.1239 16.5,19.5C 13.039,22.0692 9.37229,24.4026 5.5,26.5C 8.76828,21.8927 12.4349,17.5594 16.5,13.5C 19.0078,11.0764 22.0078,9.40975 25.5,8.5 Z"/></g>
<g><path style="opacity:0.937" fill="#649cdf" d="M 34.5,8.5 C 36.6705,10.0862 39.0038,11.4196 41.5,12.5C 40.2485,14.0009 39.2485,15.6675 38.5,17.5C 35.9684,16.4043 33.6351,15.0709 31.5,13.5C 32.925,12.078 33.925,10.4113 34.5,8.5 Z"/></g>
<g><path style="opacity:0.932" fill="#839ee7" d="M 16.5,13.5 C 12.4349,17.5594 8.76828,21.8927 5.5,26.5C 4.54163,26.9528 3.7083,27.6195 3,28.5C 2.1816,25.7728 2.34827,23.1062 3.5,20.5C 7.72803,17.8873 12.0614,15.554 16.5,13.5 Z"/></g>
<g><path style="opacity:0.994" fill="#54a0da" d="M 41.5,12.5 C 46.1393,15.1548 50.806,17.8215 55.5,20.5C 56.8333,22.8333 56.8333,25.1667 55.5,27.5C 49.6056,24.3924 43.939,21.059 38.5,17.5C 39.2485,15.6675 40.2485,14.0009 41.5,12.5 Z"/></g>
<g><path style="opacity:0.945" fill="#689fe0" d="M 30.5,20.5 C 26.334,23.3212 23.334,26.9879 21.5,31.5C 18.0333,33.0672 14.6999,34.9005 11.5,37C 14.0321,38.7653 16.6987,40.2653 19.5,41.5C 18.4154,43.5869 16.7488,44.9202 14.5,45.5C 11.4604,44.3197 8.79371,42.653 6.5,40.5C 10.9634,35.5354 15.6301,30.7021 20.5,26C 20.2716,25.6012 19.9382,25.4346 19.5,25.5C 22.7699,23.5259 26.1032,21.5259 29.5,19.5C 30.1067,19.6236 30.44,19.9569 30.5,20.5 Z"/></g>
<g><path style="opacity:0.973" fill="#69a1e0" d="M 30.5,20.5 C 32.4233,20.795 34.0899,21.6283 35.5,23C 30.6844,25.6618 26.0177,28.4951 21.5,31.5C 23.334,26.9879 26.334,23.3212 30.5,20.5 Z"/></g>
<g><path style="opacity:0.938" fill="#6d9ce2" d="M 19.5,25.5 C 19.9382,25.4346 20.2716,25.6012 20.5,26C 15.6301,30.7021 10.9634,35.5354 6.5,40.5C 2.95785,39.8165 1.95785,37.8165 3.5,34.5C 8.8606,31.488 14.1939,28.488 19.5,25.5 Z"/></g>
<g><path style="opacity:1" fill="#58a5da" d="M 48.5,31.5 C 47.5,32.8333 46.5,34.1667 45.5,35.5C 42.0604,33.9451 38.7271,32.1118 35.5,30C 37.3333,28.8333 39.1667,27.6667 41,26.5C 43.8239,27.8181 46.3239,29.4848 48.5,31.5 Z"/></g>
<g><path style="opacity:1" fill="#47a3d6" d="M 48.5,31.5 C 49.7095,31.9321 50.7095,32.5987 51.5,33.5C 47.5,38.5 43.5,43.5 39.5,48.5C 36.4502,50.6916 33.1168,52.3583 29.5,53.5C 31.5797,49.9135 34.2463,46.7468 37.5,44C 37.2716,43.6012 36.9382,43.4346 36.5,43.5C 39.4362,41.6921 42.4362,39.8588 45.5,38C 46.5981,37.2303 46.5981,36.397 45.5,35.5C 46.5,34.1667 47.5,32.8333 48.5,31.5 Z"/></g>
<g><path style="opacity:1" fill="#44a3d4" d="M 51.5,33.5 C 52.8068,34.1534 54.1401,34.8201 55.5,35.5C 56.8333,36.8333 56.8333,38.1667 55.5,39.5C 50.1394,42.512 44.8061,45.512 39.5,48.5C 43.5,43.5 47.5,38.5 51.5,33.5 Z"/></g>
<g><path style="opacity:0.975" fill="#60a4dd" d="M 28.5,33.5 C 30.3083,34.9073 32.3083,36.074 34.5,37C 31.0232,41.4374 27.3565,41.6041 23.5,37.5C 25.0147,35.9178 26.6814,34.5845 28.5,33.5 Z"/></g>
<g><path style="opacity:0.989" fill="#56a0db" d="M 19.5,41.5 C 21.6705,43.0862 24.0038,44.4196 26.5,45.5C 26.7271,47.9328 25.7271,49.5994 23.5,50.5C 20.331,49.0834 17.331,47.4168 14.5,45.5C 16.7488,44.9202 18.4154,43.5869 19.5,41.5 Z"/></g>
<g><path style="opacity:0.998" fill="#4da2d8" d="M 36.5,43.5 C 36.9382,43.4346 37.2716,43.6012 37.5,44C 34.2463,46.7468 31.5797,49.9135 29.5,53.5C 29.5654,53.9382 29.3988,54.2716 29,54.5C 27.1879,53.0229 25.3545,51.6896 23.5,50.5C 25.7271,49.5994 26.7271,47.9328 26.5,45.5C 27.7206,46.0283 28.8873,46.695 30,47.5C 31.9438,45.7794 34.1105,44.446 36.5,43.5 Z"/></g>
</svg>
